<svg width="39" height="39" viewBox="0 0 39 39" fill="none" xmlns="http://www.w3.org/2000/svg">
<circle cx="19.5" cy="19.5" r="19.5" fill="#EAEAEA"/>
<path d="M11.3999 12.5134C11.3999 11.1701 12.4889 10.0811 13.8323 10.0811H26.4328L26.8051 17.7836V29.5402H11.3999V12.5134Z" fill="white"/>
<path d="M20.8995 18.9912H14.8901M16.8932 22.9975H14.8901M22.9027 14.9849H14.8901M26.909 19.9928V14.7846C26.909 13.1018 26.909 12.2604 26.5815 11.6177C26.2934 11.0523 25.8337 10.5926 25.2684 10.3045C24.6256 9.97705 23.7842 9.97705 22.1014 9.97705H15.6913C14.0085 9.97705 13.1671 9.97705 12.5244 10.3045C11.959 10.5926 11.4994 11.0523 11.2113 11.6177C10.8838 12.2604 10.8838 13.1018 10.8838 14.7846V25.201C10.8838 26.8838 10.8838 27.7252 11.2113 28.3679C11.4994 28.9333 11.959 29.393 12.5244 29.681C13.1671 30.0085 14.0085 30.0085 15.6913 30.0085H18.8964" stroke="#727272" stroke-width="0.866667" stroke-linecap="round" stroke-linejoin="round"/>
<rect x="19.1802" y="20.644" width="11.8527" height="11.8527" rx="4.74108" fill="#EAEAEA"/>
<path d="M22.7358 24.1987L27.7437 29.2066M27.7437 24.1987L22.7358 29.2066" stroke="#727272" stroke-width="0.866667" stroke-linecap="round" stroke-linejoin="round"/>
</svg>
