<svg width="25" height="25" viewBox="0 0 25 25" fill="none" xmlns="http://www.w3.org/2000/svg">
<rect width="25" height="25" rx="12.5" fill="#E7E7E7"/>
<path d="M7 8.82578C7 10.3865 9.53001 11.6516 12.6516 11.6516C15.7731 11.6516 18.3031 10.3865 18.3031 8.82578C18.3031 7.26501 15.7731 6 12.6516 6C9.53001 6 7 7.26501 7 8.82578Z" stroke="#858585" stroke-width="1.21726" stroke-linecap="round" stroke-linejoin="round"/>
<path d="M7 13C7 13.8824 9.36124 15.362 12.4516 15.362C15.542 15.362 18.3031 13.8824 18.3031 13" stroke="#858585" stroke-width="1.21726" stroke-linecap="round" stroke-linejoin="round"/>
<path d="M6.99902 8.49951V16.5003C6.99902 18.2015 9.52904 19.3261 12.6506 19.3261C15.7721 19.3261 18.3021 18.2015 18.3021 16.5003V8.49951" stroke="#858585" stroke-width="1.21726" stroke-linecap="round" stroke-linejoin="round"/>
</svg>
