<svg width="25" height="25" viewBox="0 0 25 25" fill="none" xmlns="http://www.w3.org/2000/svg">
<rect width="25" height="25" rx="12.5" fill="#E7E7E7"/>
<path d="M11.7 8.65H11.9606C13.789 8.65 14.7032 8.65 15.0502 8.95101C15.3501 9.2112 15.4831 9.5945 15.4021 9.96572C15.3084 10.3952 14.5621 10.8791 13.0694 11.8469L10.6306 13.4281C9.13794 14.3959 8.39159 14.8798 8.2979 15.3093C8.21691 15.6805 8.34985 16.0638 8.64982 16.324C8.99684 16.625 9.91101 16.625 11.7394 16.625H12.3M9.6 8.65C9.6 9.56127 8.79411 10.3 7.8 10.3C6.80589 10.3 6 9.56127 6 8.65C6 7.73873 6.80589 7 7.8 7C8.79411 7 9.6 7.73873 9.6 8.65ZM18 16.35C18 17.2613 17.1941 18 16.2 18C15.2059 18 14.4 17.2613 14.4 16.35C14.4 15.4387 15.2059 14.7 16.2 14.7C17.1941 14.7 18 15.4387 18 16.35Z" stroke="#858585" stroke-width="1.3" stroke-linecap="round" stroke-linejoin="round"/>
</svg>
