<svg width="25" height="25" viewBox="0 0 25 25" fill="none" xmlns="http://www.w3.org/2000/svg">
<rect width="25" height="25" rx="12.5" fill="#E7E7E7"/>
<path d="M13.0377 6.11724C12.8684 6.03998 12.6844 6 12.4982 6C12.312 6 12.1281 6.03998 11.9587 6.11724L6.38778 8.65242C6.27243 8.70328 6.17436 8.78659 6.10551 8.89219C6.03666 8.9978 6 9.12114 6 9.24721C6 9.37328 6.03666 9.49662 6.10551 9.60223C6.17436 9.70783 6.27243 9.79114 6.38778 9.842L11.9652 12.3837C12.1346 12.4609 12.3185 12.5009 12.5047 12.5009C12.6909 12.5009 12.8749 12.4609 13.0443 12.3837L18.6216 9.8485C18.737 9.79764 18.8351 9.71433 18.9039 9.60873C18.9728 9.50312 19.0094 9.37978 19.0094 9.25371C19.0094 9.12764 18.9728 9.0043 18.9039 8.89869C18.8351 8.79309 18.737 8.70978 18.6216 8.65892L13.0377 6.11724Z" stroke="#858585" stroke-width="1.2" stroke-linecap="round" stroke-linejoin="round"/>
<path d="M8.64867 10.875L6.37351 11.9151C6.26183 11.9676 6.16741 12.0508 6.10126 12.1549C6.03512 12.2591 6 12.38 6 12.5034C6 12.6268 6.03512 12.7476 6.10126 12.8518C6.16741 12.956 6.26183 13.0392 6.37351 13.0917L11.9639 15.6333C12.1324 15.7096 12.3152 15.7491 12.5002 15.7491C12.6852 15.7491 12.868 15.7096 13.0365 15.6333L18.6139 13.0982C18.7292 13.0473 18.8273 12.964 18.8961 12.8584C18.965 12.7528 19.0017 12.6294 19.0017 12.5034C19.0017 12.3773 18.965 12.254 18.8961 12.1483C18.8273 12.0427 18.7292 11.9594 18.6139 11.9086L16.3387 10.875" stroke="#858585" stroke-width="1.2" stroke-linecap="round" stroke-linejoin="round"/>
<path d="M8.64867 14.125L6.37351 15.1651C6.26183 15.2176 6.16741 15.3008 6.10126 15.4049C6.03512 15.5091 6 15.63 6 15.7534C6 15.8768 6.03512 15.9976 6.10126 16.1018C6.16741 16.206 6.26183 16.2892 6.37351 16.3417L11.9639 18.8833C12.1324 18.9596 12.3152 18.9991 12.5002 18.9991C12.6852 18.9991 12.868 18.9596 13.0365 18.8833L18.6139 16.3482C18.7292 16.2973 18.8273 16.214 18.8961 16.1084C18.965 16.0028 19.0017 15.8794 19.0017 15.7534C19.0017 15.6273 18.965 15.504 18.8961 15.3983C18.8273 15.2927 18.7292 15.2094 18.6139 15.1586L16.3387 14.125" stroke="#858585" stroke-width="1.2" stroke-linecap="round" stroke-linejoin="round"/>
</svg>
