<svg width="34" height="34" viewBox="0 0 34 34" fill="none" xmlns="http://www.w3.org/2000/svg">
<rect x="0.577253" y="0.577253" width="32.8455" height="32.8455" rx="16.4227" fill="white" stroke="#E3E3E3" stroke-width="1.15451"/>
<path fill-rule="evenodd" clip-rule="evenodd" d="M14.279 8.27344C14.287 8.27344 14.2949 8.27344 14.3029 8.27344L18.0151 8.27344C18.2095 8.27342 18.3973 8.2734 18.556 8.2866C18.7301 8.30108 18.9327 8.33511 19.1356 8.44033C19.4179 8.58678 19.6449 8.81916 19.7865 9.10197C19.8876 9.30397 19.9202 9.50536 19.9342 9.67972C19.9384 9.73134 19.9412 9.78606 19.9431 9.84318C20.2623 9.85219 20.5316 9.87685 20.7768 9.94374C21.8275 10.2304 22.6402 11.0633 22.9181 12.1193C23.0211 12.5107 23.0209 12.9638 23.0206 13.5918C23.0206 13.6253 23.0206 13.6594 23.0206 13.694V19.8038C23.0206 20.4357 23.0206 20.9531 22.9868 21.3737C22.9519 21.809 22.8773 22.2036 22.6925 22.5729C22.4036 23.1502 21.9415 23.6219 21.37 23.9184C21.0028 24.1089 20.6105 24.1855 20.1801 24.2213C19.7654 24.2558 19.2559 24.2558 18.6365 24.2558H13.6575C13.0381 24.2558 12.5286 24.2558 12.114 24.2213C11.6836 24.1855 11.2912 24.1089 10.9241 23.9184C10.3526 23.6219 9.89041 23.1502 9.60155 22.5729C9.41672 22.2036 9.34216 21.809 9.30723 21.3737C9.27348 20.9531 9.27349 20.4358 9.2735 19.8039L9.2735 13.694C9.2735 13.6594 9.27348 13.6253 9.27347 13.5917C9.27318 12.9638 9.27297 12.5107 9.37596 12.1193C9.65388 11.0633 10.4666 10.2304 11.5173 9.94374C11.7625 9.87685 12.0318 9.85219 12.351 9.84318C12.3529 9.78606 12.3557 9.73134 12.3598 9.67972C12.3738 9.50536 12.4065 9.30397 12.5076 9.10197C12.6491 8.81916 12.8762 8.58678 13.1585 8.44033C13.3613 8.33511 13.5639 8.30108 13.738 8.2866C13.8967 8.2734 14.0845 8.27342 14.279 8.27344ZM12.3514 11.2973C12.1217 11.3041 12.0007 11.3179 11.8997 11.3454C11.3594 11.4928 10.9295 11.9252 10.7811 12.4891C10.7325 12.6737 10.7264 12.9205 10.7264 13.694V19.774C10.7264 20.443 10.727 20.9019 10.7555 21.2575C10.7834 21.6049 10.8345 21.79 10.9009 21.9227C11.054 22.2287 11.2971 22.4751 11.5931 22.6287C11.7191 22.694 11.896 22.7452 12.2344 22.7734C12.5817 22.8023 13.0305 22.8029 13.6882 22.8029H18.6058C19.2636 22.8029 19.7124 22.8023 20.0596 22.7734C20.3981 22.7452 20.575 22.694 20.7009 22.6287C20.9969 22.4751 21.24 22.2287 21.3932 21.9227C21.4596 21.79 21.5107 21.6049 21.5385 21.2575C21.5671 20.9019 21.5676 20.443 21.5676 19.774V13.694C21.5676 12.9205 21.5616 12.6737 21.513 12.4891C21.3646 11.9252 20.9346 11.4928 20.3943 11.3454C20.2933 11.3179 20.1723 11.3041 19.9427 11.2973C19.9408 11.3503 19.9381 11.4013 19.9342 11.4495C19.9202 11.6239 19.8876 11.8253 19.7865 12.0273C19.6449 12.3101 19.4179 12.5425 19.1356 12.6889C18.9327 12.7941 18.7301 12.8282 18.556 12.8426C18.3973 12.8558 18.2095 12.8558 18.015 12.8558L14.3029 12.8558C14.2949 12.8558 14.287 12.8558 14.279 12.8558C14.0845 12.8558 13.8967 12.8558 13.738 12.8426C13.5639 12.8282 13.3613 12.7941 13.1585 12.6889C12.8762 12.5425 12.6491 12.3101 12.5076 12.0273C12.4065 11.8253 12.3738 11.6239 12.3598 11.4495C12.356 11.4013 12.3533 11.3503 12.3514 11.2973ZM18.4941 10.2517C18.4941 10.0208 18.4935 9.89059 18.4859 9.79594C18.4838 9.76922 18.4814 9.75153 18.4797 9.74086C18.4792 9.74028 18.4787 9.73973 18.4782 9.7392C18.4686 9.7378 18.4546 9.73612 18.4356 9.73454C18.3446 9.72697 18.2185 9.72638 17.9911 9.72638H14.3029C14.0755 9.72638 13.9495 9.72697 13.8585 9.73454C13.8394 9.73612 13.8255 9.7378 13.8158 9.7392C13.8153 9.73973 13.8148 9.74028 13.8143 9.74086C13.8126 9.75153 13.8103 9.76922 13.8081 9.79594C13.8005 9.8906 13.8 10.0208 13.8 10.2517V10.8776C13.8 11.1084 13.8005 11.2386 13.8081 11.3333C13.8103 11.36 13.8126 11.3777 13.8143 11.3884C13.8148 11.389 13.8153 11.3895 13.8158 11.39C13.8255 11.3914 13.8394 11.3931 13.8585 11.3947C13.9495 11.4023 14.0755 11.4029 14.3029 11.4029H17.9911C18.2185 11.4029 18.3446 11.4023 18.4356 11.3947C18.4546 11.3931 18.4686 11.3914 18.4783 11.39C18.4787 11.3895 18.4792 11.389 18.4797 11.3884C18.4814 11.3777 18.4838 11.36 18.4859 11.3333C18.4935 11.2386 18.4941 11.1084 18.4941 10.8776V10.2517Z" fill="#222222"/>
<path d="M10.9241 23.9184C11.2912 24.1089 11.6836 24.1855 12.114 24.2213C12.5286 24.2558 13.0381 24.2558 13.6575 24.2558H18.6365C19.2559 24.2558 19.7654 24.2558 20.1801 24.2213C20.6105 24.1855 21.0028 24.1089 21.37 23.9184C21.9415 23.6219 22.4036 23.1502 22.6925 22.5729C22.8773 22.2036 22.9519 21.809 22.9868 21.3737C23.0206 20.9531 23.0206 20.4357 23.0206 19.8038V13.694C23.0206 13.6594 23.0206 13.6253 23.0206 13.5918C23.0209 12.9638 23.0211 12.5107 22.9181 12.1193C22.6402 11.0633 21.8275 10.2304 20.7768 9.94374C20.5316 9.87685 20.2623 9.85219 19.9431 9.84318C19.9412 9.78606 19.9384 9.73134 19.9342 9.67972C19.9202 9.50536 19.8876 9.30397 19.7865 9.10197C19.6449 8.81916 19.4179 8.58678 19.1356 8.44033C18.9327 8.33511 18.7301 8.30108 18.556 8.2866C18.3973 8.2734 18.2095 8.27342 18.0151 8.27344L14.3029 8.27344C14.2949 8.27344 14.287 8.27344 14.279 8.27344C14.0845 8.27342 13.8967 8.2734 13.738 8.2866C13.5639 8.30108 13.3613 8.33511 13.1585 8.44033C12.8762 8.58678 12.6491 8.81916 12.5076 9.10197C12.4065 9.30397 12.3738 9.50536 12.3598 9.67972C12.3557 9.73134 12.3529 9.78606 12.351 9.84318C12.0318 9.85219 11.7625 9.87685 11.5173 9.94374C10.4666 10.2304 9.65388 11.0633 9.37596 12.1193C9.27297 12.5107 9.27318 12.9638 9.27347 13.5917C9.27348 13.6253 9.2735 13.6594 9.2735 13.694L9.2735 19.8039C9.27349 20.4358 9.27348 20.9531 9.30723 21.3737C9.34216 21.809 9.41672 22.2036 9.60155 22.5729C9.89041 23.1502 10.3526 23.6219 10.9241 23.9184ZM10.9241 23.9184L11.2586 23.2735M10.9009 21.9227C10.8345 21.79 10.7834 21.6049 10.7555 21.2575C10.727 20.9019 10.7264 20.443 10.7264 19.774V13.694C10.7264 12.9205 10.7325 12.6737 10.7811 12.4891C10.9295 11.9252 11.3594 11.4928 11.8997 11.3454C12.0007 11.3179 12.1217 11.3041 12.3514 11.2973C12.3533 11.3503 12.356 11.4013 12.3598 11.4495C12.3738 11.6239 12.4065 11.8253 12.5076 12.0273C12.6491 12.3101 12.8762 12.5425 13.1585 12.6889C13.3613 12.7941 13.5639 12.8282 13.738 12.8426C13.8967 12.8558 14.0845 12.8558 14.279 12.8558C14.287 12.8558 14.2949 12.8558 14.3029 12.8558L18.015 12.8558C18.2095 12.8558 18.3973 12.8558 18.556 12.8426C18.7301 12.8282 18.9327 12.7941 19.1356 12.6889C19.4179 12.5425 19.6449 12.3101 19.7865 12.0273C19.8876 11.8253 19.9202 11.6239 19.9342 11.4495C19.9381 11.4013 19.9408 11.3503 19.9427 11.2973C20.1723 11.3041 20.2933 11.3179 20.3943 11.3454C20.9346 11.4928 21.3646 11.9252 21.513 12.4891C21.5616 12.6737 21.5676 12.9205 21.5676 13.694V19.774C21.5676 20.443 21.5671 20.9019 21.5385 21.2575C21.5107 21.6049 21.4596 21.79 21.3932 21.9227C21.24 22.2287 20.9969 22.4751 20.7009 22.6287C20.575 22.694 20.3981 22.7452 20.0596 22.7734C19.7124 22.8023 19.2636 22.8029 18.6058 22.8029H13.6882C13.0305 22.8029 12.5817 22.8023 12.2344 22.7734C11.896 22.7452 11.7191 22.694 11.5931 22.6287C11.2971 22.4751 11.054 22.2287 10.9009 21.9227ZM10.9009 21.9227L10.2592 22.2438M18.4941 10.2517C18.4941 10.0208 18.4935 9.89059 18.4859 9.79594C18.4838 9.76922 18.4814 9.75153 18.4797 9.74086C18.4792 9.74028 18.4787 9.73973 18.4782 9.7392C18.4686 9.7378 18.4546 9.73612 18.4356 9.73454C18.3446 9.72697 18.2185 9.72638 17.9911 9.72638H14.3029C14.0755 9.72638 13.9495 9.72697 13.8585 9.73454C13.8394 9.73612 13.8255 9.7378 13.8158 9.7392C13.8153 9.73973 13.8148 9.74028 13.8143 9.74086C13.8126 9.75153 13.8103 9.76922 13.8081 9.79594C13.8005 9.8906 13.8 10.0208 13.8 10.2517V10.8776C13.8 11.1084 13.8005 11.2386 13.8081 11.3333C13.8103 11.36 13.8126 11.3777 13.8143 11.3884C13.8148 11.389 13.8153 11.3895 13.8158 11.39C13.8255 11.3914 13.8394 11.3931 13.8585 11.3947C13.9495 11.4023 14.0755 11.4029 14.3029 11.4029H17.9911C18.2185 11.4029 18.3446 11.4023 18.4356 11.3947C18.4546 11.3931 18.4686 11.3914 18.4783 11.39C18.4787 11.3895 18.4792 11.389 18.4797 11.3884C18.4814 11.3777 18.4838 11.36 18.4859 11.3333C18.4935 11.2386 18.4941 11.1084 18.4941 10.8776V10.2517Z" stroke="black" stroke-width="0.1" stroke-linecap="round" stroke-linejoin="round"/>
<path d="M14.4697 20.7354C14.4697 16.7232 17.7222 13.4707 21.7344 13.4707V13.4707C25.7466 13.4707 28.9991 16.7232 28.9991 20.7354V20.7354C28.9991 24.7476 25.7466 28.0001 21.7344 28.0001V28.0001C17.7222 28.0001 14.4697 24.7476 14.4697 20.7354V20.7354Z" fill="#F5F5F5"/>
<path fill-rule="evenodd" clip-rule="evenodd" d="M21.6652 16.4319C20.8937 16.4319 20.23 17.0837 20.23 17.9358C20.23 18.7879 20.8937 19.4396 21.6652 19.4396C22.4366 19.4396 23.1004 18.7879 23.1004 17.9358C23.1004 17.0837 22.4366 16.4319 21.6652 16.4319ZM18.777 17.9358C18.777 16.3244 20.0488 14.979 21.6652 14.979C23.2815 14.979 24.5533 16.3244 24.5533 17.9358C24.5533 19.5472 23.2815 20.8926 21.6652 20.8926C20.0488 20.8926 18.777 19.5472 18.777 17.9358ZM20.3568 21.1742C20.3921 21.1743 20.4279 21.1743 20.4642 21.1743H22.8661C22.9024 21.1743 22.9382 21.1743 22.9735 21.1742C23.5378 21.1738 23.9799 21.1734 24.3614 21.2928C25.2143 21.5597 25.8698 22.2439 26.1224 23.1028C26.1321 23.1358 26.1367 23.1464 26.1397 23.1534C26.14 23.154 26.1403 23.1547 26.1406 23.1553C26.1412 23.1567 26.142 23.1585 26.1429 23.1607C26.1552 23.1885 26.1933 23.275 26.2135 23.3914C26.2296 23.4839 26.232 23.579 26.2332 23.6546C26.2346 23.739 26.2346 23.8579 26.2346 24.023V24.0319C26.2346 24.4332 25.9094 24.7584 25.5081 24.7584C25.1069 24.7584 24.7817 24.4332 24.7817 24.0319C24.7817 23.8558 24.7816 23.7493 24.7805 23.6786C24.7804 23.6744 24.7803 23.6706 24.7803 23.6669C24.7649 23.6273 24.7475 23.5776 24.7284 23.5127C24.6084 23.1044 24.3028 22.7969 23.9274 22.6794C23.7873 22.6356 23.5908 22.6272 22.8661 22.6272H20.4642C19.7395 22.6272 19.543 22.6356 19.4029 22.6794C19.0275 22.7969 18.7219 23.1044 18.6019 23.5127C18.5828 23.5776 18.5654 23.6273 18.5501 23.6669C18.55 23.6706 18.5499 23.6744 18.5498 23.6786C18.5487 23.7493 18.5486 23.8558 18.5486 24.0319C18.5486 24.4332 18.2234 24.7584 17.8222 24.7584C17.421 24.7584 17.0957 24.4332 17.0957 24.0319V24.023C17.0957 23.8579 17.0957 23.7389 17.0971 23.6546C17.0983 23.579 17.1007 23.4839 17.1168 23.3914C17.1371 23.275 17.1751 23.1885 17.1874 23.1607C17.1883 23.1585 17.1891 23.1567 17.1897 23.1553C17.19 23.1547 17.1903 23.154 17.1906 23.1534C17.1936 23.1464 17.1983 23.1358 17.2079 23.1028C17.4605 22.2439 18.1161 21.5597 18.9689 21.2928C19.3504 21.1734 19.7926 21.1738 20.3568 21.1742ZM18.5202 23.7396C18.5202 23.7396 18.5205 23.7388 18.5212 23.7369C18.5206 23.7386 18.5202 23.7396 18.5202 23.7396ZM24.8101 23.7396C24.8101 23.7396 24.8097 23.7387 24.8091 23.7369C24.8098 23.7388 24.8102 23.7396 24.8101 23.7396Z" fill="#222222" stroke="black" stroke-width="0.2" stroke-linecap="round" stroke-linejoin="round"/>
</svg>
