<svg width="29" height="29" viewBox="0 0 29 29" fill="none" xmlns="http://www.w3.org/2000/svg">
<rect width="29" height="29" rx="14.5" fill="#9A907F"/>
<path fill-rule="evenodd" clip-rule="evenodd" d="M11.4091 12.1818C11.4091 13.8889 12.7929 15.2727 14.5 15.2727C16.2071 15.2727 17.5909 13.8889 17.5909 12.1818C17.5909 10.4748 16.2071 9.09091 14.5 9.09091C12.7929 9.09091 11.4091 10.4748 11.4091 12.1818ZM12.9545 12.1818C12.9545 13.0353 13.6465 13.7273 14.5 13.7273C15.3535 13.7273 16.0455 13.0353 16.0455 12.1818C16.0455 11.3283 15.3535 10.6364 14.5 10.6364C13.6465 10.6364 12.9545 11.3283 12.9545 12.1818Z" fill="white" fill-opacity="0.6"/>
<path fill-rule="evenodd" clip-rule="evenodd" d="M14.5 6C19.1944 6 23 9.80558 23 14.5C23 19.1944 19.1944 23 14.5 23C9.80558 23 6 19.1944 6 14.5C6 9.80558 9.80558 6 14.5 6ZM21.4545 14.5C21.4545 16.1152 20.9039 17.6017 19.9802 18.7822C18.7095 17.1187 16.7052 16.0455 14.4502 16.0455C12.2244 16.0455 10.2429 17.091 8.96998 18.7178C8.07629 17.5478 7.54545 16.0859 7.54545 14.5C7.54545 10.6591 10.6591 7.54545 14.5 7.54545C18.3409 7.54545 21.4545 10.6591 21.4545 14.5ZM14.5 21.4545C16.1615 21.4545 17.687 20.8719 18.8832 19.8997C17.905 18.5037 16.2842 17.5909 14.4502 17.5909C12.6389 17.5909 11.0356 18.4811 10.0539 19.8479C11.2593 20.8511 12.8092 21.4545 14.5 21.4545Z" fill="white" fill-opacity="0.6"/>
</svg>
