<svg width="25" height="25" viewBox="0 0 25 25" fill="none" xmlns="http://www.w3.org/2000/svg">
<rect width="25" height="25" rx="12.5" fill="#E7E7E7"/>
<path d="M11.7223 8.42676H15.8884C16.5276 8.42676 16.8473 8.42676 17.0914 8.55116C17.3062 8.66059 17.4808 8.83521 17.5902 9.04998C17.7146 9.29414 17.7146 9.61376 17.7146 10.253V10.9949C17.7146 11.5268 17.7146 11.7927 17.6278 12.0024C17.5119 12.2821 17.2897 12.5043 17.01 12.6201C16.8003 12.707 16.5344 12.707 16.0025 12.707M12.8637 16.9873H8.69754C8.05829 16.9873 7.73867 16.9873 7.49451 16.8629C7.27974 16.7535 7.10513 16.5789 6.99569 16.3641C6.87129 16.1199 6.87129 15.8003 6.87129 15.1611V14.4191C6.87129 13.8873 6.87129 13.6214 6.95817 13.4116C7.07402 13.132 7.29622 12.9098 7.5759 12.7939C7.78566 12.707 8.05157 12.707 8.5834 12.707M11.3228 14.1338H13.2632C13.423 14.1338 13.5029 14.1338 13.5639 14.1027C13.6176 14.0753 13.6613 14.0317 13.6886 13.978C13.7197 13.9169 13.7197 13.837 13.7197 13.6772V11.7368C13.7197 11.577 13.7197 11.4971 13.6886 11.4361C13.6613 11.3824 13.6176 11.3387 13.5639 11.3114C13.5029 11.2803 13.423 11.2803 13.2632 11.2803H11.3228C11.163 11.2803 11.0831 11.2803 11.022 11.3114C10.9683 11.3387 10.9247 11.3824 10.8973 11.4361C10.8662 11.4971 10.8662 11.577 10.8662 11.7368V13.6772C10.8662 13.837 10.8662 13.9169 10.8973 13.978C10.9247 14.0317 10.9683 14.0753 11.022 14.1027C11.0831 14.1338 11.163 14.1338 11.3228 14.1338ZM15.603 18.4141H17.5434C17.7033 18.4141 17.7832 18.4141 17.8442 18.383C17.8979 18.3556 17.9415 18.312 17.9689 18.2583C18 18.1972 18 18.1173 18 17.9575V16.0171C18 15.8573 18 15.7774 17.9689 15.7164C17.9415 15.6627 17.8979 15.619 17.8442 15.5916C17.7832 15.5605 17.7033 15.5605 17.5434 15.5605H15.603C15.4432 15.5605 15.3633 15.5605 15.3023 15.5916C15.2486 15.619 15.2049 15.6627 15.1776 15.7164C15.1465 15.7774 15.1465 15.8573 15.1465 16.0171V17.9575C15.1465 18.1173 15.1465 18.1972 15.1776 18.2583C15.2049 18.312 15.2486 18.3556 15.3023 18.383C15.3633 18.4141 15.4432 18.4141 15.603 18.4141ZM7.0425 9.85352H8.98289C9.1427 9.85352 9.22261 9.85352 9.28365 9.82241C9.33734 9.79506 9.38099 9.7514 9.40835 9.69771C9.43945 9.63667 9.43945 9.55676 9.43945 9.39695V7.45656C9.43945 7.29675 9.43945 7.21684 9.40835 7.1558C9.38099 7.10211 9.33734 7.05846 9.28365 7.0311C9.22261 7 9.1427 7 8.98289 7H7.0425C6.88269 7 6.80278 7 6.74174 7.0311C6.68805 7.05846 6.6444 7.10211 6.61704 7.1558C6.58594 7.21684 6.58594 7.29675 6.58594 7.45656V9.39695C6.58594 9.55676 6.58594 9.63667 6.61704 9.69771C6.6444 9.7514 6.68805 9.79506 6.74174 9.82241C6.80278 9.85352 6.88269 9.85352 7.0425 9.85352Z" stroke="#858585" stroke-width="1.2" stroke-linecap="round" stroke-linejoin="round"/>
</svg>
