<svg width="34" height="34" viewBox="0 0 34 34" fill="none" xmlns="http://www.w3.org/2000/svg">
<rect x="0.577253" y="0.577253" width="32.8455" height="32.8455" rx="16.4227" fill="white" stroke="#E3E3E3" stroke-width="1.15451"/>
<path d="M15.0079 23.6552C12.3342 23.0103 10.2296 20.9056 9.58476 18.2318M23.8951 18.2319C23.2503 20.9056 21.1457 23.0102 18.472 23.6551M18.4718 9.34497C21.1456 9.98981 23.2502 12.0945 23.8951 14.7683M9.58493 14.7683C10.2298 12.0945 12.3344 9.98982 15.0083 9.34497M9.46646 18.2319H10.1592C10.6441 18.2319 10.8866 18.2319 11.0718 18.1375C11.2347 18.0545 11.3672 17.922 11.4502 17.7591C11.5446 17.5739 11.5446 17.3314 11.5446 16.8465V16.1538C11.5446 15.6688 11.5446 15.4263 11.4502 15.2411C11.3672 15.0782 11.2347 14.9457 11.0718 14.8627C10.8866 14.7683 10.6441 14.7683 10.1592 14.7683H9.46646C8.98152 14.7683 8.73906 14.7683 8.55383 14.8627C8.39091 14.9457 8.25844 15.0782 8.17543 15.2411C8.08105 15.4263 8.08105 15.6688 8.08105 16.1538V16.8465C8.08105 17.3314 8.08105 17.5739 8.17543 17.7591C8.25844 17.922 8.39091 18.0545 8.55383 18.1375C8.73906 18.2319 8.98152 18.2319 9.46646 18.2319ZM23.3205 18.2319H24.0132C24.4982 18.2319 24.7407 18.2319 24.9259 18.1375C25.0888 18.0545 25.2213 17.922 25.3043 17.7591C25.3987 17.5739 25.3987 17.3314 25.3987 16.8465V16.1538C25.3987 15.6688 25.3987 15.4263 25.3043 15.2411C25.2213 15.0782 25.0888 14.9457 24.9259 14.8627C24.7407 14.7683 24.4982 14.7683 24.0132 14.7683H23.3205C22.8356 14.7683 22.5931 14.7683 22.4079 14.8627C22.245 14.9457 22.1125 15.0782 22.0295 15.2411C21.9351 15.4263 21.9351 15.6688 21.9351 16.1538V16.8465C21.9351 17.3314 21.9351 17.5739 22.0295 17.7591C22.1125 17.922 22.245 18.0545 22.4079 18.1375C22.5931 18.2319 22.8356 18.2319 23.3205 18.2319ZM16.3935 11.3048H17.0862C17.5711 11.3048 17.8136 11.3048 17.9988 11.2105C18.1618 11.1274 18.2942 10.995 18.3772 10.832C18.4716 10.6468 18.4716 10.4044 18.4716 9.91942V9.22672C18.4716 8.74178 18.4716 8.49931 18.3772 8.31409C18.2942 8.15116 18.1618 8.0187 17.9988 7.93568C17.8136 7.84131 17.5711 7.84131 17.0862 7.84131H16.3935C15.9086 7.84131 15.6661 7.84131 15.4809 7.93568C15.3179 8.0187 15.1855 8.15116 15.1025 8.31409C15.0081 8.49931 15.0081 8.74178 15.0081 9.22672V9.91942C15.0081 10.4044 15.0081 10.6468 15.1025 10.832C15.1855 10.995 15.3179 11.1274 15.4809 11.2105C15.6661 11.3048 15.9086 11.3048 16.3935 11.3048ZM16.3935 25.1589H17.0862C17.5711 25.1589 17.8136 25.1589 17.9988 25.0645C18.1618 24.9815 18.2942 24.8491 18.3772 24.6861C18.4716 24.5009 18.4716 24.2584 18.4716 23.7735V23.0808C18.4716 22.5959 18.4716 22.3534 18.3772 22.1682C18.2942 22.0052 18.1618 21.8728 17.9988 21.7898C17.8136 21.6954 17.5711 21.6954 17.0862 21.6954H16.3935C15.9086 21.6954 15.6661 21.6954 15.4809 21.7898C15.3179 21.8728 15.1855 22.0052 15.1025 22.1682C15.0081 22.3534 15.0081 22.5959 15.0081 23.0808V23.7735C15.0081 24.2584 15.0081 24.5009 15.1025 24.6861C15.1855 24.8491 15.3179 24.9815 15.4809 25.0645C15.6661 25.1589 15.9086 25.1589 16.3935 25.1589Z" stroke="#222222" stroke-width="1.26996" stroke-linecap="round" stroke-linejoin="round"/>
</svg>
