<svg width="34" height="34" viewBox="0 0 34 34" fill="none" xmlns="http://www.w3.org/2000/svg">
<rect x="0.577253" y="0.577253" width="32.8455" height="32.8455" rx="16.4227" fill="white" stroke="#E3E3E3" stroke-width="1.15451"/>
<path opacity="0.9" d="M13.3002 13.9012H17.0228M13.3002 17.2289H19.8147M17.4881 23.8843C21.857 23.8843 25.3987 20.266 25.3987 15.8027C25.3987 11.3394 21.857 7.72119 17.4881 7.72119C13.1192 7.72119 9.57757 11.3394 9.57757 15.8027C9.57757 16.706 9.7226 17.5746 9.99019 18.3856C10.0909 18.6908 10.1412 18.8434 10.1503 18.9607C10.1593 19.0764 10.1525 19.1576 10.1245 19.2701C10.0961 19.3841 10.0334 19.5026 9.90803 19.7397L8.38581 22.6182C8.16867 23.0288 8.06011 23.2341 8.08441 23.3925C8.10557 23.5305 8.18507 23.652 8.3018 23.7248C8.43582 23.8083 8.66301 23.7843 9.1174 23.7363L13.8833 23.233C14.0276 23.2178 14.0998 23.2102 14.1656 23.2127C14.2302 23.2153 14.2759 23.2215 14.339 23.2363C14.4031 23.2514 14.4838 23.2832 14.6451 23.3467C15.5274 23.6939 16.486 23.8843 17.4881 23.8843Z" stroke="#222222" stroke-width="1.4" stroke-linecap="round" stroke-linejoin="round"/>
</svg>
