<svg width="25" height="25" viewBox="0 0 25 25" fill="none" xmlns="http://www.w3.org/2000/svg">
<rect width="25" height="25" rx="12.5" fill="#E7E7E7"/>
<path d="M18 18C18 17.0862 18 17.4151 17.8816 17.0433C17.615 16.2062 16.9272 15.5512 16.0483 15.2973C15.6579 15.1845 15.1782 15.1845 14.2187 15.1845H10.7813C9.8218 15.1845 9.34207 15.1845 8.95171 15.2973C8.07281 15.5512 7.38503 16.2062 7.11841 17.0433C7 17.4151 7 17.0862 7 18M15.5937 9.94643C15.5937 11.5737 14.2086 12.8929 12.5 12.8929C10.7914 12.8929 9.40625 11.5737 9.40625 9.94643C9.40625 8.31916 10.7914 7 12.5 7C14.2086 7 15.5937 8.31916 15.5937 9.94643Z" stroke="#858585" stroke-width="1.40462" stroke-linecap="round" stroke-linejoin="round"/>
</svg>
