<svg width="34" height="34" viewBox="0 0 34 34" fill="none" xmlns="http://www.w3.org/2000/svg">
<rect x="0.577253" y="0.577253" width="32.8455" height="32.8455" rx="16.4227" fill="white" stroke="#E3E3E3" stroke-width="1.15451"/>
<path d="M9 17H11.9115C12.4254 17 12.8952 17.2904 13.125 17.75C13.3548 18.2096 13.8246 18.5 14.3385 18.5H18.6615C19.1754 18.5 19.6452 18.2096 19.875 17.75C20.1048 17.2904 20.5746 17 21.0885 17H24M9 17V14.6C9 13.3399 9 12.7098 9.24524 12.2285C9.46095 11.8052 9.80516 11.461 10.2285 11.2452C10.7098 11 11.3399 11 12.6 11H20.4C21.6601 11 22.2902 11 22.7715 11.2452C23.1948 11.461 23.539 11.8052 23.7548 12.2285C24 12.7098 24 13.3399 24 14.6V17M9 17V19.4C9 20.6601 9 21.2902 9.24524 21.7715C9.46095 22.1948 9.80516 22.539 10.2285 22.7548C10.7098 23 11.3399 23 12.6 23H20.4C21.6601 23 22.2902 23 22.7715 22.7548C23.1948 22.539 23.539 22.1948 23.7548 21.7715C24 21.2902 24 20.6601 24 19.4V17" stroke="#222222" stroke-width="1.6" stroke-linecap="round" stroke-linejoin="round"/>
</svg>
