<svg width="29" height="29" viewBox="0 0 29 29" fill="none" xmlns="http://www.w3.org/2000/svg">
<rect width="29" height="29" rx="14.5" fill="#1B5DAB"/>
<path d="M20.4959 17.0276C20.0821 18.0065 19.4349 18.8691 18.6108 19.5399C17.7867 20.2108 16.8108 20.6695 15.7685 20.876C14.7263 21.0825 13.6493 21.0305 12.6318 20.7244C11.6142 20.4184 10.6871 19.8677 9.93154 19.1205C9.17594 18.3733 8.61484 17.4523 8.29729 16.4381C7.97974 15.4239 7.91541 14.3473 8.10993 13.3025C8.30445 12.2576 8.75189 11.2763 9.41313 10.4444C10.0744 9.61253 10.9293 8.95531 11.9031 8.53023M20.5147 12.0067C20.7751 12.6355 20.9348 13.3003 20.989 13.9767C21.0024 14.1437 21.0091 14.2273 20.9759 14.3025C20.9482 14.3654 20.8933 14.4249 20.8329 14.4575C20.7605 14.4966 20.6702 14.4966 20.4894 14.4966H15.0254C14.8433 14.4966 14.7522 14.4966 14.6826 14.4612C14.6214 14.43 14.5717 14.3802 14.5405 14.319C14.505 14.2494 14.505 14.1583 14.505 13.9761V8.51071C14.505 8.32992 14.505 8.23952 14.5441 8.16716C14.5767 8.10671 14.6362 8.05181 14.6991 8.02409C14.7743 7.99091 14.8578 7.99761 15.0249 8.01101C15.701 8.06523 16.3656 8.225 16.9943 8.48547C17.7835 8.81245 18.5006 9.29171 19.1046 9.89588C19.7086 10.5001 20.1878 11.2173 20.5147 12.0067Z" stroke="white" stroke-opacity="0.8" stroke-width="1.5" stroke-linecap="round" stroke-linejoin="round"/>
</svg>
