<svg width="34" height="34" viewBox="0 0 34 34" fill="none" xmlns="http://www.w3.org/2000/svg">
<rect x="0.577253" y="0.577253" width="32.8455" height="32.8455" rx="16.4227" fill="#E7F0F9" stroke="#B7DAFF" stroke-width="1.15451"/>
<circle cx="17" cy="17" r="8.31176" fill="#E7F0F9" stroke="#005EC1" stroke-width="1.37647"/>
<path d="M22.8238 22.5589C22.8238 21.7013 22.8238 22.0099 22.7212 21.661C22.4903 20.8754 21.8944 20.2607 21.133 20.0224C20.7949 19.9165 20.3793 19.9165 19.5481 19.9165H14.4525C13.6213 19.9165 13.2057 19.9165 12.8675 20.0224C12.1061 20.2607 11.5103 20.8754 11.2793 21.661C11.1768 22.0099 11.1768 21.7013 11.1768 22.5589M19.6804 15.0006C19.6804 16.5278 18.4805 17.7658 17.0003 17.7658C15.5201 17.7658 14.3201 16.5278 14.3201 15.0006C14.3201 13.4734 15.5201 12.2354 17.0003 12.2354C18.4805 12.2354 19.6804 13.4734 19.6804 15.0006Z" stroke="#005EC1" stroke-width="1.5" stroke-linecap="round" stroke-linejoin="round"/>
</svg>
