<svg width="24" height="22" viewBox="0 0 24 22" fill="none" xmlns="http://www.w3.org/2000/svg">
<path d="M6.86667 1H17.1333C19.1869 1 20.2136 1 20.998 1.36634C21.6879 1.68858 22.2488 2.20276 22.6004 2.8352C23 3.55418 23 4.49538 23 6.37778V15.7889C23 17.6713 23 18.6125 22.6004 19.3315C22.2488 19.9639 21.6879 20.4781 20.998 20.8003C20.2136 21.1667 19.1869 21.1667 17.1333 21.1667H6.86667C4.81314 21.1667 3.78638 21.1667 3.00204 20.8003C2.31211 20.4781 1.75118 19.9639 1.39964 19.3315C1 18.6125 1 17.6713 1 15.7889V6.37778C1 4.49538 1 3.55418 1.39964 2.8352C1.75118 2.20276 2.31211 1.68858 3.00204 1.36634C3.78638 1 4.81314 1 6.86667 1Z" stroke="#CACACA" stroke-width="1.2" stroke-linecap="round" stroke-linejoin="round"/>
<path d="M5.58301 13.8335L8.33301 11.0835L5.58301 8.3335" stroke="#909090" stroke-width="2" stroke-linecap="round" stroke-linejoin="round"/>
<path d="M18.683 6.6665C18.683 5.92092 18.0786 5.3165 17.333 5.3165H13.9997C13.2541 5.3165 12.6497 5.92092 12.6497 6.6665V15.4998C12.6497 16.2454 13.2541 16.8498 13.9997 16.8498H17.333C18.0786 16.8498 18.683 16.2454 18.683 15.4998V6.6665Z" fill="#A6A6A6" stroke="#9B9B9B" stroke-width="1.3"/>
</svg>
