<svg width="24" height="22" viewBox="0 0 24 22" fill="none" xmlns="http://www.w3.org/2000/svg">
<path d="M17.1333 1H6.86667C4.81314 1 3.78638 1 3.00203 1.36634C2.31211 1.68858 1.75118 2.20276 1.39964 2.8352C1 3.55418 1 4.49538 1 6.37778V15.7889C1 17.6713 1 18.6125 1.39964 19.3315C1.75118 19.9639 2.31211 20.4781 3.00203 20.8003C3.78638 21.1667 4.81314 21.1667 6.86667 21.1667H17.1333C19.1869 21.1667 20.2136 21.1667 20.998 20.8003C21.6879 20.4781 22.2488 19.9639 22.6004 19.3315C23 18.6125 23 17.6713 23 15.7889V6.37778C23 4.49538 23 3.55418 22.6004 2.8352C22.2488 2.20276 21.6879 1.68858 20.998 1.36634C20.2136 1 19.1869 1 17.1333 1Z" stroke="#CACACA" stroke-width="1.2" stroke-linecap="round" stroke-linejoin="round"/>
<path d="M18.416 13.8335L15.666 11.0835L18.416 8.3335" stroke="#909090" stroke-width="2" stroke-linecap="round" stroke-linejoin="round"/>
<path d="M5.31602 6.6665C5.31602 5.92092 5.92043 5.3165 6.66602 5.3165H9.99935C10.7449 5.3165 11.3493 5.92092 11.3493 6.6665V15.4998C11.3493 16.2454 10.7449 16.8498 9.99935 16.8498H6.66602C5.92043 16.8498 5.31602 16.2454 5.31602 15.4998V6.6665Z" fill="#A6A6A6" stroke="#9B9B9B" stroke-width="1.3"/>
</svg>
