<svg width="29" height="29" viewBox="0 0 29 29" fill="none" xmlns="http://www.w3.org/2000/svg">
<rect width="29" height="29" rx="14.5" fill="#0D3E77"/>
<path d="M15.7 12.3333H19.06C19.8441 12.3333 20.2361 12.3333 20.5356 12.4787C20.799 12.6065 21.0132 12.8105 21.1474 13.0613C21.3 13.3466 21.3 13.7199 21.3 14.4667V20M15.7 20V9.13333C15.7 8.3866 15.7 8.01323 15.5474 7.72801C15.4132 7.47713 15.199 7.27316 14.9356 7.14532C14.6361 7 14.2441 7 13.46 7H10.94C10.1559 7 9.76389 7 9.46441 7.14532C9.20099 7.27316 8.98681 7.47713 8.85259 7.72801C8.7 8.01323 8.7 8.3866 8.7 9.13333V20M22 20H8M11.15 9.66667H13.25M11.15 12.3333H13.25M11.15 15H13.25" stroke="white" stroke-opacity="0.8" stroke-width="1.3" stroke-linecap="round" stroke-linejoin="round"/>
</svg>
