<svg width="25" height="25" viewBox="0 0 25 25" fill="none" xmlns="http://www.w3.org/2000/svg">
<rect width="25" height="25" rx="12.5" fill="#17205C"/>
<path fill-rule="evenodd" clip-rule="evenodd" d="M8.16037 9.58018C8.16037 8.79604 8.79604 8.16037 9.58018 8.16037C10.3643 8.16037 11 8.79604 11 9.58018C11 10.3643 10.3643 11 9.58018 11C8.79604 11 8.16037 10.3643 8.16037 9.58018ZM7.06549 10.1604H5.58018C5.25976 10.1604 5 9.90061 5 9.58018C5 9.25976 5.25976 9 5.58018 9H7.06549C7.32873 7.85439 8.35468 7 9.58018 7C10.8057 7 11.8316 7.85439 12.0949 9H19.0805C19.4009 9 19.6607 9.25976 19.6607 9.58018C19.6607 9.90061 19.4009 10.1604 19.0805 10.1604H12.0949C11.8316 11.306 10.8057 12.1604 9.58018 12.1604C8.35468 12.1604 7.32873 11.306 7.06549 10.1604ZM19.5802 16.1604C19.9006 16.1604 20.1604 15.9006 20.1604 15.5802C20.1604 15.2598 19.9006 15 19.5802 15H17.5949C17.3316 13.8544 16.3057 13 15.0802 13C13.8222 13 12.7744 13.9003 12.5462 15.0918H6.58018C6.25976 15.0918 6 15.3516 6 15.672C6 15.9924 6.25976 16.2522 6.58018 16.2522H12.5802C12.5829 16.2522 12.5856 16.2521 12.5884 16.2521C12.884 17.3513 13.8876 18.1604 15.0802 18.1604C16.3057 18.1604 17.3316 17.306 17.5949 16.1604H19.5802ZM15.0802 14.1604C15.8643 14.1604 16.5 14.796 16.5 15.5802C16.5 16.3643 15.8643 17 15.0802 17C14.296 17 13.6604 16.3643 13.6604 15.5802C13.6604 14.796 14.296 14.1604 15.0802 14.1604Z" fill="#B4B6E9"/>
<path d="M7.06549 10.1604L7.11422 10.1492L7.10531 10.1104H7.06549V10.1604ZM7.06549 9V9.05H7.10531L7.11422 9.0112L7.06549 9ZM12.0949 9L12.0461 9.0112L12.0551 9.05H12.0949V9ZM12.0949 10.1604V10.1104H12.0551L12.0461 10.1492L12.0949 10.1604ZM17.5949 15L17.5461 15.0112L17.5551 15.05H17.5949V15ZM12.5462 15.0918V15.1418H12.5875L12.5953 15.1012L12.5462 15.0918ZM12.5884 16.2521L12.6366 16.2391L12.6265 16.2016L12.5877 16.2021L12.5884 16.2521ZM17.5949 16.1604V16.1104H17.5551L17.5461 16.1492L17.5949 16.1604ZM9.58018 8.11037C8.76843 8.11037 8.11037 8.76843 8.11037 9.58018H8.21037C8.21037 8.82366 8.82366 8.21037 9.58018 8.21037V8.11037ZM11.05 9.58018C11.05 8.76843 10.3919 8.11037 9.58018 8.11037V8.21037C10.3367 8.21037 10.95 8.82366 10.95 9.58018H11.05ZM9.58018 11.05C10.3919 11.05 11.05 10.3919 11.05 9.58018H10.95C10.95 10.3367 10.3367 10.95 9.58018 10.95V11.05ZM8.11037 9.58018C8.11037 10.3919 8.76843 11.05 9.58018 11.05V10.95C8.82366 10.95 8.21037 10.3367 8.21037 9.58018H8.11037ZM5.58018 10.2104H7.06549V10.1104H5.58018V10.2104ZM4.95 9.58018C4.95 9.92823 5.23214 10.2104 5.58018 10.2104V10.1104C5.28737 10.1104 5.05 9.873 5.05 9.58018H4.95ZM5.58018 8.95C5.23214 8.95 4.95 9.23214 4.95 9.58018H5.05C5.05 9.28737 5.28737 9.05 5.58018 9.05V8.95ZM7.06549 8.95H5.58018V9.05H7.06549V8.95ZM9.58018 6.95C8.33087 6.95 7.2851 7.82098 7.01676 8.9888L7.11422 9.0112C7.37236 7.88779 8.37849 7.05 9.58018 7.05V6.95ZM12.1436 8.9888C11.8753 7.82098 10.8295 6.95 9.58018 6.95V7.05C10.7819 7.05 11.788 7.88779 12.0461 9.0112L12.1436 8.9888ZM19.0805 8.95H12.0949V9.05H19.0805V8.95ZM19.7107 9.58018C19.7107 9.23214 19.4286 8.95 19.0805 8.95V9.05C19.3733 9.05 19.6107 9.28737 19.6107 9.58018H19.7107ZM19.0805 10.2104C19.4286 10.2104 19.7107 9.92823 19.7107 9.58018H19.6107C19.6107 9.873 19.3733 10.1104 19.0805 10.1104V10.2104ZM12.0949 10.2104H19.0805V10.1104H12.0949V10.2104ZM9.58018 12.2104C10.8295 12.2104 11.8753 11.3394 12.1436 10.1716L12.0461 10.1492C11.788 11.2726 10.7819 12.1104 9.58018 12.1104V12.2104ZM7.01676 10.1716C7.2851 11.3394 8.33087 12.2104 9.58018 12.2104V12.1104C8.37849 12.1104 7.37236 11.2726 7.11422 10.1492L7.01676 10.1716ZM20.1104 15.5802C20.1104 15.873 19.873 16.1104 19.5802 16.1104V16.2104C19.9282 16.2104 20.2104 15.9282 20.2104 15.5802H20.1104ZM19.5802 15.05C19.873 15.05 20.1104 15.2874 20.1104 15.5802H20.2104C20.2104 15.2321 19.9282 14.95 19.5802 14.95V15.05ZM17.5949 15.05H19.5802V14.95H17.5949V15.05ZM15.0802 13.05C16.2819 13.05 17.288 13.8878 17.5461 15.0112L17.6436 14.9888C17.3753 13.821 16.3295 12.95 15.0802 12.95V13.05ZM12.5953 15.1012C12.8191 13.9329 13.8466 13.05 15.0802 13.05V12.95C13.7977 12.95 12.7297 13.8678 12.4971 15.0824L12.5953 15.1012ZM12.5462 15.0418H6.58018V15.1418H12.5462V15.0418ZM6.58018 15.0418C6.23214 15.0418 5.95 15.3239 5.95 15.672H6.05C6.05 15.3792 6.28737 15.1418 6.58018 15.1418V15.0418ZM5.95 15.672C5.95 16.02 6.23214 16.3022 6.58018 16.3022V16.2022C6.28737 16.2022 6.05 15.9648 6.05 15.672H5.95ZM6.58018 16.3022H12.5802V16.2022H6.58018V16.3022ZM12.5802 16.3022C12.5832 16.3022 12.5861 16.3021 12.589 16.3021L12.5877 16.2021C12.5851 16.2021 12.5826 16.2022 12.5802 16.2022V16.3022ZM15.0802 18.1104C13.9108 18.1104 12.9266 17.317 12.6366 16.2391L12.5401 16.2651C12.8415 17.3856 13.8644 18.2104 15.0802 18.2104V18.1104ZM17.5461 16.1492C17.288 17.2726 16.2819 18.1104 15.0802 18.1104V18.2104C16.3295 18.2104 17.3753 17.3394 17.6436 16.1716L17.5461 16.1492ZM19.5802 16.1104H17.5949V16.2104H19.5802V16.1104ZM16.55 15.5802C16.55 14.7684 15.8919 14.1104 15.0802 14.1104V14.2104C15.8367 14.2104 16.45 14.8237 16.45 15.5802H16.55ZM15.0802 17.05C15.8919 17.05 16.55 16.3919 16.55 15.5802H16.45C16.45 16.3367 15.8367 16.95 15.0802 16.95V17.05ZM13.6104 15.5802C13.6104 16.3919 14.2684 17.05 15.0802 17.05V16.95C14.3237 16.95 13.7104 16.3367 13.7104 15.5802H13.6104ZM15.0802 14.1104C14.2684 14.1104 13.6104 14.7684 13.6104 15.5802H13.7104C13.7104 14.8237 14.3237 14.2104 15.0802 14.2104V14.1104Z" fill="#B4B6E9"/>
</svg>
