<svg width="34" height="34" viewBox="0 0 34 34" fill="none" xmlns="http://www.w3.org/2000/svg">
<rect x="0.577253" y="0.577253" width="32.8455" height="32.8455" rx="16.4227" fill="#E7F0F9" stroke="#B7DAFF" stroke-width="1.15451"/>
<path d="M23.662 19.5382C23.1842 20.6683 22.437 21.6641 21.4855 22.4387C20.5341 23.2132 19.4075 23.7428 18.2042 23.9812C17.0009 24.2196 15.7575 24.1595 14.5827 23.8062C13.408 23.4529 12.3377 22.8171 11.4653 21.9544C10.593 21.0918 9.94519 20.0285 9.57858 18.8576C9.21197 17.6866 9.1377 16.4437 9.36227 15.2374C9.58684 14.0312 10.1034 12.8983 10.8668 11.9378C11.6302 10.9774 12.6172 10.2186 13.7415 9.72788M23.6836 13.7415C23.9842 14.4675 24.1686 15.235 24.2312 16.0158C24.2467 16.2087 24.2544 16.3052 24.2161 16.392C24.1841 16.4646 24.1208 16.5333 24.051 16.571C23.9675 16.6161 23.8631 16.6161 23.6545 16.6161H17.3462C17.1359 16.6161 17.0308 16.6161 16.9505 16.5752C16.8798 16.5392 16.8224 16.4817 16.7864 16.411C16.7455 16.3307 16.7455 16.2255 16.7455 16.0152V9.70534C16.7455 9.49662 16.7455 9.39225 16.7906 9.30871C16.8283 9.23892 16.8969 9.17553 16.9695 9.14354C17.0563 9.10523 17.1528 9.11296 17.3456 9.12843C18.1262 9.19103 18.8935 9.37549 19.6193 9.6762C20.5305 10.0537 21.3583 10.607 22.0557 11.3045C22.753 12.0021 23.3062 12.8301 23.6836 13.7415Z" stroke="#005EC1" stroke-width="1.4" stroke-linecap="round" stroke-linejoin="round"/>
</svg>
