<svg width="29" height="29" viewBox="0 0 29 29" fill="none" xmlns="http://www.w3.org/2000/svg">
<rect width="29" height="29" rx="14.5" fill="#1576C8"/>
<path d="M12.9998 20.6975C10.6839 20.1389 8.86098 18.3159 8.30246 16M20.6977 16C20.1391 18.3159 18.3162 20.1389 16.0003 20.6974M16.0002 8.30243C18.3161 8.86097 20.1391 10.6839 20.6977 12.9999M8.30261 13C8.86114 10.684 10.6841 8.86097 13.0002 8.30243M8.2 16H8.8C9.22004 16 9.43006 16 9.59049 15.9183C9.73161 15.8463 9.84635 15.7316 9.91825 15.5905C10 15.4301 10 15.22 10 14.8V14.2C10 13.78 10 13.5699 9.91825 13.4095C9.84635 13.2684 9.73161 13.1537 9.59049 13.0817C9.43006 13 9.22004 13 8.8 13H8.2C7.77996 13 7.56994 13 7.40951 13.0817C7.26839 13.1537 7.15365 13.2684 7.08175 13.4095C7 13.5699 7 13.78 7 14.2V14.8C7 15.22 7 15.4301 7.08175 15.5905C7.15365 15.7316 7.26839 15.8463 7.40951 15.9183C7.56994 16 7.77996 16 8.2 16ZM20.2 16H20.8C21.22 16 21.4301 16 21.5905 15.9183C21.7316 15.8463 21.8463 15.7316 21.9183 15.5905C22 15.4301 22 15.22 22 14.8V14.2C22 13.78 22 13.5699 21.9183 13.4095C21.8463 13.2684 21.7316 13.1537 21.5905 13.0817C21.4301 13 21.22 13 20.8 13H20.2C19.78 13 19.5699 13 19.4095 13.0817C19.2684 13.1537 19.1537 13.2684 19.0817 13.4095C19 13.5699 19 13.78 19 14.2V14.8C19 15.22 19 15.4301 19.0817 15.5905C19.1537 15.7316 19.2684 15.8463 19.4095 15.9183C19.5699 16 19.78 16 20.2 16ZM14.2 10H14.8C15.22 10 15.4301 10 15.5905 9.91825C15.7316 9.84635 15.8463 9.73161 15.9183 9.59049C16 9.43006 16 9.22004 16 8.8V8.2C16 7.77996 16 7.56994 15.9183 7.40951C15.8463 7.26839 15.7316 7.15365 15.5905 7.08175C15.4301 7 15.22 7 14.8 7H14.2C13.78 7 13.5699 7 13.4095 7.08175C13.2684 7.15365 13.1537 7.26839 13.0817 7.40951C13 7.56994 13 7.77996 13 8.2V8.8C13 9.22004 13 9.43006 13.0817 9.59049C13.1537 9.73161 13.2684 9.84635 13.4095 9.91825C13.5699 10 13.78 10 14.2 10ZM14.2 22H14.8C15.22 22 15.4301 22 15.5905 21.9183C15.7316 21.8463 15.8463 21.7316 15.9183 21.5905C16 21.4301 16 21.22 16 20.8V20.2C16 19.78 16 19.5699 15.9183 19.4095C15.8463 19.2684 15.7316 19.1537 15.5905 19.0817C15.4301 19 15.22 19 14.8 19H14.2C13.78 19 13.5699 19 13.4095 19.0817C13.2684 19.1537 13.1537 19.2684 13.0817 19.4095C13 19.5699 13 19.78 13 20.2V20.8C13 21.22 13 21.4301 13.0817 21.5905C13.1537 21.7316 13.2684 21.8463 13.4095 21.9183C13.5699 22 13.78 22 14.2 22Z" stroke="white" stroke-opacity="0.8" stroke-width="1.2" stroke-linecap="round" stroke-linejoin="round"/>
</svg>
