<svg width="29" height="29" viewBox="0 0 29 29" fill="none" xmlns="http://www.w3.org/2000/svg">
<rect width="29" height="29" rx="14.5" fill="#439DC3"/>
<path d="M21 21C21 19.837 21 20.2555 20.8601 19.7824C20.545 18.717 19.7321 17.8834 18.6934 17.5602C18.2321 17.4167 17.6651 17.4167 16.5312 17.4167H12.4688C11.3349 17.4167 10.7679 17.4167 10.3066 17.5602C9.26787 17.8834 8.45503 18.717 8.13994 19.7824C8 20.2555 8 19.837 8 21M18.1562 10.75C18.1562 12.8211 16.5193 14.5 14.5 14.5C12.4807 14.5 10.8437 12.8211 10.8437 10.75C10.8437 8.67893 12.4807 7 14.5 7C16.5193 7 18.1562 8.67893 18.1562 10.75Z" stroke="white" stroke-width="1.5" stroke-linecap="round" stroke-linejoin="round"/>
</svg>
