<svg width="34" height="34" viewBox="0 0 34 34" fill="none" xmlns="http://www.w3.org/2000/svg">
<rect x="0.577253" y="0.577253" width="32.8455" height="32.8455" rx="16.4227" fill="#E7F0F9" stroke="#B7DAFF" stroke-width="1.15451"/>
<path d="M24.2439 23.7642C24.2439 22.4215 24.2439 22.9047 24.0824 22.3584C23.7186 21.1285 22.7802 20.166 21.581 19.7929C21.0484 19.6272 20.3938 19.6272 19.0847 19.6272H14.3946C13.0855 19.6272 12.4309 19.6272 11.8983 19.7929C10.6991 20.166 9.76069 21.1285 9.39692 22.3584C9.23535 22.9047 9.23535 22.4215 9.23535 23.7642M20.9608 11.9305C20.9608 14.3215 19.0709 16.2599 16.7396 16.2599C14.4084 16.2599 12.5185 14.3215 12.5185 11.9305C12.5185 9.53941 14.4084 7.60107 16.7396 7.60107C19.0709 7.60107 20.9608 9.53941 20.9608 11.9305Z" stroke="#005EC1" stroke-width="1.4" stroke-linecap="round" stroke-linejoin="round"/>
</svg>
