<svg width="29" height="29" viewBox="0 0 29 29" fill="none" xmlns="http://www.w3.org/2000/svg">
<rect width="29" height="29" rx="14.5" fill="#3E479E"/>
<path d="M16.25 8.4C16.8894 8.4 17.209 8.4 17.4713 8.47156C18.1831 8.66574 18.739 9.23179 18.9297 9.95648C19 10.2235 19 10.549 19 11.2V16.64C19 17.8161 19 18.4042 18.7752 18.8534C18.5775 19.2485 18.2619 19.5698 17.8739 19.7711C17.4327 20 16.8551 20 15.7 20H11.3C10.1449 20 9.56734 20 9.12614 19.7711C8.73806 19.5698 8.42254 19.2485 8.2248 18.8534C8 18.4042 8 17.8161 8 16.64V11.2C8 10.549 8 10.2235 8.07028 9.95648C8.26099 9.23179 8.81693 8.66574 9.52869 8.47156C9.79097 8.4 10.1106 8.4 10.75 8.4M11.85 9.8H15.15C15.535 9.8 15.7276 9.8 15.8746 9.7237C16.004 9.65659 16.1092 9.54951 16.1751 9.41779C16.25 9.26806 16.25 9.07204 16.25 8.68V8.12C16.25 7.72796 16.25 7.53194 16.1751 7.38221C16.1092 7.25049 16.004 7.14341 15.8746 7.0763C15.7276 7 15.535 7 15.15 7H11.85C11.465 7 11.2724 7 11.1254 7.0763C10.996 7.14341 10.8908 7.25049 10.8249 7.38221C10.75 7.53194 10.75 7.72796 10.75 8.12V8.68C10.75 9.07204 10.75 9.26806 10.8249 9.41779C10.8908 9.54951 10.996 9.65659 11.1254 9.7237C11.2724 9.8 11.465 9.8 11.85 9.8Z" stroke="white" stroke-opacity="0.6" stroke-width="1.3" stroke-linecap="round" stroke-linejoin="round"/>
<rect x="11" y="11" width="14" height="14" rx="7" fill="#3E479E"/>
<path d="M21.8769 20.45C21.8769 19.8311 21.8769 20.0538 21.8029 19.8021C21.6362 19.2351 21.2062 18.7915 20.6568 18.6195C20.4127 18.5432 20.1128 18.5432 19.513 18.5432H17.3639C16.7641 18.5432 16.4642 18.5432 16.2202 18.6195C15.6707 18.7915 15.2407 19.2351 15.074 19.8021C15 20.0538 15 19.8311 15 20.45M20.3726 14.9955C20.3726 16.0976 19.5067 16.9911 18.4385 16.9911C17.3703 16.9911 16.5043 16.0976 16.5043 14.9955C16.5043 13.8934 17.3703 13 18.4385 13C19.5067 13 20.3726 13.8934 20.3726 14.9955Z" stroke="white" stroke-opacity="0.6" stroke-width="1.3" stroke-linecap="round" stroke-linejoin="round"/>
</svg>
