<svg width="34" height="34" viewBox="0 0 34 34" fill="none" xmlns="http://www.w3.org/2000/svg">
<rect x="0.577253" y="0.577253" width="32.8455" height="32.8455" rx="16.4227" fill="#E7F0F9" stroke="#B7DAFF" stroke-width="1.15451"/>
<path d="M18.127 14.2389H22.0061C22.9114 14.2389 23.364 14.2389 23.7097 14.4067C24.0138 14.5543 24.2611 14.7898 24.4161 15.0794C24.5922 15.4087 24.5922 15.8397 24.5922 16.7019V23.0901M18.127 23.0901V10.5445C18.127 9.68238 18.127 9.25132 17.9508 8.92204C17.7959 8.63239 17.5486 8.3969 17.2445 8.24932C16.8987 8.08154 16.4461 8.08154 15.5409 8.08154H12.6316C11.7263 8.08154 11.2737 8.08154 10.928 8.24932C10.6239 8.3969 10.3766 8.63239 10.2216 8.92204C10.0455 9.25132 10.0455 9.68238 10.0455 10.5445V23.0901M25.4004 23.0901H9.2373M12.874 11.1602H15.2985M12.874 14.2389H15.2985M12.874 17.3176H15.2985" stroke="#005EC1" stroke-width="1.4" stroke-linecap="round" stroke-linejoin="round"/>
</svg>
