<svg width="29" height="29" viewBox="0 0 29 29" fill="none" xmlns="http://www.w3.org/2000/svg">
<rect width="29" height="29" rx="14.5" fill="#BC9A4F"/>
<path d="M7 15H9.91147C10.4254 15 10.8952 15.2904 11.125 15.75C11.3548 16.2096 11.8246 16.5 12.3385 16.5H16.6615C17.1754 16.5 17.6452 16.2096 17.875 15.75C18.1048 15.2904 18.5746 15 19.0885 15H22M7 15V12.6C7 11.3399 7 10.7098 7.24524 10.2285C7.46095 9.80516 7.80516 9.46095 8.22852 9.24524C8.70982 9 9.33988 9 10.6 9H18.4C19.6601 9 20.2902 9 20.7715 9.24524C21.1948 9.46095 21.539 9.80516 21.7548 10.2285C22 10.7098 22 11.3399 22 12.6V15M7 15V17.4C7 18.6601 7 19.2902 7.24524 19.7715C7.46095 20.1948 7.80516 20.539 8.22852 20.7548C8.70982 21 9.33988 21 10.6 21H18.4C19.6601 21 20.2902 21 20.7715 20.7548C21.1948 20.539 21.539 20.1948 21.7548 19.7715C22 19.2902 22 18.6601 22 17.4V15" stroke="white" stroke-opacity="0.6" stroke-width="1.5" stroke-linecap="round" stroke-linejoin="round"/>
</svg>
