<svg width="29" height="29" viewBox="0 0 29 29" fill="none" xmlns="http://www.w3.org/2000/svg">
<rect width="29" height="29" rx="14.5" fill="#2078B7"/>
<path opacity="0.9" d="M11.5206 12.3529H14.7451M11.5206 15.2353H17.1634M15.1481 21C18.9323 21 22 17.866 22 14C22 10.134 18.9323 7 15.1481 7C11.3639 7 8.29623 10.134 8.29623 14C8.29623 14.7823 8.42186 15.5347 8.65364 16.2372C8.74086 16.5016 8.78447 16.6337 8.79233 16.7353C8.8001 16.8356 8.79423 16.9059 8.76994 17.0034C8.74535 17.1021 8.69106 17.2048 8.58248 17.4101L7.26397 19.9033C7.07589 20.259 6.98186 20.4368 7.0029 20.574C7.02123 20.6936 7.0901 20.7988 7.19121 20.8618C7.30729 20.9342 7.50407 20.9134 7.89765 20.8718L12.0257 20.4359C12.1507 20.4227 12.2132 20.4161 12.2702 20.4183C12.3262 20.4205 12.3658 20.4259 12.4204 20.4388C12.476 20.4518 12.5459 20.4793 12.6856 20.5343C13.4498 20.8351 14.2801 21 15.1481 21Z" stroke="white" stroke-width="1.5" stroke-linecap="round" stroke-linejoin="round"/>
</svg>
