<svg width="34" height="34" viewBox="0 0 34 34" fill="none" xmlns="http://www.w3.org/2000/svg">
<rect x="0.577253" y="0.577253" width="32.8455" height="32.8455" rx="16.4227" fill="white" stroke="#E3E3E3" stroke-width="1.15451"/>
<path d="M22 22C22 20.9201 22 21.3087 21.8708 20.8694C21.58 19.8801 20.8297 19.106 19.8709 18.8059C19.445 18.6726 18.9217 18.6726 17.875 18.6726H14.125C13.0783 18.6726 12.555 18.6726 12.1291 18.8059C11.1703 19.106 10.42 19.8801 10.1292 20.8694C10 21.3087 10 20.9201 10 22M19.375 12.4821C19.375 14.4053 17.864 15.9643 16 15.9643C14.136 15.9643 12.625 14.4053 12.625 12.4821C12.625 10.559 14.136 9 16 9C17.864 9 19.375 10.559 19.375 12.4821Z" stroke="#222222" stroke-width="1.6" stroke-linecap="round" stroke-linejoin="round"/>
<rect x="15.5" y="15" width="13" height="13" rx="6.5" fill="#F5F5F5"/>
<path d="M20.8359 24.817L21.0969 25.4085C21.1745 25.5846 21.3011 25.7342 21.4614 25.8392C21.6217 25.9442 21.8088 26 22 26C22.1912 26 22.3783 25.9442 22.5386 25.8392C22.6989 25.7342 22.8255 25.5846 22.9031 25.4085L23.1641 24.817C23.257 24.6071 23.4133 24.4321 23.6107 24.317C23.8093 24.2015 24.0391 24.1524 24.2672 24.1765L24.9058 24.245C25.0959 24.2653 25.2878 24.2295 25.4581 24.1421C25.6284 24.0547 25.7699 23.9193 25.8655 23.7525C25.9611 23.5858 26.0067 23.3946 25.9967 23.2023C25.9866 23.01 25.9214 22.8247 25.8089 22.669L25.4308 22.1455C25.2962 21.9577 25.2242 21.7317 25.2254 21.5C25.2253 21.269 25.2979 21.0439 25.4328 20.857L25.8109 20.3335C25.9234 20.1778 25.9886 19.9925 25.9986 19.8002C26.0087 19.6079 25.9631 19.4167 25.8675 19.25C25.7719 19.0832 25.6304 18.9478 25.4601 18.8604C25.2897 18.773 25.0979 18.7372 24.9078 18.7575L24.2692 18.826C24.0411 18.8501 23.8113 18.801 23.6127 18.6855C23.4149 18.5697 23.2586 18.3938 23.1661 18.183L22.9031 17.5915C22.8255 17.4154 22.6989 17.2658 22.5386 17.1608C22.3783 17.0558 22.1912 17 22 17C21.8088 17 21.6217 17.0558 21.4614 17.1608C21.3011 17.2658 21.1745 17.4154 21.0969 17.5915L20.8359 18.183C20.7434 18.3938 20.5871 18.5697 20.3893 18.6855C20.1907 18.801 19.9609 18.8501 19.7328 18.826L19.0922 18.7575C18.9021 18.7372 18.7103 18.773 18.5399 18.8604C18.3696 18.9478 18.2281 19.0832 18.1325 19.25C18.0369 19.4167 17.9913 19.6079 18.0014 19.8002C18.0114 19.9925 18.0766 20.1778 18.1891 20.3335L18.5672 20.857C18.7021 21.0439 18.7747 21.269 18.7746 21.5C18.7747 21.731 18.7021 21.9561 18.5672 22.143L18.1891 22.6665C18.0766 22.8222 18.0114 23.0075 18.0014 23.1998C17.9913 23.3921 18.0369 23.5833 18.1325 23.75C18.2282 23.9168 18.3697 24.052 18.54 24.1394C18.7103 24.2268 18.9021 24.2626 19.0922 24.2425L19.7308 24.174C19.9589 24.1499 20.1887 24.199 20.3873 24.3145C20.5858 24.43 20.7429 24.6059 20.8359 24.817Z" stroke="#222222" stroke-width="1.3" stroke-linecap="round" stroke-linejoin="round"/>
<path d="M21.9992 22.85C22.7391 22.85 23.339 22.2456 23.339 21.5C23.339 20.7544 22.7391 20.15 21.9992 20.15C21.2593 20.15 20.6594 20.7544 20.6594 21.5C20.6594 22.2456 21.2593 22.85 21.9992 22.85Z" stroke="#222222" stroke-width="1.3" stroke-linecap="round" stroke-linejoin="round"/>
</svg>
