<svg width="29" height="29" viewBox="0 0 29 29" fill="none" xmlns="http://www.w3.org/2000/svg">
<rect width="29" height="29" rx="14.5" fill="#796759"/>
<path d="M19 19C19 18.0032 19 18.3619 18.8816 17.9563C18.615 17.0432 17.9272 16.3286 17.0483 16.0516C16.6579 15.9286 16.1782 15.9286 15.2187 15.9286H11.7813C10.8218 15.9286 10.3421 15.9286 9.95172 16.0516C9.07281 16.3286 8.38503 17.0432 8.11841 17.9563C8 18.3619 8 18.0032 8 19M16.5938 10.2143C16.5938 11.9895 15.2086 13.4286 13.5 13.4286C11.7914 13.4286 10.4063 11.9895 10.4063 10.2143C10.4063 8.43908 11.7914 7 13.5 7C15.2086 7 16.5938 8.43908 16.5938 10.2143Z" stroke="white" stroke-opacity="0.7" stroke-width="1.28571" stroke-linecap="round" stroke-linejoin="round"/>
<rect x="13" y="12" width="13" height="13" rx="6.5" fill="#796759"/>
<path d="M17.8359 21.817L18.0969 22.4085C18.1745 22.5846 18.3011 22.7342 18.4614 22.8392C18.6217 22.9442 18.8088 23 19 23C19.1912 23 19.3783 22.9442 19.5386 22.8392C19.6989 22.7342 19.8255 22.5846 19.9031 22.4085L20.1641 21.817C20.257 21.6071 20.4133 21.4321 20.6107 21.317C20.8093 21.2015 21.0391 21.1524 21.2672 21.1765L21.9058 21.245C22.0959 21.2653 22.2878 21.2295 22.4581 21.1421C22.6284 21.0547 22.7699 20.9193 22.8655 20.7525C22.9611 20.5858 23.0067 20.3946 22.9967 20.2023C22.9866 20.01 22.9214 19.8247 22.8089 19.669L22.4308 19.1455C22.2962 18.9577 22.2242 18.7317 22.2254 18.5C22.2253 18.269 22.2979 18.0439 22.4328 17.857L22.8109 17.3335C22.9234 17.1778 22.9886 16.9925 22.9986 16.8002C23.0087 16.6079 22.9631 16.4167 22.8675 16.25C22.7719 16.0832 22.6304 15.9478 22.4601 15.8604C22.2897 15.773 22.0979 15.7372 21.9078 15.7575L21.2692 15.826C21.0411 15.8501 20.8113 15.801 20.6127 15.6855C20.4149 15.5697 20.2586 15.3938 20.1661 15.183L19.9031 14.5915C19.8255 14.4154 19.6989 14.2658 19.5386 14.1608C19.3783 14.0558 19.1912 14 19 14C18.8088 14 18.6217 14.0558 18.4614 14.1608C18.3011 14.2658 18.1745 14.4154 18.0969 14.5915L17.8359 15.183C17.7434 15.3938 17.5871 15.5697 17.3893 15.6855C17.1907 15.801 16.9609 15.8501 16.7328 15.826L16.0922 15.7575C15.9021 15.7372 15.7103 15.773 15.5399 15.8604C15.3696 15.9478 15.2281 16.0832 15.1325 16.25C15.0369 16.4167 14.9913 16.6079 15.0014 16.8002C15.0114 16.9925 15.0766 17.1778 15.1891 17.3335L15.5672 17.857C15.7021 18.0439 15.7747 18.269 15.7746 18.5C15.7747 18.731 15.7021 18.9561 15.5672 19.143L15.1891 19.6665C15.0766 19.8222 15.0114 20.0075 15.0014 20.1998C14.9913 20.3921 15.0369 20.5833 15.1325 20.75C15.2282 20.9168 15.3697 21.052 15.54 21.1394C15.7103 21.2268 15.9021 21.2626 16.0922 21.2425L16.7308 21.174C16.9589 21.1499 17.1887 21.199 17.3873 21.3145C17.5858 21.43 17.7429 21.6059 17.8359 21.817Z" stroke="white" stroke-opacity="0.7" stroke-width="1.2" stroke-linecap="round" stroke-linejoin="round"/>
<path d="M18.9992 19.85C19.7391 19.85 20.339 19.2456 20.339 18.5C20.339 17.7544 19.7391 17.15 18.9992 17.15C18.2593 17.15 17.6594 17.7544 17.6594 18.5C17.6594 19.2456 18.2593 19.85 18.9992 19.85Z" stroke="white" stroke-opacity="0.7" stroke-width="1.2" stroke-linecap="round" stroke-linejoin="round"/>
</svg>
