<svg width="25" height="25" viewBox="0 0 25 25" fill="none" xmlns="http://www.w3.org/2000/svg">
<circle cx="12.5" cy="12.5" r="12.5" fill="#A6A6A6"/>
<path d="M7 18C7.00023 17.4544 7.00356 17.1657 7.05282 16.9229C7.26982 15.8532 8.12259 15.017 9.21349 14.8043C9.47914 14.7524 9.79859 14.7524 10.4375 14.7524H14.5625C15.2014 14.7524 15.5209 14.7524 15.7865 14.8043C16.8774 15.017 17.7302 15.8532 17.9472 16.9229C17.9964 17.1657 17.9998 17.4544 18 18M15.25 9.6965C15.25 11.1857 14.0188 12.393 12.5 12.393C10.9812 12.393 9.74999 11.1857 9.74999 9.6965C9.74999 8.20727 10.9812 7 12.5 7C14.0188 7 15.25 8.20727 15.25 9.6965Z" stroke="white" stroke-width="1.24639" stroke-linecap="round" stroke-linejoin="round"/>
</svg>
