<svg width="14" height="14" viewBox="0 0 14 14" fill="none" xmlns="http://www.w3.org/2000/svg">
<g clip-path="url(#clip0_14_5)">
<path d="M5.95246 0.904026L6.64613 0.217893C6.93985 -0.0726312 7.4148 -0.0726312 7.70539 0.217893L13.7797 6.2231C14.0734 6.51362 14.0734 6.98341 13.7797 7.27084L7.70539 13.2791C7.41167 13.5697 6.93673 13.5697 6.64613 13.2791L5.95246 12.593C5.65562 12.2994 5.66187 11.8203 5.96496 11.5329L9.73016 7.98479H0.749916C0.334338 7.98479 0 7.65409 0 7.24303V6.25401C0 5.84295 0.334338 5.51224 0.749916 5.51224H9.73016L5.96496 1.96413C5.65874 1.6767 5.65249 1.19764 5.95246 0.904026Z" fill="#3957D3"/>
</g>
<defs>
<clipPath id="clip0_14_5">
<rect width="14" height="14" fill="white" transform="translate(14) rotate(90)"/>
</clipPath>
</defs>
</svg>
