<svg width="19" height="18" viewBox="0 0 19 18" fill="none" xmlns="http://www.w3.org/2000/svg">
<path d="M17.0004 16.721H6.81836C5.98993 16.721 5.31836 16.0494 5.31836 15.221V2C5.31836 1.17157 5.98993 0.5 6.81836 0.5H12.7441C13.3615 0.5 13.957 0.728423 14.416 1.14128L17.6722 4.07016C18.1993 4.54428 18.5004 5.21991 18.5004 5.92888V10.3326V15.221C18.5004 16.0494 17.8288 16.721 17.0004 16.721Z" fill="white" stroke="#2690D0"/>
<path d="M12.7598 0.577637L12.7598 4.31797C12.7598 5.42254 13.6552 6.31797 14.7598 6.31797H18.4326" stroke="#2690D0"/>
<path d="M1 6L9.18193 6H11.9092L15.182 14.1819H1L1 6Z" fill="white"/>
<path d="M14.444 7.41406C15.2317 7.41406 15.8546 7.61227 16.3128 8.0087C16.771 8.39998 17.0001 8.96115 17.0001 9.69222H15.3707C15.3707 9.38331 15.2883 9.13877 15.1235 8.95857C14.9639 8.77838 14.7348 8.68828 14.4362 8.68828C14.0913 8.68828 13.8365 8.7964 13.6717 9.01263C13.5121 9.22886 13.4323 9.53004 13.4323 9.91617V10.4104C13.4323 10.7914 13.5121 11.0926 13.6717 11.314C13.8365 11.5302 14.0862 11.6383 14.4208 11.6383C14.7503 11.6383 15 11.5534 15.1699 11.3835C15.3398 11.2136 15.4247 10.9742 15.4247 10.6653H17.0001C17.0001 11.3912 16.7762 11.9472 16.3283 12.3333C15.8855 12.7195 15.2574 12.9125 14.444 12.9125C13.5379 12.9125 12.8505 12.6808 12.382 12.2175C11.9187 11.7541 11.687 11.0694 11.687 10.1633C11.687 9.25718 11.9187 8.57245 12.382 8.10909C12.8505 7.64574 13.5379 7.41406 14.444 7.41406Z" fill="#2690D0"/>
<path d="M8.44563 7.41406C9.36204 7.41406 10.0699 7.64831 10.5693 8.11681C11.0687 8.58532 11.3184 9.26748 11.3184 10.1633C11.3184 11.0591 11.0687 11.7413 10.5693 12.2098C10.0699 12.6783 9.36204 12.9125 8.44563 12.9125C7.52922 12.9125 6.82132 12.6808 6.32193 12.2175C5.82769 11.749 5.58057 11.0643 5.58057 10.1633C5.58057 9.26233 5.82769 8.58017 6.32193 8.11681C6.82132 7.64831 7.52922 7.41406 8.44563 7.41406ZM8.44563 8.68828C8.0801 8.68828 7.80209 8.79897 7.6116 9.02035C7.42111 9.24173 7.32586 9.54034 7.32586 9.91617V10.4104C7.32586 10.7862 7.42111 11.0848 7.6116 11.3062C7.80209 11.5276 8.0801 11.6383 8.44563 11.6383C8.81117 11.6383 9.08918 11.5276 9.27967 11.3062C9.47531 11.0848 9.57313 10.7862 9.57313 10.4104V9.91617C9.57313 9.54034 9.47531 9.24173 9.27967 9.02035C9.08918 8.79897 8.81117 8.68828 8.44563 8.68828Z" fill="#2690D0"/>
<path d="M2.46851 7.50146C4.39191 7.50146 5.35361 8.41787 5.35361 10.2507C5.35361 12.0835 4.39191 12.9999 2.46851 12.9999H0.0869141V7.50146H2.46851ZM1.85313 11.6813H2.43655C3.17713 11.6813 3.54743 11.2843 3.54743 10.4905V10.0109C3.54743 9.21707 3.17713 8.82014 2.43655 8.82014H1.85313V11.6813Z" fill="#2690D0"/>
</svg>
