<svg width="14" height="16" viewBox="0 0 14 16" fill="none" xmlns="http://www.w3.org/2000/svg">
<path d="M8.11566 5.96435L3.88234 10.2642C3.64668 10.5038 3.5143 10.8287 3.5143 11.1675C3.5143 11.5063 3.64668 11.8312 3.88234 12.0709C4.1182 12.3103 4.43798 12.4448 4.77139 12.4448C5.10481 12.4448 5.42458 12.3103 5.66044 12.0709L12.2633 5.36187C12.4968 5.12464 12.6821 4.84299 12.8085 4.53299C12.9349 4.22299 13 3.89073 13 3.55518C13 3.21963 12.9349 2.88736 12.8085 2.57737C12.6821 2.26737 12.4968 1.98572 12.2633 1.74849C12.0299 1.5112 11.7527 1.32296 11.4477 1.19453C11.1427 1.0661 10.8157 1 10.4856 1C10.1554 1 9.82845 1.0661 9.52342 1.19453C9.21839 1.32296 8.94126 1.5112 8.70785 1.74849L2.10501 8.45827C1.75469 8.81404 1.47679 9.23645 1.28719 9.70138C1.09759 10.1663 1 10.6646 1 11.1679C1 11.6712 1.09759 12.1695 1.28719 12.6344C1.47679 13.0994 1.75469 13.5218 2.10501 13.8776C2.4552 14.2334 2.87095 14.5157 3.32851 14.7083C3.78608 14.9009 4.2765 15 4.77177 15C5.26705 15 5.75747 14.9009 6.21503 14.7083C6.6726 14.5157 7.08835 14.2334 7.43854 13.8776L12.2587 8.97991" stroke="#727272" stroke-miterlimit="10" stroke-linecap="round" stroke-linejoin="round"/>
</svg>
