<svg width="16" height="15" viewBox="0 0 16 15" fill="none" xmlns="http://www.w3.org/2000/svg">
<path d="M10.2291 14H2.53818C1.68867 14 1 13.2725 1 12.375V2.625C1 1.72754 1.68867 1 2.53818 1H5.24728C5.86876 1 6.42916 1.39509 6.66765 2.00138L6.75879 2.23299C6.99728 2.83928 7.55772 3.23438 8.17922 3.23438H11.9595C12.7029 3.23438 13.3054 3.87097 13.3054 4.65625M2.99533 14H12.1197C12.8184 14 13.4294 13.5024 13.6072 12.7886L14.9743 7.30053C15.1026 6.78533 14.7348 6.28125 14.2305 6.28125H4.10849C3.40974 6.28125 2.79878 6.77883 2.62096 7.49269L1.5078 11.9614C1.25113 12.9918 1.98679 14 2.99533 14Z" fill="#F5F5FF"/>
<path d="M10.2291 14H2.53818C1.68867 14 1 13.2725 1 12.375V2.625C1 1.72754 1.68867 1 2.53818 1H5.24728C5.86876 1 6.42916 1.39509 6.66765 2.00138L6.75879 2.23299C6.99728 2.83928 7.55772 3.23438 8.17922 3.23438H11.9595C12.7029 3.23438 13.3054 3.87097 13.3054 4.65625M2.99533 14H12.1197C12.8184 14 13.4294 13.5024 13.6072 12.7886L14.9743 7.30053C15.1026 6.78533 14.7348 6.28125 14.2305 6.28125H4.10849C3.40974 6.28125 2.79878 6.77883 2.62096 7.49269L1.5078 11.9614C1.25113 12.9918 1.98679 14 2.99533 14Z" stroke="#B4B4DE" stroke-linecap="round"/>
</svg>
