<svg width="12" height="13" viewBox="0 0 12 13" fill="none" xmlns="http://www.w3.org/2000/svg">
<path d="M9.21735 4.64519L7.35481 2.78265M2 10L3.57588 9.8249C3.76842 9.80351 3.86468 9.79281 3.95466 9.76368C4.03449 9.73784 4.11047 9.70133 4.18052 9.65513C4.25947 9.60307 4.32796 9.53458 4.46494 9.3976L10.6143 3.24829C11.1286 2.73396 11.1286 1.90007 10.6143 1.38575C10.0999 0.871419 9.26604 0.871418 8.75172 1.38574L2.60241 7.53505C2.46542 7.67204 2.39693 7.74053 2.34487 7.81948C2.29867 7.88953 2.26216 7.9655 2.23632 8.04534C2.20719 8.13532 2.19649 8.23158 2.1751 8.42412L2 10Z" stroke="#565656" stroke-linecap="round" stroke-linejoin="round"/>
<path d="M0 12H12" stroke="#565656"/>
</svg>
