<svg width="21" height="20" viewBox="0 0 21 20" fill="none" xmlns="http://www.w3.org/2000/svg">
<g clip-path="url(#clip0_7962_4345)">
<path fill-rule="evenodd" clip-rule="evenodd" d="M-4.90453e-09 3.125C-2.19583e-09 2.57272 0.419769 2.125 0.937581 2.125L19.0624 2.125C19.5802 2.125 20 2.57272 20 3.125C20 3.67728 19.5802 4.125 19.0624 4.125L0.937581 4.125C0.419769 4.125 -7.61322e-09 3.67728 -4.90453e-09 3.125Z" fill="#222222"/>
<path fill-rule="evenodd" clip-rule="evenodd" d="M-4.90453e-09 10.125C-2.19583e-09 9.57272 0.419769 9.125 0.937581 9.125L15.0624 9.125C15.5802 9.125 16 9.57272 16 10.125C16 10.6773 15.5802 11.125 15.0624 11.125L0.937581 11.125C0.419769 11.125 -7.61322e-09 10.6773 -4.90453e-09 10.125Z" fill="#222222"/>
<path fill-rule="evenodd" clip-rule="evenodd" d="M-4.90453e-09 17.125C-2.19583e-09 16.5727 0.419769 16.125 0.937581 16.125L19.0624 16.125C19.5802 16.125 20 16.5727 20 17.125C20 17.6773 19.5802 18.125 19.0624 18.125L0.937581 18.125C0.419769 18.125 -7.61322e-09 17.6773 -4.90453e-09 17.125Z" fill="#222222"/>
</g>
<defs>
<clipPath id="clip0_7962_4345">
<rect width="21" height="20" fill="white"/>
</clipPath>
</defs>
</svg>
