<svg width="21" height="20" viewBox="0 0 21 20" fill="none" xmlns="http://www.w3.org/2000/svg">
<path d="M17.7643 17.9C17.7643 16.5792 17.7643 17.0545 17.6053 16.5171C17.2475 15.3072 16.3243 14.3604 15.1447 13.9934C14.6207 13.8304 13.9768 13.8304 12.6891 13.8304L8.07523 13.8304C6.78744 13.8304 6.14355 13.8304 5.61961 13.9934C4.43994 14.3604 3.51679 15.3072 3.15894 16.5171C3 17.0545 3 16.5792 3 17.9M14.5346 6.25893C14.5346 8.61107 12.6755 10.5179 10.3821 10.5179C8.0888 10.5179 6.22969 8.61107 6.22969 6.25893C6.22969 3.90679 8.0888 2 10.3821 2C12.6755 2 14.5346 3.90679 14.5346 6.25893Z" stroke="#222222" stroke-width="1.65" stroke-linecap="round" stroke-linejoin="round"/>
</svg>
