<svg width="21" height="20" viewBox="0 0 21 20" fill="none" xmlns="http://www.w3.org/2000/svg">
<g clip-path="url(#clip0_7874_5706)">
<path fill-rule="evenodd" clip-rule="evenodd" d="M-4.59839e-09 3.06258C-2.05877e-09 2.54477 0.419769 2.125 0.937581 2.125L19.0624 2.125C19.5802 2.125 20 2.54477 20 3.06258C20 3.58039 19.5802 4.00016 19.0624 4.00016L0.937581 4.00016C0.419769 4.00016 -7.13801e-09 3.58039 -4.59839e-09 3.06258Z" fill="white"/>
<path fill-rule="evenodd" clip-rule="evenodd" d="M-4.59839e-09 10.0626C-2.05877e-09 9.54477 0.419769 9.125 0.937581 9.125L15.0624 9.125C15.5802 9.125 16 9.54477 16 10.0626C16 10.5804 15.5802 11.0002 15.0624 11.0002L0.937581 11.0002C0.419769 11.0002 -7.13801e-09 10.5804 -4.59839e-09 10.0626Z" fill="white"/>
<path fill-rule="evenodd" clip-rule="evenodd" d="M-4.59839e-09 17.0626C-2.05877e-09 16.5448 0.419769 16.125 0.937581 16.125L19.0624 16.125C19.5802 16.125 20 16.5448 20 17.0626C20 17.5804 19.5802 18.0002 19.0624 18.0002L0.937581 18.0002C0.419769 18.0002 -7.13801e-09 17.5804 -4.59839e-09 17.0626Z" fill="white"/>
</g>
<defs>
<clipPath id="clip0_7874_5706">
<rect width="21" height="20" fill="white"/>
</clipPath>
</defs>
</svg>
