<svg width="1000" height="390" viewBox="0 0 1000 390" fill="none" xmlns="http://www.w3.org/2000/svg">
<rect x="0.5" y="0.5" width="389" height="999" rx="3.5" transform="matrix(-4.37114e-08 1 1 4.37114e-08 -2.18557e-08 2.18557e-08)" stroke="#DBDBDB" stroke-linecap="round" stroke-dasharray="3 3"/>
<rect x="168.5" y="37.5" width="98" height="26" rx="13" fill="#3F3F3F" stroke="#696969"/>
<path d="M189.008 55L186.219 45.1016H188.133L189.924 52.3887H190.02L191.92 45.1016H193.67L195.584 52.4023H195.666L197.457 45.1016H199.371L196.582 55H194.818L192.836 48.041H192.768L190.771 55H189.008ZM202.898 55.1504C200.738 55.1504 199.344 53.6191 199.344 51.3223C199.344 49.0117 200.738 47.4805 202.898 47.4805C205.072 47.4805 206.453 49.0117 206.453 51.3223C206.453 53.6191 205.072 55.1504 202.898 55.1504ZM202.912 53.7559C204.102 53.7559 204.689 52.6758 204.689 51.3086C204.689 49.9551 204.102 48.8613 202.912 48.8613C201.695 48.8613 201.107 49.9551 201.107 51.3086C201.107 52.6758 201.695 53.7559 202.912 53.7559ZM207.807 55V47.5762H209.502V48.8066H209.584C209.844 47.959 210.568 47.4668 211.416 47.4668C211.607 47.4668 211.881 47.4805 212.045 47.5078V49.1211C211.895 49.0664 211.525 49.0117 211.238 49.0117C210.268 49.0117 209.557 49.6816 209.557 50.625V55H207.807ZM213.084 55V45.1016H214.834V50.5566H214.957L217.623 47.5762H219.66L216.789 50.7754L219.838 55H217.76L215.477 51.8145L214.834 52.498V55H213.084ZM224.459 47.5762V48.916H222.928V55H221.178V48.916H220.07V47.5762H221.178V46.8652C221.178 45.416 222.08 44.6367 223.502 44.6367C223.912 44.6367 224.281 44.6777 224.609 44.7461V46.127C224.322 46.0859 224.104 46.0723 223.98 46.0723C223.27 46.0723 222.928 46.3594 222.928 47.0293V47.5762H224.459ZM227.453 45.1016V55H225.703V45.1016H227.453ZM232.361 55.1504C230.201 55.1504 228.807 53.6191 228.807 51.3223C228.807 49.0117 230.201 47.4805 232.361 47.4805C234.535 47.4805 235.916 49.0117 235.916 51.3223C235.916 53.6191 234.535 55.1504 232.361 55.1504ZM232.375 53.7559C233.564 53.7559 234.152 52.6758 234.152 51.3086C234.152 49.9551 233.564 48.8613 232.375 48.8613C231.158 48.8613 230.57 49.9551 230.57 51.3086C230.57 52.6758 231.158 53.7559 232.375 53.7559ZM238.609 55L236.504 47.5762H238.281L239.594 52.7988H239.662L240.988 47.5762H242.752L244.092 52.7715H244.16L245.459 47.5762H247.236L245.131 55H243.312L241.918 49.9688H241.822L240.428 55H238.609Z" fill="white"/>
<ellipse cx="388.445" cy="219.059" rx="202.445" ry="96.8719" fill="#F5F5F5" fill-opacity="0.5"/>
<path d="M590.31 219.059C590.31 245.458 567.928 269.529 531.345 287.035C494.803 304.52 444.281 315.351 388.445 315.351C332.608 315.351 282.086 304.52 245.545 287.035C208.962 269.529 186.58 245.458 186.58 219.059C186.58 192.661 208.962 168.59 245.545 151.084C282.086 133.599 332.608 122.768 388.445 122.768C444.281 122.768 494.803 133.599 531.345 151.084C567.928 168.59 590.31 192.661 590.31 219.059Z" stroke="#EDEDED" stroke-opacity="0.74" stroke-width="1.16014"/>
<path d="M330.422 170.029C330.422 202.898 304.246 229.528 271.976 229.528C239.706 229.528 213.53 202.898 213.53 170.029C213.53 137.16 239.706 110.53 271.976 110.53C304.246 110.53 330.422 137.16 330.422 170.029Z" fill="#D7E8F4" stroke="#9CC0DA" stroke-width="1.05985"/>
<path d="M818.47 167C818.47 197.64 793.855 222.47 763.5 222.47C733.145 222.47 708.53 197.64 708.53 167C708.53 136.36 733.145 111.53 763.5 111.53C793.855 111.53 818.47 136.36 818.47 167Z" fill="#203B89" stroke="#0B1F59" stroke-width="1.05985"/>
<path d="M851 167C851 215.649 811.777 255 763.5 255C715.223 255 676 215.649 676 167C676 118.351 715.223 79 763.5 79C811.777 79 851 118.351 851 167Z" stroke="#AEDAFA" stroke-opacity="0.12" stroke-width="20"/>
<path d="M821 167C821 199.084 795.206 225 763.5 225C731.794 225 706 199.084 706 167C706 134.916 731.794 109 763.5 109C795.206 109 821 134.916 821 167Z" stroke="#D4E7F5" stroke-opacity="0.9" stroke-width="14"/>
<path d="M834 167C834 206.271 802.378 238 763.5 238C724.622 238 693 206.271 693 167C693 127.729 724.622 96 763.5 96C802.378 96 834 127.729 834 167Z" stroke="#BDE3FF" stroke-opacity="0.25" stroke-width="20"/>
<path d="M265.6 164.499C265.6 168.251 263.033 170.917 258.754 172.118L258.113 170.9C261.511 169.946 263.625 168.103 263.938 165.783H258.886V164.499H265.6ZM270.273 163.594V171.937H268.71V168.58H265.666V167.28H268.71V163.594H270.273ZM270.273 172.546V178.124H260.63V172.546H270.273ZM262.161 173.796V176.873H268.726V173.796H262.161ZM277.053 166.359C277.053 168.021 278.073 169.683 279.982 170.423L279.143 171.624C277.793 171.081 276.839 170.061 276.312 168.827C275.761 170.201 274.757 171.386 273.334 172.003L272.478 170.801C274.469 169.929 275.539 168.021 275.539 166.359V164.466H277.053V166.359ZM285.116 163.594V172.496H283.635V168.646H281.907V172.414H280.459V163.841H281.907V167.346H283.635V163.594H285.116ZM285.116 173.27V178.322H283.569V174.537H275.095V173.27H285.116Z" fill="#185684"/>
<g style="mix-blend-mode:plus-darker">
<path d="M543.537 159.029C543.537 191.894 517.13 218.528 484.565 218.528C452 218.528 425.592 191.894 425.592 159.029C425.592 126.164 452 99.5299 484.565 99.5299C517.13 99.5299 543.537 126.164 543.537 159.029Z" fill="#5198D2"/>
<path d="M543.537 159.029C543.537 191.894 517.13 218.528 484.565 218.528C452 218.528 425.592 191.894 425.592 159.029C425.592 126.164 452 99.5299 484.565 99.5299C517.13 99.5299 543.537 126.164 543.537 159.029Z" stroke="#23628C" stroke-width="1.05985"/>
</g>
<path d="M463.45 153.957C463.45 157.474 461.043 159.973 457.032 161.099L456.43 159.958C459.616 159.063 461.598 157.335 461.892 155.16H457.156V153.957H463.45ZM467.831 153.108V160.93H466.365V157.783H463.511V156.564H466.365V153.108H467.831ZM467.831 161.5V166.73H458.791V161.5H467.831ZM460.226 162.673V165.558H466.381V162.673H460.226ZM474.187 155.7C474.187 157.258 475.143 158.816 476.933 159.51L476.146 160.637C474.881 160.127 473.986 159.171 473.493 158.014C472.976 159.302 472.035 160.413 470.7 160.991L469.898 159.865C471.765 159.048 472.768 157.258 472.768 155.7V153.926H474.187V155.7ZM481.746 153.108V161.454H480.358V157.844H478.738V161.377H477.38V153.34H478.738V156.626H480.358V153.108H481.746ZM481.746 162.179V166.915H480.296V163.367H472.351V162.179H481.746ZM495.136 153.093V160.127H493.671V158.801H490.169V157.659H493.671V156.163H490.339C489.483 158.307 487.4 159.719 484.338 160.436L483.829 159.233C487.145 158.5 488.943 156.965 489.182 154.929H484.554V153.725H490.786C490.786 154.173 490.748 154.597 490.678 155.006H493.671V153.093H495.136ZM495.136 160.714V164.216H487.577V165.604H495.553V166.776H486.127V163.105H493.671V161.871H486.096V160.714H495.136ZM504.963 154.574V155.422C504.963 156.579 504.963 158.369 504.562 160.837L503.112 160.729C503.459 158.515 503.498 156.919 503.513 155.762H497.898V154.574H504.963ZM501.415 158.523V162.657C502.888 162.611 504.385 162.511 505.766 162.334L505.843 163.429C502.958 163.892 499.749 163.953 497.296 163.938L497.127 162.75C497.99 162.742 498.955 162.735 499.965 162.704V158.523H501.415ZM508.033 153.093V158.801H510.147V160.05H508.033V166.915H506.552V153.093H508.033Z" fill="white"/>
<path d="M748.227 160.489V167.523H746.762V166.197H743.26V165.055H746.762V163.559H743.43C742.573 165.703 740.491 167.115 737.429 167.832L736.92 166.629C740.236 165.896 742.034 164.361 742.273 162.325H737.645V161.121H743.877C743.877 161.569 743.838 161.993 743.769 162.402H746.762V160.489H748.227ZM748.227 168.11V171.612H740.668V173H748.644V174.172H739.218V170.501H746.762V169.267H739.187V168.11H748.227ZM762.297 160.489V174.311H760.893V167.215H759.242V173.633H757.854V160.751H759.242V165.981H760.893V160.489H762.297ZM754.552 164.145C754.552 166.629 755.493 168.881 757.499 169.915L756.635 171.041C755.277 170.308 754.367 169.02 753.874 167.415C753.403 169.236 752.485 170.686 751.081 171.519L750.171 170.408C752.192 169.267 753.133 166.891 753.133 164.145V163.25H750.541V162.062H756.959V163.25H754.552V164.145ZM776.659 171.365V172.583H764.009V171.365H767.033V167.755C765.899 167.13 765.212 166.135 765.212 164.901C765.212 162.726 767.341 161.291 770.303 161.291C773.281 161.291 775.41 162.726 775.41 164.901C775.41 166.12 774.746 167.099 773.635 167.724V171.365H776.659ZM770.303 162.463C768.128 162.463 766.632 163.405 766.632 164.901C766.632 166.382 768.128 167.354 770.303 167.354C772.463 167.354 773.99 166.382 773.99 164.901C773.99 163.405 772.463 162.463 770.303 162.463ZM768.483 171.365H772.154V168.279C771.591 168.426 770.967 168.495 770.303 168.495C769.655 168.495 769.038 168.426 768.483 168.295V171.365ZM782.506 163.435C782.506 165.055 783.848 166.582 785.946 167.169L785.252 168.31C783.655 167.855 782.444 166.868 781.812 165.595C781.21 167.022 780.007 168.148 778.356 168.665L777.662 167.539C779.76 166.86 781.056 165.209 781.056 163.435V163.266H778.048V162.093H781.056V160.427H782.521V162.093H785.514V163.266H782.506V163.435ZM789.186 160.489V168.866H787.72V165.564H785.082V164.361H787.72V160.489H789.186ZM784.558 169.174C787.442 169.174 789.232 170.1 789.232 171.72C789.232 173.355 787.442 174.296 784.558 174.28C781.657 174.296 779.868 173.355 779.883 171.72C779.868 170.1 781.657 169.174 784.558 169.174ZM784.558 170.316C782.537 170.316 781.333 170.825 781.333 171.72C781.333 172.614 782.537 173.154 784.558 173.154C786.594 173.154 787.782 172.614 787.782 171.72C787.782 170.825 786.594 170.316 784.558 170.316Z" fill="white"/>
<g style="mix-blend-mode:multiply">
<path d="M543.537 256.976C543.537 289.25 517.139 315.422 484.565 315.422C451.991 315.422 425.592 289.25 425.592 256.976C425.592 224.701 451.991 198.53 484.565 198.53C517.139 198.53 543.537 224.701 543.537 256.976Z" fill="#566EB5"/>
<path d="M543.537 256.976C543.537 289.25 517.139 315.422 484.565 315.422C451.991 315.422 425.592 289.25 425.592 256.976C425.592 224.701 451.991 198.53 484.565 198.53C517.139 198.53 543.537 224.701 543.537 256.976Z" stroke="#35509E" stroke-width="1.05985"/>
</g>
<path d="M460.828 253.489V267.311H459.408V253.489H460.828ZM457.974 253.782V266.617H456.585V259.906H453.747V258.688H456.585V253.782H457.974ZM454.688 255.139V256.343H450.877V262.837C452.69 262.822 453.909 262.745 455.336 262.436L455.459 263.671C453.87 263.995 452.512 264.056 450.353 264.056H449.442V255.139H454.688ZM474.048 253.489V267.342H472.583V253.489H474.048ZM466.659 254.522C468.711 254.522 470.222 256.405 470.222 259.366C470.222 262.344 468.711 264.226 466.659 264.226C464.576 264.226 463.08 262.344 463.08 259.366C463.08 256.405 464.576 254.522 466.659 254.522ZM466.659 255.834C465.378 255.834 464.499 257.191 464.499 259.366C464.499 261.557 465.378 262.915 466.659 262.915C467.924 262.915 468.803 261.557 468.803 259.366C468.803 257.191 467.924 255.834 466.659 255.834ZM487.778 253.489V267.342H486.328V259.798H483.582V258.595H486.328V253.489H487.778ZM483.351 254.723V255.911H478.368V258.595H482.764V259.768H478.368V262.853C480.682 262.845 482.286 262.791 484.122 262.467L484.276 263.655C482.271 263.979 480.528 264.056 477.967 264.072H476.887V254.723H483.351ZM506.414 264.365V265.583H493.764V264.365H496.787V260.755C495.654 260.13 494.967 259.135 494.967 257.901C494.967 255.726 497.096 254.291 500.058 254.291C503.035 254.291 505.164 255.726 505.164 257.901C505.164 259.12 504.501 260.099 503.39 260.724V264.365H506.414ZM500.058 255.463C497.883 255.463 496.386 256.405 496.386 257.901C496.386 259.382 497.883 260.354 500.058 260.354C502.218 260.354 503.745 259.382 503.745 257.901C503.745 256.405 502.218 255.463 500.058 255.463ZM498.238 264.365H501.909V261.279C501.346 261.426 500.721 261.495 500.058 261.495C499.41 261.495 498.793 261.426 498.238 261.295V264.365ZM512.261 256.435C512.261 258.055 513.603 259.582 515.701 260.169L515.007 261.31C513.41 260.855 512.199 259.868 511.566 258.595C510.965 260.022 509.761 261.148 508.111 261.665L507.417 260.539C509.515 259.86 510.81 258.209 510.81 256.435V256.266H507.802V255.093H510.81V253.427H512.276V255.093H515.269V256.266H512.261V256.435ZM518.94 253.489V261.866H517.475V258.564H514.837V257.361H517.475V253.489H518.94ZM514.312 262.174C517.197 262.174 518.987 263.1 518.987 264.72C518.987 266.355 517.197 267.296 514.312 267.28C511.412 267.296 509.623 266.355 509.638 264.72C509.623 263.1 511.412 262.174 514.312 262.174ZM514.312 263.316C512.291 263.316 511.088 263.825 511.088 264.72C511.088 265.614 512.291 266.154 514.312 266.154C516.349 266.154 517.537 265.614 517.537 264.72C517.537 263.825 516.349 263.316 514.312 263.316Z" fill="white"/>
<path d="M248.94 240.547H250.002V253.816H248.94V240.547ZM243.352 245.648H246.728V246.548H243.352V245.648ZM246.286 240.871H247.318V253.123H246.286V240.871ZM239.268 249.659H240.108C242.202 249.659 243.455 249.6 244.93 249.275L245.048 250.189C243.529 250.514 242.246 250.573 240.108 250.573H239.268V249.659ZM239.268 242.183H244.237V243.083H240.344V250.012H239.268V242.183ZM262.061 240.532H263.152V253.831H262.061V240.532ZM256.178 241.579C258.124 241.579 259.525 243.378 259.525 246.194C259.525 248.995 258.124 250.809 256.178 250.809C254.217 250.809 252.817 248.995 252.817 246.194C252.817 243.378 254.217 241.579 256.178 241.579ZM256.178 242.552C254.822 242.552 253.878 244.012 253.878 246.194C253.878 248.376 254.822 249.835 256.178 249.835C257.535 249.835 258.463 248.376 258.463 246.194C258.463 244.012 257.535 242.552 256.178 242.552ZM275.683 240.532H276.774V253.831H275.683V240.532ZM272.852 245.604H275.875V246.503H272.852V245.604ZM266.498 249.703H267.5C270.051 249.703 271.614 249.644 273.472 249.29L273.575 250.189C271.673 250.528 270.081 250.602 267.5 250.602H266.498V249.703ZM266.498 241.771H272.631V242.67H267.574V250.012H266.498V241.771ZM267.279 245.501H272.027V246.4H267.279V245.501ZM285.089 241.417H286.239C286.239 244.734 283.85 247.123 280.061 248.199L279.604 247.344C282.995 246.371 285.089 244.41 285.089 241.859V241.417ZM280.282 241.417H285.826V242.301H280.282V241.417ZM289.232 240.547H290.323V248.14H289.232V240.547ZM286.253 244.012H289.453V244.926H286.253V244.012ZM281.801 248.715H290.323V253.625H281.801V248.715ZM289.261 249.6H282.877V252.74H289.261V249.6ZM295.851 241.343H296.735V243.171C296.735 245.117 295.556 247.196 293.639 248.066L293.049 247.211C294.76 246.444 295.851 244.675 295.851 243.171V241.343ZM296.028 241.343H296.897V243.171C296.897 244.675 297.944 246.223 299.625 246.887L299.05 247.742C297.148 246.946 296.028 245.117 296.028 243.171V241.343ZM303.119 240.562H304.166V248.567H303.119V240.562ZM300.878 244.041H303.459V244.955H300.878V244.041ZM300.274 240.783H301.306V248.494H300.274V240.783ZM295.305 249.319H304.166V253.816H303.09V250.219H295.305V249.319Z" fill="#080808"/>
<path d="M341.864 177.773C341.283 177.773 340.811 178.245 340.811 178.826C340.811 179.408 341.283 179.879 341.864 179.879L341.864 177.773ZM407.159 178.826L396.628 172.746V184.906L407.159 178.826ZM343.497 179.879C344.078 179.879 344.55 179.408 344.55 178.826C344.55 178.245 344.078 177.773 343.497 177.773V179.879ZM346.761 177.773C346.18 177.773 345.708 178.245 345.708 178.826C345.708 179.408 346.18 179.879 346.761 179.879V177.773ZM350.026 179.879C350.608 179.879 351.079 179.408 351.079 178.826C351.079 178.245 350.608 177.773 350.026 177.773V179.879ZM353.291 177.773C352.709 177.773 352.238 178.245 352.238 178.826C352.238 179.408 352.709 179.879 353.291 179.879L353.291 177.773ZM356.556 179.879C357.137 179.879 357.609 179.408 357.609 178.826C357.609 178.245 357.137 177.773 356.556 177.773V179.879ZM359.82 177.773C359.239 177.773 358.767 178.245 358.767 178.826C358.767 179.408 359.239 179.879 359.82 179.879V177.773ZM363.085 179.879C363.667 179.879 364.138 179.408 364.138 178.826C364.138 178.245 363.667 177.773 363.085 177.773V179.879ZM366.35 177.773C365.768 177.773 365.297 178.245 365.297 178.826C365.297 179.408 365.768 179.879 366.35 179.879V177.773ZM369.614 179.879C370.196 179.879 370.668 179.408 370.668 178.826C370.668 178.245 370.196 177.773 369.614 177.773V179.879ZM372.879 177.773C372.298 177.773 371.826 178.245 371.826 178.826C371.826 179.408 372.298 179.879 372.879 179.879V177.773ZM376.144 179.879C376.726 179.879 377.197 179.408 377.197 178.826C377.197 178.245 376.726 177.773 376.144 177.773V179.879ZM379.409 177.773C378.827 177.773 378.356 178.245 378.356 178.826C378.356 179.408 378.827 179.879 379.409 179.879V177.773ZM382.673 179.879C383.255 179.879 383.727 179.408 383.727 178.826C383.727 178.245 383.255 177.773 382.673 177.773V179.879ZM385.938 177.773C385.357 177.773 384.885 178.245 384.885 178.826C384.885 179.408 385.357 179.879 385.938 179.879V177.773ZM389.203 179.879C389.785 179.879 390.256 179.408 390.256 178.826C390.256 178.245 389.785 177.773 389.203 177.773V179.879ZM392.468 177.773C391.886 177.773 391.414 178.245 391.414 178.826C391.414 179.408 391.886 179.879 392.468 179.879V177.773ZM395.732 179.879C396.314 179.879 396.785 179.408 396.785 178.826C396.785 178.245 396.314 177.773 395.732 177.773V179.879ZM398.997 177.773C398.415 177.773 397.944 178.245 397.944 178.826C397.944 179.408 398.415 179.879 398.997 179.879V177.773ZM402.262 179.879C402.843 179.879 403.315 179.408 403.315 178.826C403.315 178.245 402.843 177.773 402.262 177.773V179.879ZM405.527 177.773C404.945 177.773 404.473 178.245 404.473 178.826C404.473 179.408 404.945 179.879 405.527 179.879V177.773ZM341.864 179.879H343.497V177.773H341.864L341.864 179.879ZM346.761 179.879L350.026 179.879V177.773L346.761 177.773V179.879ZM353.291 179.879L356.556 179.879V177.773L353.291 177.773L353.291 179.879ZM359.82 179.879L363.085 179.879V177.773L359.82 177.773V179.879ZM366.35 179.879L369.614 179.879V177.773L366.35 177.773V179.879ZM372.879 179.879L376.144 179.879V177.773L372.879 177.773V179.879ZM379.409 179.879L382.673 179.879V177.773L379.409 177.773V179.879ZM385.938 179.879L389.203 179.879V177.773L385.938 177.773V179.879ZM392.468 179.879L395.732 179.879V177.773L392.468 177.773V179.879ZM398.997 179.879L402.262 179.879V177.773L398.997 177.773V179.879Z" fill="#BFBFBF"/>
<path d="M582.508 260.971H583.561C583.561 261.553 583.09 262.024 582.508 262.024V260.971ZM582.508 172.507H581.455C581.455 171.926 581.926 171.454 582.508 171.454V172.507ZM679.397 172.507L668.865 178.588V166.427L679.397 172.507ZM548.938 259.918C549.52 259.918 549.991 260.39 549.991 260.971C549.991 261.553 549.52 262.024 548.938 262.024V259.918ZM553.414 262.024C552.833 262.024 552.361 261.553 552.361 260.971C552.361 260.39 552.833 259.918 553.414 259.918V262.024ZM557.89 259.918C558.472 259.918 558.943 260.39 558.943 260.971C558.943 261.553 558.472 262.024 557.89 262.024V259.918ZM562.366 262.024C561.784 262.024 561.313 261.553 561.313 260.971C561.313 260.39 561.784 259.918 562.366 259.918V262.024ZM566.842 259.918C567.424 259.918 567.895 260.39 567.895 260.971C567.895 261.553 567.424 262.024 566.842 262.024V259.918ZM571.318 262.024C570.736 262.024 570.265 261.553 570.265 260.971C570.265 260.39 570.736 259.918 571.318 259.918V262.024ZM575.794 259.918C576.376 259.918 576.847 260.39 576.847 260.971C576.847 261.553 576.376 262.024 575.794 262.024V259.918ZM580.27 262.024C579.688 262.024 579.217 261.553 579.217 260.971C579.217 260.39 579.688 259.918 580.27 259.918V262.024ZM581.455 258.961C581.455 258.379 581.926 257.908 582.508 257.908C583.09 257.908 583.561 258.379 583.561 258.961H581.455ZM583.561 254.94C583.561 255.521 583.09 255.993 582.508 255.993C581.926 255.993 581.455 255.521 581.455 254.94H583.561ZM581.455 250.918C581.455 250.337 581.926 249.865 582.508 249.865C583.09 249.865 583.561 250.337 583.561 250.918H581.455ZM583.561 246.897C583.561 247.479 583.09 247.951 582.508 247.951C581.926 247.951 581.455 247.479 581.455 246.897H583.561ZM581.455 242.876C581.455 242.295 581.926 241.823 582.508 241.823C583.09 241.823 583.561 242.295 583.561 242.876H581.455ZM583.561 238.855C583.561 239.437 583.09 239.908 582.508 239.908C581.926 239.908 581.455 239.437 581.455 238.855H583.561ZM581.455 234.834C581.455 234.253 581.926 233.781 582.508 233.781C583.09 233.781 583.561 234.253 583.561 234.834H581.455ZM583.561 230.813C583.561 231.395 583.09 231.866 582.508 231.866C581.926 231.866 581.455 231.395 581.455 230.813H583.561ZM581.455 226.792C581.455 226.21 581.926 225.739 582.508 225.739C583.09 225.739 583.561 226.21 583.561 226.792H581.455ZM583.561 222.771C583.561 223.353 583.09 223.824 582.508 223.824C581.926 223.824 581.455 223.353 581.455 222.771H583.561ZM581.455 218.75C581.455 218.168 581.926 217.697 582.508 217.697C583.09 217.697 583.561 218.168 583.561 218.75H581.455ZM583.561 214.729C583.561 215.31 583.09 215.782 582.508 215.782C581.926 215.782 581.455 215.31 581.455 214.729H583.561ZM581.455 210.708C581.455 210.126 581.926 209.655 582.508 209.655C583.09 209.655 583.561 210.126 583.561 210.708H581.455ZM583.561 206.687C583.561 207.268 583.09 207.74 582.508 207.74C581.926 207.74 581.455 207.268 581.455 206.687H583.561ZM581.455 202.666C581.455 202.084 581.926 201.612 582.508 201.612C583.09 201.612 583.561 202.084 583.561 202.666H581.455ZM583.561 198.644C583.561 199.226 583.09 199.698 582.508 199.698C581.926 199.698 581.455 199.226 581.455 198.644H583.561ZM581.455 194.623C581.455 194.042 581.926 193.57 582.508 193.57C583.09 193.57 583.561 194.042 583.561 194.623H581.455ZM583.561 190.602C583.561 191.184 583.09 191.655 582.508 191.655C581.926 191.655 581.455 191.184 581.455 190.602H583.561ZM581.455 186.581C581.455 186 581.926 185.528 582.508 185.528C583.09 185.528 583.561 186 583.561 186.581H581.455ZM583.561 182.56C583.561 183.142 583.09 183.613 582.508 183.613C581.926 183.613 581.455 183.142 581.455 182.56H583.561ZM581.455 178.539C581.455 177.957 581.926 177.486 582.508 177.486C583.09 177.486 583.561 177.957 583.561 178.539H581.455ZM583.561 174.518C583.561 175.1 583.09 175.571 582.508 175.571C581.926 175.571 581.455 175.1 581.455 174.518H583.561ZM584.526 171.454C585.108 171.454 585.58 171.926 585.58 172.507C585.58 173.089 585.108 173.561 584.526 173.561V171.454ZM588.564 173.561C587.982 173.561 587.51 173.089 587.51 172.507C587.51 171.926 587.982 171.454 588.564 171.454V173.561ZM592.601 171.454C593.182 171.454 593.654 171.926 593.654 172.507C593.654 173.089 593.182 173.561 592.601 173.561V171.454ZM596.638 173.561C596.056 173.561 595.584 173.089 595.584 172.507C595.584 171.926 596.056 171.454 596.638 171.454V173.561ZM600.675 171.454C601.256 171.454 601.728 171.926 601.728 172.507C601.728 173.089 601.256 173.561 600.675 173.561V171.454ZM604.712 173.561C604.13 173.561 603.659 173.089 603.659 172.507C603.659 171.926 604.13 171.454 604.712 171.454V173.561ZM608.749 171.454C609.33 171.454 609.802 171.926 609.802 172.507C609.802 173.089 609.33 173.561 608.749 173.561V171.454ZM612.786 173.561C612.204 173.561 611.733 173.089 611.733 172.507C611.733 171.926 612.204 171.454 612.786 171.454V173.561ZM616.823 171.454C617.404 171.454 617.876 171.926 617.876 172.507C617.876 173.089 617.404 173.561 616.823 173.561V171.454ZM620.86 173.561C620.278 173.561 619.807 173.089 619.807 172.507C619.807 171.926 620.278 171.454 620.86 171.454V173.561ZM624.897 171.454C625.478 171.454 625.95 171.926 625.95 172.507C625.95 173.089 625.478 173.561 624.897 173.561V171.454ZM628.934 173.561C628.352 173.561 627.881 173.089 627.881 172.507C627.881 171.926 628.352 171.454 628.934 171.454V173.561ZM632.971 171.454C633.553 171.454 634.024 171.926 634.024 172.507C634.024 173.089 633.553 173.561 632.971 173.561V171.454ZM637.008 173.561C636.426 173.561 635.955 173.089 635.955 172.507C635.955 171.926 636.426 171.454 637.008 171.454V173.561ZM641.045 171.454C641.627 171.454 642.098 171.926 642.098 172.507C642.098 173.089 641.627 173.561 641.045 173.561V171.454ZM645.082 173.561C644.5 173.561 644.029 173.089 644.029 172.507C644.029 171.926 644.5 171.454 645.082 171.454V173.561ZM649.119 171.454C649.701 171.454 650.172 171.926 650.172 172.507C650.172 173.089 649.701 173.561 649.119 173.561V171.454ZM653.156 173.561C652.574 173.561 652.103 173.089 652.103 172.507C652.103 171.926 652.574 171.454 653.156 171.454V173.561ZM657.193 171.454C657.775 171.454 658.246 171.926 658.246 172.507C658.246 173.089 657.775 173.561 657.193 173.561V171.454ZM661.23 173.561C660.648 173.561 660.177 173.089 660.177 172.507C660.177 171.926 660.648 171.454 661.23 171.454V173.561ZM665.267 171.454C665.849 171.454 666.32 171.926 666.32 172.507C666.32 173.089 665.849 173.561 665.267 173.561V171.454ZM669.304 173.561C668.723 173.561 668.251 173.089 668.251 172.507C668.251 171.926 668.723 171.454 669.304 171.454V173.561ZM673.341 171.454C673.923 171.454 674.394 171.926 674.394 172.507C674.394 173.089 673.923 173.561 673.341 173.561V171.454ZM677.378 173.561C676.797 173.561 676.325 173.089 676.325 172.507C676.325 171.926 676.797 171.454 677.378 171.454V173.561ZM546.7 259.918H548.938V262.024H546.7V259.918ZM553.414 259.918H557.89V262.024H553.414V259.918ZM562.366 259.918H566.842V262.024H562.366V259.918ZM571.318 259.918H575.794V262.024H571.318V259.918ZM580.27 259.918H582.508V262.024H580.27V259.918ZM581.455 260.971V258.961H583.561V260.971H581.455ZM581.455 254.94V250.918H583.561V254.94H581.455ZM581.455 246.897V242.876H583.561V246.897H581.455ZM581.455 238.855V234.834H583.561V238.855H581.455ZM581.455 230.813V226.792H583.561V230.813H581.455ZM581.455 222.771V218.75H583.561V222.771H581.455ZM581.455 214.729V210.708H583.561V214.729H581.455ZM581.455 206.687V202.666H583.561V206.687H581.455ZM581.455 198.644V194.623H583.561V198.644H581.455ZM581.455 190.602V186.581H583.561V190.602H581.455ZM581.455 182.56V178.539H583.561V182.56H581.455ZM581.455 174.518V172.507H583.561V174.518H581.455ZM582.508 171.454H584.526V173.561H582.508V171.454ZM588.564 171.454H592.601V173.561H588.564V171.454ZM596.638 171.454H600.675V173.561H596.638V171.454ZM604.712 171.454H608.749V173.561H604.712V171.454ZM612.786 171.454H616.823V173.561H612.786V171.454ZM620.86 171.454H624.897V173.561H620.86V171.454ZM628.934 171.454H632.971V173.561H628.934V171.454ZM637.008 171.454H641.045V173.561H637.008V171.454ZM645.082 171.454H649.119V173.561H645.082V171.454ZM653.156 171.454H657.193V173.561H653.156V171.454ZM661.23 171.454H665.267V173.561H661.23V171.454ZM669.304 171.454H673.341V173.561H669.304V171.454Z" fill="#BEBEBE"/>
</svg>
