<svg width="21" height="21" viewBox="0 0 21 21" fill="none" xmlns="http://www.w3.org/2000/svg">
<path fill-rule="evenodd" clip-rule="evenodd" d="M0.26702 0.30711C0.633922 -0.0904773 1.24158 -0.103772 1.62427 0.277416L20.7044 19.2828C21.0871 19.664 21.0999 20.2953 20.733 20.6929C20.3661 21.0905 19.7584 21.1038 19.3757 20.7226L0.295601 1.71721C-0.0870865 1.33602 -0.0998826 0.704697 0.26702 0.30711Z" fill="#222222"/>
<path fill-rule="evenodd" clip-rule="evenodd" d="M20.733 0.30711C21.0999 0.704697 21.0871 1.33602 20.7044 1.71721L1.62427 20.7226C1.24158 21.1038 0.633922 21.0905 0.26702 20.6929C-0.0998826 20.2953 -0.0870865 19.664 0.295601 19.2828L19.3757 0.277416C19.7584 -0.103772 20.3661 -0.0904773 20.733 0.30711Z" fill="#222222"/>
</svg>
