<svg width="13" height="14" viewBox="0 0 13 14" fill="none" xmlns="http://www.w3.org/2000/svg">
<path d="M7.1003 1.31846C6.8856 1.14343 6.77825 1.05591 6.65971 1.02226C6.55512 0.992579 6.44488 0.992579 6.34029 1.02226C6.22175 1.05591 6.1144 1.14343 5.8997 1.31846L1.75496 4.69758C1.4779 4.92346 1.33937 5.0364 1.23957 5.17784C1.15117 5.30313 1.08531 5.44428 1.04524 5.59434C1 5.76375 1 5.94771 1 6.31563V10.9502C1 11.6677 1 12.0264 1.13321 12.3005C1.25039 12.5415 1.43737 12.7375 1.66734 12.8604C1.92879 13 2.27105 13 2.95556 13H4.17778C4.3489 13 4.43447 13 4.49983 12.9651C4.55732 12.9344 4.60407 12.8854 4.63336 12.8251C4.66667 12.7566 4.66667 12.6669 4.66667 12.4875V8.25974C4.66667 7.90098 4.66667 7.7216 4.73327 7.58458C4.79186 7.46404 4.88535 7.36605 5.00034 7.30463C5.13106 7.23482 5.30219 7.23481 5.64444 7.23481H7.35556C7.69781 7.23481 7.86894 7.23482 7.99966 7.30463C8.11465 7.36605 8.20814 7.46404 8.26673 7.58458C8.33333 7.7216 8.33333 7.90098 8.33333 8.25974V12.4875C8.33333 12.6669 8.33333 12.7566 8.36664 12.8251C8.39593 12.8854 8.44268 12.9344 8.50017 12.9651C8.56553 13 8.65109 13 8.82222 13H10.0444C10.729 13 11.0712 13 11.3327 12.8604C11.5626 12.7375 11.7496 12.5415 11.8668 12.3005C12 12.0264 12 11.6677 12 10.9502V6.31563C12 5.94771 12 5.76375 11.9548 5.59434C11.9147 5.44428 11.8488 5.30313 11.7604 5.17784C11.6606 5.0364 11.5221 4.92346 11.245 4.69758L7.1003 1.31846Z" stroke="#333333" stroke-linecap="round" stroke-linejoin="round"/>
</svg>
