<svg width="23" height="24" viewBox="0 0 23 24" fill="none" xmlns="http://www.w3.org/2000/svg">
<path d="M18.2623 20.1893H18.7375V19.714V15.6755V11.637V11.1617H18.2623H11.9237H5.60552H5.1303V11.637V15.6755V19.714V20.1893H5.60552H18.2623ZM15.0981 10.3015H15.5733V9.82626V7.0663C15.5733 5.23774 13.801 3.88147 11.929 3.88147C10.0561 3.88147 8.2945 5.22947 8.2945 7.0663V7.5209V8.87698V9.82626V10.3015H8.76972H15.0981ZM16.5398 9.82626V10.3015H17.015H18.0301H18.0408C18.943 10.3015 19.5956 10.9539 19.5956 11.637V19.7231C19.5956 20.4076 18.9519 21.0586 18.0408 21.0586H5.82794C4.92576 21.0586 4.27308 20.4061 4.27308 19.7231V11.637C4.27308 10.9524 4.91678 10.3015 5.82794 10.3015H6.84301H7.31823V9.82626V7.0663C7.31823 4.88153 9.32667 3.02381 11.929 3.02381C14.5307 3.02381 16.5398 4.89 16.5398 7.0663V9.82626Z" fill="white" stroke="#222222" stroke-width="0.950448"/>
</svg>
