<svg width="177" height="29" viewBox="0 0 177 29" fill="none" xmlns="http://www.w3.org/2000/svg">
<g clip-path="url(#clip0_8203_46708)">
<rect width="177" height="28.7625" fill="white"/>
<path d="M125.835 13.5088L124.896 13.5088C125.052 13.7582 125.17 14.0208 125.248 14.3097C125.326 14.5985 125.365 14.8939 125.365 15.1959C125.365 15.7276 125.274 16.2134 125.098 16.6532C124.916 17.0996 124.668 17.4803 124.342 17.7954C124.003 18.1237 123.618 18.3731 123.175 18.5438C122.732 18.721 122.249 18.8064 121.728 18.8064C121.206 18.8064 120.704 18.721 120.261 18.5438C119.818 18.3665 119.433 18.1171 119.114 17.7954C118.788 17.4803 118.54 17.0996 118.358 16.6532C118.182 16.2068 118.09 15.721 118.09 15.1959C118.09 14.8939 118.13 14.5985 118.214 14.3097C118.299 14.0208 118.41 13.7582 118.56 13.5088L117.621 13.5088L117.621 11.6904L120.718 11.6904L120.718 10.3906L122.732 10.3906L122.732 11.6904L125.828 11.6904L125.828 13.5088L125.835 13.5088ZM129.537 24.419L120.255 24.419C119.798 24.419 119.42 24.2681 119.12 23.953C118.827 23.6444 118.677 23.2768 118.677 22.8501L118.677 19.2725L120.704 19.2725L120.704 22.325C120.704 22.4169 120.718 22.4825 120.75 22.5284C120.783 22.5744 120.848 22.5941 120.933 22.5941L127.497 22.5941L127.517 11.2571L129.524 11.2571L129.524 13.8042L131.65 13.8042L131.65 15.6292L129.524 15.6292L129.524 24.419L129.537 24.419ZM121.728 13.4038C121.233 13.4038 120.841 13.5679 120.555 13.883C120.261 14.2046 120.118 14.6379 120.118 15.1893C120.118 15.7407 120.261 16.1805 120.555 16.4956C120.841 16.8173 121.233 16.9749 121.728 16.9749C122.223 16.9749 122.595 16.8173 122.888 16.4956C123.182 16.174 123.332 15.7407 123.332 15.1893C123.332 14.6379 123.182 14.2046 122.888 13.883C122.595 13.5613 122.204 13.4038 121.728 13.4038Z" fill="#4D555A"/>
<path d="M142.963 15.8598L142.963 13.5359C142.963 13.4585 142.943 13.3939 142.904 13.3423C142.865 13.2906 142.807 13.2648 142.729 13.2648L133.223 13.2648L133.223 11.4702L143.412 11.4702C143.861 11.4702 144.232 11.6252 144.532 11.935C144.831 12.2449 144.988 12.6064 144.988 13.013L144.988 15.8534L145.678 15.8534L145.678 17.6479L140.124 17.6479L140.124 19.9073L143.419 19.9073C143.868 19.9073 144.239 20.0622 144.538 20.3721C144.838 20.6819 144.994 21.0434 144.994 21.4501L144.994 24.4195L142.969 24.4195L142.969 21.9794C142.969 21.8891 142.95 21.8245 142.911 21.7729C142.872 21.7212 142.813 21.7019 142.735 21.7019L133.23 21.7019L133.23 19.9073L138.1 19.9073L138.1 17.6479L132.729 17.6479L132.729 15.8534L142.969 15.8534L142.963 15.8598Z" fill="#4D555A"/>
<path d="M152.543 13.4745C152.618 14.0257 152.875 14.4653 153.32 14.8C153.759 15.1346 154.366 15.3445 155.137 15.4298L155.137 17.2539C154.266 17.2539 153.533 17.103 152.931 16.7881C152.33 16.4797 151.853 16.0926 151.496 15.6333C151.12 16.0926 150.631 16.4797 150.036 16.7881C149.44 17.0964 148.707 17.2539 147.836 17.2539L147.836 15.4298C148.607 15.338 149.215 15.128 149.653 14.8C150.092 14.4719 150.355 14.0257 150.431 13.4745L147.886 13.4745L147.886 11.657L150.493 11.657L150.493 10.3906L152.474 10.3906L152.474 11.657L155.081 11.657L155.081 13.4745L152.536 13.4745L152.543 13.4745ZM149.929 24.419C149.459 24.419 149.083 24.2616 148.814 23.9466C148.544 23.6317 148.413 23.2577 148.413 22.818L148.413 20.2197L157.625 20.2197L157.625 19.5242L148.413 19.5242L148.413 17.7854L158.547 17.7854C158.866 17.7854 159.123 17.8838 159.305 18.0807C159.487 18.2775 159.575 18.54 159.575 18.8615L159.575 21.8273L150.349 21.8273L150.349 22.5884L159.706 22.5884L159.706 24.4059L149.929 24.4059L149.929 24.419ZM159.581 17.2539L157.632 17.2539L157.632 15.1805L155.701 15.1805L155.701 13.3564L157.632 13.3564L157.632 11.2633L159.581 11.2633L159.581 17.2474L159.581 17.2539Z" fill="#4D555A"/>
<path d="M163.6 17.0923L163.6 12.9817C163.6 12.5833 163.75 12.2291 164.045 11.9255C164.339 11.622 164.712 11.4702 165.164 11.4702L175.253 11.4702L175.253 13.2283L165.87 13.2283C165.772 13.2283 165.707 13.2536 165.667 13.3042C165.635 13.3548 165.615 13.418 165.615 13.4939L165.615 16.599C165.615 16.6875 165.635 16.7508 165.667 16.795C165.707 16.8393 165.766 16.8583 165.87 16.8583L175.253 16.8583L175.253 18.61L170.431 18.61L170.431 21.5823L175.895 21.5823L175.895 23.3404L162.945 23.3404L162.945 21.5823L168.409 21.5823L168.409 18.61L165.164 18.61C164.712 18.61 164.339 18.4646 164.045 18.161C163.75 17.8575 163.6 17.5097 163.6 17.0986L163.6 17.0923Z" fill="#4D555A"/>
<path d="M89.1049 6.01978C87.9857 6.01978 87.5135 6.42659 87.2871 7.48301L84.583 24.399H90.431L93.5814 6.01978H89.1049Z" fill="#0066B3"/>
<path d="M20.8109 6.00659H15.7068C14.9176 6.00659 14.4777 6.26251 13.9537 6.75463L8.11863 12.5092L9.52888 6.00659H4.90352C3.80379 6.00659 3.35096 6.40685 3.12454 7.43703L0 24.3989H5.79625L7.3941 16.4134L12.7957 24.3989H20.0216L12.8281 14.0053L20.8044 6.00659H20.8109Z" fill="#0066B3"/>
<path d="M100.19 20.0945L102.578 6.01978H98.1009C96.9947 6.01978 96.529 6.40688 96.2896 7.42394L93.5791 24.399H107.869L108.413 20.088H100.184L100.19 20.0945Z" fill="#0066B3"/>
<path d="M74.7181 11.7669L77.0469 24.4047H83.2442L79.434 6.02545H73.7154C72.8162 6.02545 72.441 6.28792 72.0399 6.93753L64.5552 21.9638L59.38 17.2262C61.7218 16.5569 64.3288 14.7328 65.0598 11.6685C66.3601 6.22888 61.8318 6.00578 60.3245 6.00578H52.0118C50.9379 6.00578 50.7439 6.242 50.5174 7.23281L48.9196 14.8575C44.8441 12.1606 35.5934 6.70131 29.0791 6.61601C27.4424 6.58977 26.2456 6.84568 25.0877 7.56746C24.913 7.67901 24.8677 7.65933 24.8419 7.65277L24.9324 7.46245C25.6376 6.59631 27.0672 5.19869 29.4737 4.4441C29.4737 4.4441 33.3163 3.08584 38.4786 6.25513C41.4802 8.10552 43.4985 9.65407 45.4587 11.2945C43.9708 5.04121 38.2133 0.579269 31.6343 1.1567C25.6699 1.66851 20.9799 6.14358 19.8672 11.7932C23.0499 8.89948 29.1502 7.87584 38.4786 11.1107C40.5745 11.8391 42.5088 12.6265 44.2748 13.4336C45.8856 14.1619 47.5223 15.0346 49.2301 16.032C52.7493 18.0858 56.6824 20.9467 59.8652 24.3916H68.5984L74.7116 11.7538L74.7181 11.7669ZM54.884 15.1593C55.0652 14.2735 56.042 9.47692 56.1714 8.847H58.3256C58.3256 8.847 60.4862 8.71575 59.7099 11.6685C59.7099 11.6685 58.856 15.1593 54.884 15.1593Z" fill="url(#paint0_radial_8203_46708)"/>
<path d="M53.9802 19.7392C53.5145 21.7996 53.0164 24.398 53.0164 24.398H46.929L48.3134 17.7839C46.9549 17.3311 46.0039 17.0621 45.5705 16.9505C44.4578 22.587 39.8584 27.0949 33.9069 27.6067C30.0384 27.9413 26.4287 26.5765 23.8022 24.0896L23.7893 24.0765C23.7893 24.0765 21.2599 21.7406 21.454 18.3679C21.6481 14.9033 24.6561 13.4925 24.6561 13.4925C28.1559 11.5896 35.8993 11.3862 46.8449 16.1434C46.8449 16.1434 50.5193 17.6067 53.9802 19.7327V19.7392Z" fill="url(#paint1_radial_8203_46708)"/>
</g>
<defs>
<radialGradient id="paint0_radial_8203_46708" cx="0" cy="0" r="1" gradientUnits="userSpaceOnUse" gradientTransform="translate(31.1448 10.7648) scale(15.9143 16.1422)">
<stop stop-color="#00AFDC"/>
<stop offset="0.2" stop-color="#00AFDC"/>
<stop offset="1" stop-color="#0066B3"/>
</radialGradient>
<radialGradient id="paint1_radial_8203_46708" cx="0" cy="0" r="1" gradientUnits="userSpaceOnUse" gradientTransform="translate(30.4612 7.24449) scale(15.8455 16.0724)">
<stop stop-color="#00AFDC"/>
<stop offset="0.2" stop-color="#00AFDC"/>
<stop offset="1" stop-color="#0066B3"/>
</radialGradient>
<clipPath id="clip0_8203_46708">
<rect width="177" height="28.7625" fill="white"/>
</clipPath>
</defs>
</svg>
