<svg width="24" height="26" viewBox="0 0 24 26" fill="none" xmlns="http://www.w3.org/2000/svg">
<path fill-rule="evenodd" clip-rule="evenodd" d="M15.3862 6.60836H4.91005C3.94575 6.60836 3.16402 7.39008 3.16402 8.35439V19.9946C3.16402 20.9589 3.94575 21.7406 4.91005 21.7406H10.1481H15.3862C16.3505 21.7406 17.1323 20.9589 17.1323 19.9946V13.5925V10.1004V8.35439C17.1323 7.39008 16.3505 6.60836 15.3862 6.60836ZM4.91005 5.44434C3.30288 5.44434 2 6.74721 2 8.35439V19.9946C2 21.6018 3.30287 22.9047 4.91005 22.9047H10.1481H15.3862C16.9934 22.9047 18.2963 21.6018 18.2963 19.9946V13.5925V10.1004V8.35439C18.2963 6.74721 16.9934 5.44434 15.3862 5.44434H4.91005Z" fill="white"/>
<path d="M7 19.0388C7 14.5991 10.5991 11 15.0388 11C19.4785 11 22.3441 14.5991 22.3441 19.0388C22.3441 23.4785 19.4785 25.4673 15.0388 25.4673C10.5991 25.4673 7 23.4785 7 19.0388Z" fill="#2D3459"/>
<path fill-rule="evenodd" clip-rule="evenodd" d="M16.1124 14.6326C15.2194 14.6326 14.4652 15.3846 14.4652 16.3504C14.4652 17.3161 15.2194 18.0681 16.1124 18.0681C17.0054 18.0681 17.7597 17.3161 17.7597 16.3504C17.7597 15.3846 17.0054 14.6326 16.1124 14.6326ZM13.3173 16.3504C13.3173 14.7848 14.552 13.4848 16.1124 13.4848C17.6729 13.4848 18.9075 14.7848 18.9075 16.3504C18.9075 17.9159 17.6729 19.2159 16.1124 19.2159C14.552 19.2159 13.3173 17.9159 13.3173 16.3504ZM14.7829 19.8505C14.8143 19.8505 14.8461 19.8505 14.8784 19.8505H17.3464C17.3787 19.8505 17.4106 19.8505 17.442 19.8505C18.0376 19.8502 18.4656 19.85 18.8313 19.9644C19.6509 20.221 20.283 20.8792 20.5267 21.7083C20.5394 21.7514 20.5466 21.7681 20.5517 21.7799L20.5525 21.7817C20.5525 21.7817 20.554 21.7853 20.555 21.7875C20.5672 21.8153 20.5988 21.8875 20.6159 21.9857C20.6299 22.0658 20.6323 22.1511 20.6336 22.2294C20.635 22.3146 20.635 22.4357 20.635 22.6071V22.6143C20.635 22.9312 20.3781 23.1882 20.0611 23.1882C19.7442 23.1882 19.4872 22.9312 19.4872 22.6143C19.4872 22.4341 19.4872 22.3228 19.486 22.2483C19.4857 22.2297 19.4853 22.2151 19.4849 22.204C19.4683 22.1633 19.4483 22.1096 19.4255 22.032C19.2864 21.559 18.9309 21.1983 18.4885 21.0599C18.313 21.0049 18.0781 20.9984 17.3464 20.9984H14.8784C14.1467 20.9984 13.9118 21.0049 13.7363 21.0599C13.2939 21.1983 12.9384 21.559 12.7993 22.032C12.7765 22.1096 12.7565 22.1634 12.7399 22.204C12.7395 22.2151 12.7392 22.2297 12.7389 22.2483C12.7376 22.3228 12.7376 22.4341 12.7376 22.6143C12.7376 22.9312 12.4807 23.1882 12.1637 23.1882C11.8467 23.1882 11.5898 22.9312 11.5898 22.6143V22.6069C11.5898 22.4357 11.5898 22.3146 11.5912 22.2294C11.5925 22.1511 11.595 22.0658 11.6089 21.9857C11.626 21.8875 11.6576 21.8154 11.6698 21.7875C11.6708 21.7853 11.6724 21.7817 11.6724 21.7817L11.6731 21.7799C11.6782 21.7681 11.6854 21.7514 11.6981 21.7083C11.9419 20.8792 12.5739 20.221 13.3935 19.9644C13.7593 19.85 14.1873 19.8502 14.7829 19.8505Z" fill="white"/>
<path d="M6.65625 12.4282H12.5" stroke="white" stroke-width="1.25" stroke-linecap="round"/>
<path d="M6.65625 12.4282H12.5" stroke="white" stroke-opacity="0.2" stroke-width="1.25" stroke-linecap="round"/>
<path d="M6.65625 12.4282H12.5" stroke="white" stroke-opacity="0.2" stroke-width="1.25" stroke-linecap="round"/>
<path d="M6.65625 16.1533H10.3811" stroke="white" stroke-width="1.25" stroke-linecap="round"/>
<path d="M6.65625 16.1533H10.3811" stroke="white" stroke-opacity="0.2" stroke-width="1.25" stroke-linecap="round"/>
<path d="M6.65625 16.1533H10.3811" stroke="white" stroke-opacity="0.2" stroke-width="1.25" stroke-linecap="round"/>
<rect x="6.05092" y="4.60658" width="8.19471" height="3.53862" rx="1.1873" fill="#2D3459" stroke="white" stroke-width="1.11746"/>
</svg>
