<svg width="24" height="26" viewBox="0 0 24 26" fill="none" xmlns="http://www.w3.org/2000/svg">
<path d="M15.4966 19.8214H8.99277C7.21176 19.8214 5.54206 18.7566 4.62505 17.0426C4.05789 15.9726 3.80876 14.7001 3.93067 13.4587L4.60915 6.50919C4.89539 3.60055 7.06864 1.40869 9.67125 1.40869H14.8181C17.4208 1.40869 19.5993 3.60055 19.8802 6.51438L20.5587 13.4639C20.6806 14.7053 20.4315 15.9778 19.8643 17.0426C18.9473 18.7566 17.2776 19.8214 15.4966 19.8214ZM9.67125 2.18779C7.48209 2.18779 5.64807 4.0784 5.39894 6.5871L4.72047 13.5367C4.61445 14.6274 4.83178 15.7441 5.33004 16.679C6.10923 18.1333 7.50859 19.0423 8.99277 19.0423H15.4966C16.9808 19.0423 18.3802 18.1385 19.1594 16.679C19.6576 15.7441 19.8749 14.6274 19.7689 13.5367L19.0904 6.5871C18.8466 4.0784 17.0073 2.18779 14.8181 2.18779H9.67125Z" fill="white" stroke="white" stroke-width="0.303621"/>
<path d="M19.0468 6.24658H5.45605V7.02568H19.0468V6.24658Z" fill="white" stroke="white" stroke-width="0.303621"/>
<path d="M12.2497 11.6548C8.77245 11.6548 4.72277 10.7925 4.54785 10.751L4.71747 9.99268C4.75988 10.0031 8.85726 10.8757 12.2444 10.8757C15.6314 10.8757 19.7341 10.0031 19.7712 9.99268L19.9409 10.751C19.7712 10.7874 15.7163 11.6548 12.2391 11.6548H12.2497Z" fill="white" stroke="white" stroke-width="0.303621"/>
<path d="M13.4988 1.78174H10.9863V2.56084H13.4988V1.78174Z" fill="white" stroke="white" stroke-width="0.303621"/>
<path d="M7.80965 16.6953H4.71409V15.9162H7.80965C8.1913 15.9162 8.49873 15.6149 8.49873 15.2409C8.49873 14.867 8.1913 14.5657 7.80965 14.5657H4.29004V13.7866H7.80965C8.62595 13.7866 9.29382 14.4411 9.29382 15.2409C9.29382 16.0408 8.62595 16.6953 7.80965 16.6953Z" fill="white" stroke="white" stroke-width="0.303621"/>
<path d="M19.7575 16.6953H16.6619C15.8456 16.6953 15.1777 16.0408 15.1777 15.2409C15.1777 14.4411 15.8456 13.7866 16.6619 13.7866H20.1815V14.5657H16.6619C16.2803 14.5657 15.9728 14.867 15.9728 15.2409C15.9728 15.6149 16.2803 15.9162 16.6619 15.9162H19.7575V16.6953Z" fill="white" stroke="white" stroke-width="0.303621"/>
<path d="M6.40306 19.2681L3.56025 23.5575C3.44672 23.7288 3.48644 23.9564 3.65138 24.0795C3.8349 24.2165 4.09922 24.1707 4.22555 23.9801L7.06836 19.6907C7.18189 19.5194 7.14217 19.2918 6.97723 19.1687C6.79371 19.0317 6.52939 19.0775 6.40306 19.2681Z" fill="white" stroke="white" stroke-width="0.303621"/>
<path d="M17.5969 19.2681L20.4397 23.5575C20.5533 23.7288 20.5136 23.9564 20.3486 24.0795C20.1651 24.2165 19.9008 24.1707 19.7745 23.9801L16.9316 19.6907C16.8181 19.5194 16.8578 19.2918 17.0228 19.1687C17.2063 19.0317 17.4706 19.0775 17.5969 19.2681Z" fill="white" stroke="white" stroke-width="0.303621"/>
<path d="M17.8821 21H5.13477V21.7791H17.8821V21Z" fill="white" stroke="white" stroke-width="0.303621"/>
</svg>
