<svg width="22" height="22" viewBox="0 0 22 22" fill="none" xmlns="http://www.w3.org/2000/svg">
<circle cx="11" cy="11" r="11" fill="#EFEFEF"/>
<path d="M14.1214 13.6578C13.5478 14.3231 12.7898 14.8034 11.9433 15.038C11.0967 15.2725 10.1996 15.2508 9.36538 14.9754C8.53118 14.7001 7.79736 14.1836 7.25671 13.4912C6.71605 12.7989 6.39286 11.9617 6.32799 11.0857C6.26312 10.2096 6.45949 9.33398 6.89226 8.56953C7.32504 7.80507 7.97479 7.18612 8.75934 6.79094C9.54389 6.39576 10.428 6.2421 11.2999 6.34939C12.1718 6.45669 12.9923 6.82012 13.6576 7.39372C14.5497 8.16289 15.0998 9.25495 15.1868 10.4297C15.2738 11.6044 14.8906 12.7656 14.1214 13.6578Z" stroke="#213A70" stroke-width="1.46882" stroke-miterlimit="10" stroke-linecap="round" stroke-linejoin="round"/>
<path d="M16.9179 15.937L14.2021 13.5547" stroke="#213A70" stroke-width="1.46882" stroke-miterlimit="10" stroke-linecap="round" stroke-linejoin="round"/>
</svg>
