<svg width="17" height="17" viewBox="0 0 17 17" fill="none" xmlns="http://www.w3.org/2000/svg">
<path d="M4.8454 16V7.75M1 9.25V14.5C1 15.3284 1.68866 16 2.53816 16H12.864C14.0028 16 14.9713 15.1898 15.1444 14.0921L15.9727 8.84213C16.1877 7.47917 15.1063 6.25 13.6923 6.25H10.998C10.5733 6.25 10.229 5.91421 10.229 5.5V2.84938C10.229 1.828 9.37991 1 8.33254 1C8.08272 1 7.85634 1.14347 7.75488 1.36609L5.04839 7.3046C4.92495 7.57545 4.64953 7.75 4.3456 7.75H2.53816C1.68866 7.75 1 8.42157 1 9.25Z" stroke="#444444" stroke-width="1.4" stroke-linecap="round" stroke-linejoin="round"/>
</svg>
