<svg width="410" height="183" viewBox="0 0 410 183" fill="none" xmlns="http://www.w3.org/2000/svg">
<rect x="402" y="174" width="8" height="9" fill="#E4F0F7"/>
<rect x="402" width="8" height="8" fill="#E4F0F7"/>
<rect width="410" height="183" rx="8" fill="#E4F0F7"/>
<mask id="mask0_1410_204" style="mask-type:alpha" maskUnits="userSpaceOnUse" x="0" y="0" width="410" height="182">
<rect width="410" height="182" rx="8" fill="white"/>
</mask>
<g mask="url(#mask0_1410_204)">
<ellipse cx="93.2344" cy="89.1211" rx="93.2344" ry="89.1211" transform="matrix(0.755135 -0.65557 0.654871 0.755741 -60.9456 16.7109)" fill="#D3EDFC" fill-opacity="0.55"/>
<path d="M283.277 48.7046C305.195 30.3305 301.206 98.7942 357.762 54.5787C364.575 49.2512 387.876 38.8466 394.165 46.3184C394.28 46.4553 394.394 46.6082 394.506 46.7789C402.414 58.6933 375.204 68.8306 369.48 77.3832C359.255 92.6556 368.204 113.171 374.107 126.703C377.279 133.975 382.878 143.288 372.802 147.643C359.335 153.465 370.382 161.472 345.685 148.099C332.476 140.946 315.85 131.943 309.806 141.491C299.472 157.81 293.087 160.269 287.941 157.284C282.407 154.072 279.45 145.11 274.209 140.708C269.641 136.871 263.147 136.944 251.389 149.866C248.506 153.034 240.829 156.273 236.826 153.353C230.615 148.823 241.303 136.225 244.287 132.765C258.423 116.381 251.522 107.468 243.553 97.1754C236.703 88.3266 221.321 65.5981 237.156 58.7882C250.217 53.1712 270.425 59.4784 283.275 48.7038L283.277 48.7046ZM285.278 50.916C271.188 62.7276 251.467 55.8451 238.376 61.4737C225.707 66.9203 240.56 88.3748 246.007 95.4078C254.742 106.691 262.308 116.461 246.639 134.624C245.089 136.42 235.055 148.359 238.683 151.004C241.2 152.84 247.262 149.956 249.096 147.942C262.483 133.231 270.385 133.577 276.227 138.483C281.236 142.69 285.063 152.167 289.529 154.758C293.134 156.85 298.115 154.326 307.195 139.986C314.796 127.983 332.855 137.762 347.201 145.531C369.843 157.791 357.915 150.865 371.564 144.964C379.103 141.705 373.631 133.256 371.279 127.865C365.129 113.763 355.804 92.3869 366.904 75.8055C372.06 68.1056 397.582 56.8942 391.925 48.3728C391.887 48.3178 391.838 48.253 391.778 48.1817C387.069 42.588 365.184 52.5432 359.673 56.8517C302.098 101.866 302.278 36.6591 285.275 50.9144L285.278 50.916Z" fill="#CCE8F8" stroke="#CCE8F8" stroke-width="2.74219"/>
<path d="M278.976 19.9895C311.045 -14.6024 313.973 98.6012 397.152 14.5893C407.173 4.46699 442.493 -17.3203 453.41 -6.32399C453.611 -6.12263 453.811 -5.89461 454.01 -5.63694C468.076 12.326 426.558 34.4642 418.688 49.6613C404.631 76.7993 421.495 108.673 432.619 129.695C438.596 140.994 448.674 155.152 433.381 164.337C412.94 176.616 431.428 187.529 390.706 170.563C368.927 161.488 341.513 150.065 333.272 166.961C319.182 195.838 309.452 201.165 300.94 197.304C291.787 193.149 285.92 179.033 277.068 172.865C269.352 167.488 242.791 172.061 226 195.649C221.883 201.433 210.221 208.302 203.519 204.316C193.12 198.133 208.27 175.292 212.506 169.01C232.579 139.257 220.504 126.017 206.56 110.729C194.573 97.5856 167.273 63.3786 191.312 49.0004C211.139 37.1409 260.172 40.2726 278.973 19.9885L278.976 19.9895ZM282.427 23.2158C261.812 45.4529 213.469 41.2783 193.596 53.1627C174.363 64.6633 200.659 96.8856 210.189 107.332C225.474 124.092 238.712 138.603 216.463 171.586C214.262 174.848 200.056 196.474 206.129 200.084C210.344 202.59 219.509 196.631 222.127 192.954C241.245 166.099 270.081 161.93 279.948 168.804C288.409 174.7 295.715 189.485 303.102 192.837C309.066 195.543 316.576 190.393 328.956 165.016C339.319 143.777 369.095 156.183 392.749 166.04C430.083 181.594 410.353 172.633 431.069 160.188C442.511 153.316 432.75 140.55 428.318 132.174C416.728 110.265 399.155 77.0552 414.416 47.5913C421.506 33.9089 460.219 10.3482 450.157 -2.49899C450.09 -2.58158 450.003 -2.6779 449.899 -2.78301C441.726 -11.0153 408.576 9.74843 400.47 17.9349C315.792 103.464 307.299 -3.62343 282.422 23.2138L282.427 23.2158Z" fill="#CCE8F8" fill-opacity="0.26" stroke="#DEEEF7" stroke-width="1.82812"/>
<path d="M256.753 -2.60026C295.902 -44.4414 300.11 93.0087 401.683 -8.5837C413.92 -20.8242 457.126 -47.1042 470.577 -33.701C470.824 -33.4556 471.071 -33.1778 471.317 -32.864C488.668 -10.9877 437.861 15.6882 428.29 34.1002C411.195 66.9792 432.054 105.757 445.813 131.334C453.207 145.08 465.646 162.317 446.937 173.394C421.93 188.203 444.667 201.542 394.624 180.747C367.86 169.623 334.171 155.622 324.154 176.095C307.028 211.085 295.122 217.506 284.66 212.776C273.409 207.688 257.38 199.061 246.488 191.53C236.995 184.964 224.461 186.653 203.992 215.209C198.974 222.21 184.706 230.493 176.463 225.622C163.675 218.065 182.133 190.408 187.295 182.801C211.755 146.777 196.872 130.644 179.685 112.016C164.909 96.0012 131.236 54.3396 160.645 37.0001C184.901 22.698 233.798 21.9335 256.75 -2.60146L256.753 -2.60026ZM261.004 1.33334C235.838 28.2306 187.781 27.7324 163.469 42.0645C139.94 55.9337 172.371 95.181 184.118 107.909C202.958 128.331 219.275 146.013 192.163 185.948C189.481 189.898 172.173 216.085 179.642 220.497C184.825 223.559 196.035 216.369 199.227 211.917C222.532 179.407 237.859 178.219 250 186.613C260.409 193.812 278.208 203.258 287.287 207.364C294.618 210.679 303.801 204.462 318.849 173.713C331.445 147.978 368.037 163.183 397.106 175.265C442.985 194.33 418.735 183.355 444.078 168.347C458.077 160.058 446.034 144.512 440.552 134.322C426.216 107.667 404.479 67.2634 423.039 31.5664C431.661 14.9894 479.02 -13.427 466.607 -29.073C466.525 -29.1736 466.418 -29.291 466.29 -29.4191C456.22 -39.4532 415.669 -14.4054 405.771 -4.50589C302.367 98.9206 291.367 -31.1305 260.997 1.33095L261.004 1.33334Z" fill="#D6E9F4" fill-opacity="0.26"/>
<path d="M298.293 69.0069C311.945 60.4632 304.487 98.3615 339.47 78.0994C343.685 75.6581 357.501 71.67 360.445 76.331C360.5 76.4164 360.552 76.5106 360.601 76.6146C364.11 83.8813 348.129 87.415 344.277 91.7414C337.397 99.4669 340.831 111.615 343.096 119.628C344.314 123.934 346.732 129.569 340.768 131.213C332.797 133.411 338.359 138.742 325.578 129.351C318.743 124.328 310.139 118.005 306.031 122.862C299.01 131.163 295.254 132.037 292.606 129.969C289.759 127.745 288.79 122.512 286.198 119.646C283.938 117.148 280.303 116.682 272.745 122.976C270.892 124.519 266.354 125.728 264.34 123.786C261.215 120.772 268.15 114.576 270.082 112.878C279.233 104.837 276.058 99.324 272.391 92.9577C269.238 87.4844 262.377 73.599 271.747 71.0344C279.475 68.919 290.287 74.0166 298.292 69.0063L298.293 69.0069Z" fill="#7FB6D7" fill-opacity="0.2"/>
<path d="M306.406 87.4214C313.681 81.993 311.2 103.62 329.917 90.626C332.172 89.0604 339.745 86.1828 341.606 88.6643C341.64 88.7098 341.674 88.7603 341.706 88.8164C344.002 92.7352 335.194 95.4576 333.227 98.065C329.714 102.721 332.187 109.385 333.818 113.78C334.695 116.142 336.305 119.195 333.033 120.393C328.659 121.996 332.02 124.733 324.427 120.049C320.366 117.544 315.254 114.39 313.168 117.308C309.602 122.293 307.534 122.958 305.955 121.919C304.258 120.801 303.479 117.907 301.896 116.418C300.516 115.119 298.455 115.025 294.498 118.909C293.527 119.861 291.036 120.749 289.818 119.752C287.929 118.204 291.542 114.404 292.55 113.361C297.323 108.423 295.293 105.473 292.95 102.068C290.935 99.1396 286.461 91.6587 291.603 89.7858C295.844 88.241 302.139 90.6044 306.405 87.4211L306.406 87.4214Z" fill="#73AFD2" fill-opacity="0.17"/>
<path d="M253.767 86.7362L310.154 104.837L283.543 149.347L254.683 133.223L228.131 116.236L412.399 84.4638M412.399 84.4638L302.911 51.332L326.835 145.021L360.417 142.4L359.163 119.948L384.493 102.815L412.399 84.4638Z" stroke="#ADCDDF" stroke-width="0.934138"/>
<path fill-rule="evenodd" clip-rule="evenodd" d="M307.523 102.298C307.523 97.9674 311.034 94.457 315.364 94.457C319.695 94.457 323.205 97.9674 323.205 102.298C323.205 106.629 319.695 110.139 315.364 110.139C311.034 110.139 307.523 106.629 307.523 102.298Z" fill="#0240B8"/>
<path opacity="0.5" d="M351.486 64.2889C351.486 57.8041 356.742 52.5482 363.227 52.5482C369.712 52.5482 374.967 57.8041 374.967 64.2889C374.967 70.7738 369.712 76.0297 363.227 76.0297C356.742 76.0297 351.486 70.7738 351.486 64.2889Z" fill="#00ADE3" stroke="#2697BD" stroke-width="0.377574"/>
<path d="M325.766 163.541C326.04 161.744 327.719 160.509 329.516 160.783C331.314 161.057 332.548 162.736 332.274 164.534C332 166.331 330.321 167.566 328.524 167.292C326.726 167.018 325.492 165.338 325.766 163.541Z" fill="#3DC6AD" stroke="#1FAC93" stroke-width="0.277032"/>
<path opacity="0.7" fill-rule="evenodd" clip-rule="evenodd" d="M330.825 160.602C330.947 159.799 331.697 159.248 332.5 159.37C333.303 159.493 333.854 160.243 333.732 161.045C333.609 161.848 332.86 162.399 332.057 162.277C331.254 162.155 330.703 161.405 330.825 160.602Z" fill="#DDAFFF"/>
<path d="M277.292 147.874C277.292 143.358 280.953 139.696 285.47 139.696C289.987 139.696 293.648 143.358 293.648 147.874C293.648 152.391 289.987 156.052 285.47 156.052C280.953 156.052 277.292 152.391 277.292 147.874Z" fill="#FFB800" stroke="#C38C00" stroke-width="0.306763"/>
<path opacity="0.7" d="M350.793 123.371C350.793 119.932 353.581 117.143 357.021 117.143C360.461 117.143 363.248 119.932 363.248 123.371C363.248 126.81 360.461 129.599 357.021 129.599C353.581 129.599 350.793 126.81 350.793 123.371Z" fill="#00C5DC" stroke="#27A9B9" stroke-width="0.286503"/>
<path d="M322.445 145.424C322.445 142.839 324.54 140.743 327.126 140.743C329.712 140.743 331.807 142.839 331.807 145.424C331.807 148.009 329.712 150.105 327.126 150.105C324.54 150.105 322.445 148.009 322.445 145.424Z" fill="#1EC260" stroke="#13A64E" stroke-width="0.439124"/>
<path d="M227.419 117.492C227.419 114.663 229.712 112.37 232.541 112.37C235.371 112.37 237.664 114.663 237.664 117.492C237.664 120.321 235.371 122.615 232.541 122.615C229.712 122.615 227.419 120.321 227.419 117.492Z" fill="#A35BD8" stroke="#8F34D3" stroke-width="0.536707"/>
<g opacity="0.7">
<path fill-rule="evenodd" clip-rule="evenodd" d="M298.701 51.3311C298.701 49.7072 300.018 48.3906 301.642 48.3906C303.266 48.3906 304.582 49.7072 304.582 51.3311C304.582 52.9549 303.266 54.2715 301.642 54.2715C300.018 54.2715 298.701 52.9549 298.701 51.3311Z" fill="#01C7E3"/>
<path d="M298.921 51.3311C298.921 49.8284 300.139 48.6102 301.642 48.6102C303.145 48.6102 304.363 49.8284 304.363 51.3311C304.363 52.8337 303.145 54.0519 301.642 54.0519C300.139 54.0519 298.921 52.8337 298.921 51.3311Z" stroke="#0991AF" stroke-opacity="0.56" stroke-width="0.439124"/>
</g>
<path opacity="0.7" fill-rule="evenodd" clip-rule="evenodd" d="M286.939 133.173C286.939 132.361 287.598 131.703 288.41 131.703C289.222 131.703 289.88 132.361 289.88 133.173C289.88 133.985 289.222 134.644 288.41 134.644C287.598 134.644 286.939 133.985 286.939 133.173Z" fill="#DDAFFF"/>
<path opacity="0.7" fill-rule="evenodd" clip-rule="evenodd" d="M358.49 143.464C358.49 142.382 359.368 141.504 360.451 141.504C361.534 141.504 362.411 142.382 362.411 143.464C362.411 144.547 361.534 145.424 360.451 145.424C359.368 145.424 358.49 144.547 358.49 143.464Z" fill="#DDAFFF"/>
<path opacity="0.7" fill-rule="evenodd" clip-rule="evenodd" d="M255.575 115.53C255.575 116.883 256.672 117.98 258.025 117.98C259.379 117.98 260.476 116.883 260.476 115.53C260.476 114.177 259.379 113.08 258.025 113.08C256.672 113.08 255.575 114.177 255.575 115.53Z" fill="#6262E8"/>
<path opacity="0.7" fill-rule="evenodd" clip-rule="evenodd" d="M233.032 112.591C233.032 111.238 234.129 110.141 235.482 110.141C236.836 110.141 237.932 111.238 237.932 112.591C237.932 113.944 236.836 115.041 235.482 115.041C234.129 115.041 233.032 113.944 233.032 112.591Z" fill="#DDAFFF"/>
<path opacity="0.7" fill-rule="evenodd" clip-rule="evenodd" d="M278.118 94.9491C278.118 91.4307 280.97 88.5781 284.489 88.5781C288.008 88.5781 290.86 91.4307 290.86 94.9491C290.86 98.4675 288.008 101.32 284.489 101.32C280.97 101.32 278.118 98.4675 278.118 94.9491Z" fill="#9BD7EA"/>
<path d="M250.071 83.1227C250.071 72.8214 258.187 64.481 268.188 64.481C278.189 64.481 286.306 72.8214 286.306 83.1227C286.306 93.4239 278.189 101.764 268.188 101.764C258.187 101.764 250.071 93.4239 250.071 83.1227Z" fill="#6262E8" stroke="#3838DF" stroke-width="0.469836"/>
</g>
<rect width="10" height="10" fill="#DBEEFA"/>
<rect y="175" width="8" height="8" fill="#E4F0F7"/>
</svg>
