<svg width="24" height="26" viewBox="0 0 24 26" fill="none" xmlns="http://www.w3.org/2000/svg">
<g clip-path="url(#clip0_7958_3871)">
<path d="M13.3866 17.8831C7.57646 17.8831 3 15.7136 3 12.935C3 10.1564 7.57646 7.98682 13.3866 7.98682C13.5855 7.98682 13.7447 8.13907 13.7447 8.32938V11.2983C13.7447 11.2983 13.5855 11.6408 13.3866 11.6408C12.6305 11.6408 12.0335 12.2118 12.0335 12.935C12.0335 13.6582 12.6305 14.2291 13.3866 14.2291C13.5855 14.2291 13.7447 14.3814 13.7447 14.5717V17.5406C13.7447 17.5406 13.5855 17.8831 13.3866 17.8831ZM13.0284 8.67195C7.93461 8.74807 3.71631 10.6893 3.71631 12.935C3.71631 15.1807 7.93461 17.1219 13.0284 17.198V14.8762C12.0733 14.7239 11.3172 13.9246 11.3172 12.935C11.3172 11.9453 12.0335 11.1841 13.0284 10.9938V8.67195Z" fill="white" stroke="white" stroke-width="0.306469"/>
<path d="M13.3824 22.8688C10.4773 22.8688 8.20898 18.4916 8.20898 12.9344C8.20898 7.37722 10.4773 3 13.3824 3C13.5813 3 13.7405 3.15225 13.7405 3.34257V11.3358C13.7405 11.3358 13.5813 11.6783 13.3824 11.6783C12.6263 11.6783 12.0293 12.2493 12.0293 12.9725C12.0293 13.6957 12.6263 14.2666 13.3824 14.2666C13.5813 14.2666 13.7405 14.4188 13.7405 14.6092V22.6023C13.7405 22.6023 13.5813 22.9449 13.3824 22.9449V22.8688ZM13.0242 3.72319C10.7559 4.10382 8.9253 8.17654 8.9253 12.9344C8.9253 17.6922 10.7559 21.765 13.0242 22.1456V14.8375C12.0691 14.6853 11.313 13.886 11.313 12.8963C11.313 11.9067 12.0293 11.1454 13.0242 10.9551V3.72319Z" stroke="white" stroke-width="0.306469"/>
<path d="M13.3866 22.8688C7.65605 22.8688 3 18.4154 3 12.9344C3 7.45335 7.65605 3 13.3866 3C13.5855 3 13.7447 3.15225 13.7447 3.34257V11.3358C13.7447 11.3358 13.5855 11.6783 13.3866 11.6783C12.6305 11.6783 12.0335 12.2493 12.0335 12.9725C12.0335 13.6957 12.6305 14.2666 13.3866 14.2666C13.5855 14.2666 13.7447 14.4188 13.7447 14.6092V22.6023C13.7447 22.6023 13.5855 22.9449 13.3866 22.9449V22.8688ZM13.0284 3.68513C7.85502 3.87544 3.71631 7.94817 3.71631 12.9344C3.71631 17.9206 7.85502 21.9933 13.0284 22.1837V14.8756C12.0733 14.7233 11.3172 13.924 11.3172 12.9344C11.3172 11.9448 12.0335 11.1835 13.0284 10.9932V3.68513Z" fill="white" stroke="white" stroke-width="0.306469"/>
<path d="M13.3814 22.8688C10.4763 22.8688 8.20801 18.4916 8.20801 12.9344C8.20801 7.37722 10.4763 3 13.3814 3C13.5804 3 13.7396 3.15225 13.7396 3.34257V11.3358C13.7396 11.3358 13.5804 11.6783 13.3814 11.6783C12.6253 11.6783 12.0284 12.2493 12.0284 12.9725C12.0284 13.6957 12.6253 14.2666 13.3814 14.2666C13.5804 14.2666 13.7396 14.4188 13.7396 14.6092V22.6023C13.7396 22.6023 13.5804 22.9449 13.3814 22.9449V22.8688ZM13.0232 3.72319C10.7549 4.10382 8.92432 8.17654 8.92432 12.9344C8.92432 17.6922 10.7549 21.765 13.0232 22.1456V14.8375C12.0681 14.6853 11.312 13.886 11.312 12.8963C11.312 11.9067 12.0284 11.1454 13.0232 10.9551V3.72319Z" fill="white" stroke="white" stroke-width="0.306469"/>
<path d="M13.3795 14.5338C14.2713 14.5338 14.9943 13.8109 14.9943 12.919C14.9943 12.0272 14.2713 11.3042 13.3795 11.3042C12.4876 11.3042 11.7646 12.0272 11.7646 12.919C11.7646 13.8109 12.4876 14.5338 13.3795 14.5338Z" stroke="white" stroke-width="0.306469" stroke-linecap="round" stroke-linejoin="round"/>
<path d="M13.4993 17.7254C13.4993 17.7254 13.4251 17.5336 13.3869 17.5336C13.2726 17.4947 13.1562 17.1891 13.1562 17.0722V14.6491C13.1562 14.6491 13.3087 14.2986 13.4993 14.2986C14.2234 14.2986 14.7951 13.7145 14.7951 12.9746C14.7951 12.2347 14.2234 11.6506 13.4993 11.6506C13.3087 11.6506 13.1562 11.4949 13.1562 11.3002V8.5354C13.1562 8.5354 13.1944 8.3407 13.2706 8.26282C16.5484 5.61487 19.3687 4.64135 20.5122 5.77063C22.151 7.44507 19.4069 12.079 16.0148 15.5447C15.2525 16.3235 14.4902 17.0244 13.6898 17.6864C13.6136 17.7254 13.6461 17.7254 13.5699 17.7254H13.4993ZM13.8423 14.9216V16.635C14.414 16.1288 14.9857 15.5836 15.5574 15.0385C19.4069 11.1055 21.0457 7.25037 20.0548 6.23791C19.3687 5.53699 17.0057 6.12109 13.8423 8.65222V10.9497C14.757 11.1055 15.4812 11.9232 15.4812 12.9357C15.4812 13.9481 14.7951 14.7269 13.8423 14.9216Z" fill="white" stroke="white" stroke-width="0.306469"/>
<path d="M19.19 20.5322C17.7388 20.5322 15.6003 19.48 13.2708 17.5704C13.1944 17.4925 13.1562 17.4146 13.1562 17.2977V14.5308C13.1562 14.5308 13.309 14.18 13.4999 14.18C14.2255 14.18 14.7983 13.5955 14.7983 12.855C14.7983 12.1146 14.2255 11.53 13.4999 11.53C13.309 11.53 13.1562 11.3742 13.1562 11.1793V8.53658C13.1562 8.53658 13.2326 8.26379 13.3472 8.22482C13.4618 8.18585 13.6145 8.18585 13.6909 8.26379C14.4928 8.92628 15.2566 9.50357 16.0204 10.283C17.8534 12.1536 19.3427 14.18 20.2211 15.9727C21.1376 17.8822 21.2521 19.3241 20.5266 20.0646C20.2211 20.3763 19.7628 20.5322 19.19 20.5322ZM13.8054 17.1418C16.9751 19.6749 19.3427 20.2984 20.0301 19.5579C20.5266 19.0513 20.3356 17.8432 19.61 16.2844C18.7699 14.5697 17.3188 12.6212 15.5239 10.7896C14.9511 10.205 14.3783 9.8226 13.8054 9.31599V10.9065C14.722 11.0624 15.4475 11.8808 15.4475 12.894C15.4475 13.9072 14.7602 14.6866 13.8054 14.8815V17.1807V17.1418Z" fill="white" stroke="white" stroke-width="0.306469"/>
</g>
<defs>
<clipPath id="clip0_7958_3871">
<rect width="24" height="26" fill="white"/>
</clipPath>
</defs>
</svg>
