<svg width="17" height="17" viewBox="0 0 17 17" fill="none" xmlns="http://www.w3.org/2000/svg">
<path d="M16 8.2959C16 12.3253 12.7335 15.5918 8.7041 15.5918C7.73363 15.5918 6.80741 15.4023 5.96043 15.0583L5.9604 15.0583C5.79832 14.9925 5.71727 14.9596 5.65176 14.9449C5.58767 14.9305 5.54024 14.9253 5.47456 14.9253C5.40741 14.9253 5.33428 14.9375 5.18801 14.9618L2.30378 15.4425C2.00175 15.4929 1.85073 15.518 1.74153 15.4712C1.64595 15.4302 1.56979 15.354 1.5288 15.2585C1.48196 15.1493 1.50713 14.9982 1.55747 14.6962L2.03817 11.812C2.06255 11.6657 2.07474 11.5926 2.07473 11.5254C2.07472 11.4598 2.06947 11.4123 2.0551 11.3482C2.04042 11.2827 2.0075 11.2017 1.94167 11.0396L1.94166 11.0396C1.59768 10.1926 1.4082 9.26637 1.4082 8.2959C1.4082 4.26649 4.67469 1 8.7041 1C12.7335 1 16 4.26649 16 8.2959Z" fill="white" stroke="#444444" stroke-width="1.36798" stroke-linecap="round" stroke-linejoin="round"/>
<path d="M5.96875 6.47168H9.21137M5.96875 9.30897H11.6433" stroke="#444444" stroke-width="1.45918" stroke-linecap="round" stroke-linejoin="round"/>
</svg>
