<svg width="35" height="35" viewBox="0 0 35 35" fill="none" xmlns="http://www.w3.org/2000/svg">
<g clip-path="url(#clip0_7941_3822)">
<circle cx="17.5" cy="17.5" r="17.5" fill="#EDE8FF"/>
<path d="M18.9 12.6669L17.896 10.6837C17.6071 10.1129 17.4626 9.82753 17.247 9.61903C17.0564 9.43464 16.8267 9.29442 16.5745 9.20849C16.2892 9.11133 15.9662 9.11133 15.3201 9.11133H11.88C10.8719 9.11133 10.3679 9.11133 9.98282 9.30509C9.64413 9.47554 9.36876 9.7475 9.19619 10.082C9 10.4623 9 10.9601 9 11.9558V12.6669M9 12.6669H22.68C24.1921 12.6669 24.9482 12.6669 25.5258 12.9575C26.0338 13.2132 26.4469 13.6211 26.7057 14.1229C27 14.6933 27 15.4401 27 16.9336V20.8447C27 22.3381 27 23.0849 26.7057 23.6553C26.4469 24.1571 26.0338 24.565 25.5258 24.8207C24.9482 25.1113 24.1921 25.1113 22.68 25.1113H13.32C11.8079 25.1113 11.0518 25.1113 10.4742 24.8207C9.96619 24.565 9.55314 24.1571 9.29428 23.6553C9 23.0849 9 22.3381 9 20.8447V12.6669ZM21.15 22.0002L19.8 20.6669M20.7 18.4447C20.7 20.1629 19.2897 21.5558 17.55 21.5558C15.8103 21.5558 14.4 20.1629 14.4 18.4447C14.4 16.7264 15.8103 15.3335 17.55 15.3335C19.2897 15.3335 20.7 16.7264 20.7 18.4447Z" stroke="#563FAC" stroke-width="1.5" stroke-linecap="round" stroke-linejoin="round"/>
</g>
<defs>
<clipPath id="clip0_7941_3822">
<rect width="35" height="35" fill="white"/>
</clipPath>
</defs>
</svg>
