<svg width="24" height="26" viewBox="0 0 24 26" fill="none" xmlns="http://www.w3.org/2000/svg">
<path d="M21.3178 23.0811C21.585 23.0811 21.7186 23.0811 21.8206 23.0291C21.9104 22.9833 21.9833 22.9104 22.0291 22.8206C22.0811 22.7186 22.0811 22.585 22.0811 22.3178V12.3957C22.0811 12.1285 22.0811 11.9949 22.0291 11.8929C21.9833 11.8031 21.9104 11.7302 21.8206 11.6844C21.7186 11.6324 21.585 11.6324 21.3178 11.6324L19.0281 11.6324C18.7609 11.6324 18.6273 11.6324 18.5253 11.6844C18.4355 11.7301 18.3626 11.8031 18.3168 11.8929C18.2648 11.9949 18.2648 12.1285 18.2648 12.3957V14.6854C18.2648 14.9526 18.2648 15.0861 18.2129 15.1882C18.1671 15.2779 18.0941 15.3509 18.0044 15.3966C17.9023 15.4486 17.7688 15.4486 17.5016 15.4486H15.2119C14.9447 15.4486 14.8111 15.4486 14.7091 15.5006C14.6193 15.5464 14.5464 15.6193 14.5006 15.7091C14.4486 15.8111 14.4486 15.9447 14.4486 16.2119V18.5016C14.4486 18.7688 14.4486 18.9023 14.3966 19.0044C14.3509 19.0941 14.2779 19.1671 14.1882 19.2129C14.0861 19.2648 13.9526 19.2648 13.6854 19.2648H11.3957C11.1285 19.2648 10.9949 19.2648 10.8929 19.3168C10.8031 19.3626 10.7301 19.4355 10.6844 19.5253C10.6324 19.6273 10.6324 19.7609 10.6324 20.0281V22.3178C10.6324 22.585 10.6324 22.7186 10.6844 22.8206C10.7301 22.9104 10.8031 22.9833 10.8929 23.0291C10.9949 23.0811 11.1285 23.0811 11.3957 23.0811L21.3178 23.0811Z" stroke="white" stroke-width="1.2" stroke-linecap="round" stroke-linejoin="round"/>
<path d="M10.6324 8.57945C10.6324 8.31229 10.6324 8.17871 10.6844 8.07667C10.7301 7.98691 10.8031 7.91394 10.8929 7.8682C10.9949 7.81621 11.1285 7.81621 11.3957 7.81621H13.6854C13.9526 7.81621 14.0861 7.81621 14.1882 7.8682C14.2779 7.91394 14.3509 7.98691 14.3966 8.07667C14.4486 8.17871 14.4486 8.31229 14.4486 8.57945V10.8692C14.4486 11.1363 14.4486 11.2699 14.3966 11.372C14.3509 11.4617 14.2779 11.5347 14.1882 11.5804C14.0861 11.6324 13.9526 11.6324 13.6854 11.6324H11.3957C11.1285 11.6324 10.9949 11.6324 10.8929 11.5804C10.8031 11.5347 10.7301 11.4617 10.6844 11.372C10.6324 11.2699 10.6324 11.1363 10.6324 10.8692V8.57945Z" stroke="white" stroke-width="1.2" stroke-linecap="round" stroke-linejoin="round"/>
<path d="M3.95405 14.3038C3.95405 14.0366 3.95405 13.903 4.00605 13.801C4.05178 13.7112 4.12476 13.6383 4.21451 13.5925C4.31656 13.5405 4.45014 13.5405 4.71729 13.5405H7.00702C7.27418 13.5405 7.40776 13.5405 7.5098 13.5925C7.59956 13.6383 7.67254 13.7112 7.71827 13.801C7.77026 13.903 7.77026 14.0366 7.77026 14.3038V16.5935C7.77026 16.8607 7.77026 16.9942 7.71827 17.0963C7.67254 17.186 7.59956 17.259 7.5098 17.3047C7.40776 17.3567 7.27418 17.3567 7.00702 17.3567H4.71729C4.45014 17.3567 4.31656 17.3567 4.21451 17.3047C4.12476 17.259 4.05178 17.186 4.00605 17.0963C3.95405 16.9942 3.95405 16.8607 3.95405 16.5935V14.3038Z" stroke="white" stroke-width="1.2" stroke-linecap="round" stroke-linejoin="round"/>
<path d="M3 4.76324C3 4.49608 3 4.3625 3.05199 4.26046C3.09773 4.1707 3.1707 4.09773 3.26046 4.05199C3.3625 4 3.49608 4 3.76324 4H6.05297C6.32013 4 6.45371 4 6.55575 4.05199C6.64551 4.09773 6.71848 4.1707 6.76422 4.26046C6.81621 4.3625 6.81621 4.49608 6.81621 4.76324V7.05297C6.81621 7.32013 6.81621 7.45371 6.76422 7.55575C6.71848 7.64551 6.64551 7.71848 6.55575 7.76422C6.45371 7.81621 6.32013 7.81621 6.05297 7.81621H3.76324C3.49608 7.81621 3.3625 7.81621 3.26046 7.76422C3.1707 7.71848 3.09773 7.64551 3.05199 7.55575C3 7.45371 3 7.32013 3 7.05297V4.76324Z" stroke="white" stroke-width="1.2" stroke-linecap="round" stroke-linejoin="round"/>
</svg>
