<svg width="35" height="35" viewBox="0 0 35 35" fill="none" xmlns="http://www.w3.org/2000/svg">
<circle cx="17.5" cy="17.5" r="17.5" fill="#D4F6E6"/>
<path d="M13.9836 24.9344V16.1705M10 17.7639V23.3409C10 24.221 10.7134 24.9344 11.5934 24.9344H22.2904C23.4701 24.9344 24.4734 24.0737 24.6527 22.9077L25.5108 17.3306C25.7335 15.8828 24.6133 14.577 23.1484 14.577H20.3574C19.9173 14.577 19.5606 14.2203 19.5606 13.7803V10.9646C19.5606 9.87957 18.6811 9 17.596 9C17.3373 9 17.1027 9.15241 16.9976 9.3889L14.1939 15.6973C14.066 15.985 13.7807 16.1705 13.4658 16.1705H11.5934C10.7134 16.1705 10 16.8839 10 17.7639Z" stroke="#42B47E" stroke-width="1.44291" stroke-linecap="round" stroke-linejoin="round"/>
</svg>
