<svg width="120" height="18" viewBox="0 0 120 18" fill="none" xmlns="http://www.w3.org/2000/svg">
<path d="M85.855 8.22274H85.1859C85.2974 8.40056 85.381 8.58776 85.4368 8.79365C85.4926 8.99955 85.5204 9.21011 85.5204 9.42537C85.5204 9.8044 85.4554 10.1507 85.3299 10.4642C85.1998 10.7824 85.0232 11.0538 84.7909 11.2784C84.5493 11.5124 84.2751 11.6902 83.9591 11.8119C83.6431 11.9382 83.2993 11.9991 82.9275 11.9991C82.5558 11.9991 82.198 11.9382 81.882 11.8119C81.566 11.6855 81.2918 11.5077 81.0641 11.2784C80.8318 11.0538 80.6552 10.7824 80.5251 10.4642C80.3996 10.146 80.3346 9.79972 80.3346 9.42537C80.3346 9.21011 80.3625 8.99955 80.4229 8.79365C80.4833 8.58776 80.5623 8.40056 80.6691 8.22274H80V6.92655H82.2072V6H83.6431V6.92655H85.8504V8.22274H85.855ZM88.4944 16H81.8773C81.552 16 81.2825 15.8924 81.0688 15.6678C80.8597 15.4478 80.7528 15.1858 80.7528 14.8816V12.3313H82.198V14.5073C82.198 14.5728 82.2073 14.6196 82.2305 14.6523C82.2537 14.6851 82.3002 14.6991 82.3606 14.6991H87.04L87.0539 6.61769H88.4851V8.43332H90V9.73423H88.4851V16H88.4944ZM82.9275 8.14788C82.5744 8.14788 82.2955 8.26486 82.0911 8.48948C81.882 8.71877 81.7797 9.02761 81.7797 9.42068C81.7797 9.81376 81.882 10.1273 82.0911 10.3519C82.2955 10.5812 82.5744 10.6935 82.9275 10.6935C83.2807 10.6935 83.5455 10.5812 83.7547 10.3519C83.9638 10.1226 84.0706 9.81376 84.0706 9.42068C84.0706 9.02761 83.9638 8.71877 83.7547 8.48948C83.5455 8.26018 83.2667 8.14788 82.9275 8.14788Z" fill="#848484" fill-opacity="0.64"/>
<path d="M98.1131 10.0508V8.4357C98.1131 8.38186 98.0995 8.337 98.0724 8.30111C98.0452 8.26522 98.0045 8.24727 97.9502 8.24727H91.3439V7H98.4253C98.7376 7 98.9955 7.10769 99.2036 7.32305C99.4118 7.5384 99.5204 7.78964 99.5204 8.07229V10.0464H100V11.2936H96.1403V12.8639H98.4299C98.7421 12.8639 99 12.9716 99.2081 13.187C99.4163 13.4023 99.5249 13.6536 99.5249 13.9362V16H98.1176V14.3041C98.1176 14.2413 98.1041 14.1964 98.0769 14.1605C98.0498 14.1246 98.0091 14.1112 97.9548 14.1112H91.3484V12.8639H94.733V11.2936H91V10.0464H98.1176L98.1131 10.0508Z" fill="#848484" fill-opacity="0.64"/>
<path d="M104.172 8.19832C104.223 8.59121 104.396 8.9046 104.696 9.14314C104.992 9.38168 105.401 9.53133 105.921 9.59214V10.8924C105.334 10.8924 104.839 10.7848 104.434 10.5603C104.029 10.3405 103.708 10.0646 103.467 9.73716C103.213 10.0646 102.884 10.3405 102.483 10.5603C102.081 10.7802 101.587 10.8924 101 10.8924V9.59214C101.52 9.52666 101.929 9.377 102.225 9.14314C102.521 8.90928 102.698 8.59121 102.749 8.19832H101.034V6.90271H102.791V6H104.126V6.90271H105.883V8.19832H104.168H104.172ZM102.411 16C102.094 16 101.841 15.8878 101.659 15.6632C101.477 15.4387 101.389 15.1721 101.389 14.8587V13.0066H107.598V12.5108H101.389V11.2713H108.219C108.434 11.2713 108.607 11.3415 108.73 11.4818C108.852 11.6221 108.911 11.8092 108.911 12.0384V14.1525H102.694V14.6951H109V15.9907H102.411V16ZM108.916 10.8924H107.602V9.41443H106.301V8.11413H107.602V6.62208H108.916V10.8878V10.8924Z" fill="#848484" fill-opacity="0.64"/>
<path d="M111.455 11.2627V8.14598C111.455 7.84391 111.559 7.57537 111.764 7.34522C111.969 7.11506 112.228 7 112.542 7H119.554V8.33296H113.033C112.965 8.33296 112.919 8.35217 112.892 8.39053C112.869 8.42889 112.855 8.47683 112.855 8.53437V10.8886C112.855 10.9558 112.869 11.0037 112.892 11.0373C112.919 11.0708 112.96 11.0852 113.033 11.0852H119.554V12.4134H116.203V14.667H120V16H111V14.667H114.797V12.4134H112.542C112.228 12.4134 111.969 12.3031 111.764 12.073C111.559 11.8428 111.455 11.5791 111.455 11.2675V11.2627Z" fill="#848484" fill-opacity="0.64"/>
<path d="M61.0151 3C60.2689 3 59.954 3.26561 59.803 3.95537L58 15H61.8994L64 3H61.0151Z" fill="#848484" fill-opacity="0.64"/>
<path d="M14 3H10.5664C10.0354 3 9.73951 3.16697 9.38701 3.48806L5.46161 7.24259L6.41032 3H3.29873C2.55891 3 2.25428 3.26115 2.10196 3.93328L0 15H3.89928L4.9742 9.78987L8.60802 15H13.4691L8.62978 8.2187L13.9957 3H14Z" fill="#848484" fill-opacity="0.64"/>
<path d="M68.457 12.1896L70.0663 3H67.0484C66.3027 3 65.9887 3.25275 65.8273 3.9168L64 15H73.6337L74 12.1853H68.4527L68.457 12.1896Z" fill="#848484" fill-opacity="0.64"/>
<path d="M51.2152 7.32104L52.7952 16H57L54.4148 3.37811H50.5349C49.9248 3.37811 49.6702 3.55836 49.3981 4.00448L44.3199 14.3237L40.8086 11.0702C42.3975 10.6106 44.1663 9.35786 44.6622 7.25346C45.5445 3.51782 42.4721 3.3646 41.4494 3.3646H35.8094C35.0808 3.3646 34.9492 3.52682 34.7955 4.20726L33.7114 9.44347C30.9463 7.59142 24.6699 3.84226 20.2501 3.78368C19.1396 3.76565 18.3277 3.9414 17.542 4.43708C17.4235 4.51369 17.3928 4.50017 17.3752 4.49567L17.4367 4.36497C17.9151 3.77015 18.8851 2.81034 20.5178 2.29212C20.5178 2.29212 23.1249 1.35934 26.6274 3.53584C28.664 4.80659 30.0334 5.87005 31.3633 6.99661C30.3538 2.70219 26.4475 -0.362037 21.9838 0.0345097C17.937 0.385994 14.7549 3.45924 14 7.33908C16.1594 5.35184 20.2984 4.64886 26.6274 6.87042C28.0495 7.37061 29.3618 7.91137 30.5601 8.46563C31.653 8.96582 32.7634 9.56513 33.9221 10.2501C36.3098 11.6605 38.9784 13.6252 41.1378 15.991H47.0631L51.2108 7.31205L51.2152 7.32104ZM37.7582 9.65077C37.8811 9.04243 38.5438 5.74839 38.6316 5.3158H40.0932C40.0932 5.3158 41.5592 5.22567 41.0325 7.25346C41.0325 7.25346 40.4531 9.65077 37.7582 9.65077Z" fill="#848484" fill-opacity="0.64"/>
<path d="M37 12.8666C36.6851 14.2024 36.3483 15.8872 36.3483 15.8872H32.2323L33.1683 11.5988C32.2498 11.3052 31.6068 11.1308 31.3137 11.0584C30.5614 14.713 27.4514 17.6357 23.4273 17.9676C20.8116 18.1846 18.3708 17.2997 16.595 15.6872L16.5862 15.6787C16.5862 15.6787 14.876 14.1642 15.0072 11.9774C15.1384 9.73109 17.1723 8.81637 17.1723 8.81637C19.5387 7.58259 24.7745 7.45072 32.1754 10.5352C32.1754 10.5352 34.6599 11.4839 37 12.8623V12.8666Z" fill="#848484" fill-opacity="0.64"/>
</svg>
