<svg width="24" height="26" viewBox="0 0 24 26" fill="none" xmlns="http://www.w3.org/2000/svg">
<path d="M14.7016 22.9436L22.0294 7.73036C22.3456 7.07386 22.0634 6.28557 21.4024 5.97888L17.076 3.97152L12.8349 1.97125C12.191 1.66755 11.4225 1.93553 11.107 2.57376L3.01873 18.937C2.66193 19.6588 3.03696 20.5284 3.80683 20.7644L13.1422 23.6256C13.7591 23.8146 14.4216 23.5249 14.7016 22.9436Z" stroke="white" stroke-width="1.09687" stroke-linejoin="round"/>
<path d="M16.2822 7.71533H3.83573C3.11097 7.71533 2.52344 8.18965 2.52344 8.77475V22.8058C2.52344 23.3909 3.11097 23.8652 3.83573 23.8652H16.2822C17.007 23.8652 17.5945 23.3909 17.5945 22.8058V8.77475C17.5945 8.18965 17.007 7.71533 16.2822 7.71533Z" fill="#2D3459"/>
<path d="M16.2822 7.71533H3.83573C3.11097 7.71533 2.52344 8.18965 2.52344 8.77475V22.8058C2.52344 23.3909 3.11097 23.8652 3.83573 23.8652H16.2822C17.007 23.8652 17.5945 23.3909 17.5945 22.8058V8.77475C17.5945 8.18965 17.007 7.71533 16.2822 7.71533Z" stroke="white" stroke-width="1.09687" stroke-linejoin="round"/>
<path d="M14.5989 4.07541L15.3701 2.31781L18.7705 4.15927L17.891 6.04545L14.5989 4.07541Z" fill="#2D3459"/>
<path d="M18.7415 4.7165C18.1745 5.66155 16.9754 5.70213 16.1425 5.33797C15.3096 4.97382 14.6449 3.93239 15.0527 2.99951" stroke="white" stroke-width="1.09687" stroke-linecap="round"/>
<path d="M8.75 21.2857H11.25M8 11H12M10 12.5429V11M6 16.1429H14M12.5 19.7429L13.25 21.2857M7.5 19.7429L6.75 21.2857M8.25 17.9429H8.255M11.75 17.9429H11.755M8.4 19.7429H11.6C12.4401 19.7429 12.8601 19.7429 13.181 19.5747C13.4632 19.4268 13.6927 19.1907 13.8365 18.9004C14 18.5704 14 18.1384 14 17.2743V15.0114C14 14.1473 14 13.7153 13.8365 13.3853C13.6927 13.095 13.4632 12.8589 13.181 12.711C12.8601 12.5429 12.4401 12.5429 11.6 12.5429H8.4C7.55992 12.5429 7.13988 12.5429 6.81901 12.711C6.53677 12.8589 6.3073 13.095 6.16349 13.3853C6 13.7153 6 14.1473 6 15.0114V17.2743C6 18.1384 6 18.5704 6.16349 18.9004C6.3073 19.1907 6.53677 19.4268 6.81901 19.5747C7.13988 19.7429 7.55992 19.7429 8.4 19.7429ZM8.5 17.9429C8.5 18.0849 8.38807 18.2 8.25 18.2C8.11193 18.2 8 18.0849 8 17.9429C8 17.8008 8.11193 17.6857 8.25 17.6857C8.38807 17.6857 8.5 17.8008 8.5 17.9429ZM12 17.9429C12 18.0849 11.8881 18.2 11.75 18.2C11.6119 18.2 11.5 18.0849 11.5 17.9429C11.5 17.8008 11.6119 17.6857 11.75 17.6857C11.8881 17.6857 12 17.8008 12 17.9429Z" stroke="white" stroke-width="0.920084" stroke-linecap="round" stroke-linejoin="round"/>
</svg>
