<svg width="35" height="35" viewBox="0 0 35 35" fill="none" xmlns="http://www.w3.org/2000/svg">
<circle cx="17.5" cy="17.5" r="17.5" fill="#DCE3FF"/>
<path d="M25 20.903C24.4701 22.159 23.6414 23.2658 22.5862 24.1266C21.531 24.9874 20.2815 25.576 18.947 25.8409C17.6124 26.1059 16.2334 26.0391 14.9306 25.6464C13.6277 25.2538 12.4407 24.5472 11.4732 23.5884C10.5057 22.6297 9.78725 21.448 9.38066 20.1466C8.97406 18.8453 8.8917 17.4639 9.14076 16.1233C9.38982 14.7826 9.96273 13.5236 10.8094 12.4561C11.6561 11.3887 12.7507 10.5454 13.9976 10" stroke="#1639C7" stroke-width="1.7" stroke-linecap="round" stroke-linejoin="round"/>
<path d="M25.3711 17C25.5937 17 25.7051 17 25.7942 16.9519C25.8686 16.9117 25.9362 16.8384 25.9703 16.761C26.0112 16.6683 26.0029 16.5655 25.9864 16.3597C25.9197 15.5269 25.7229 14.7083 25.4022 13.9339C24.9995 12.9618 24.4094 12.0786 23.6654 11.3346C22.9214 10.5906 22.0382 10.0005 21.0661 9.59781C20.2917 9.27707 19.4731 9.08032 18.6403 9.01355C18.4345 8.99706 18.3317 8.98881 18.239 9.02967C18.1616 9.06379 18.0883 9.13141 18.0481 9.20584C18 9.29495 18 9.40626 18 9.62889V16.359C18 16.5834 18 16.6956 18.0437 16.7813C18.0821 16.8566 18.1434 16.9179 18.2187 16.9563C18.3044 17 18.4166 17 18.641 17H25.3711Z" stroke="#1639C7" stroke-width="1.7" stroke-linecap="round" stroke-linejoin="round"/>
</svg>
