<svg width="24" height="26" viewBox="0 0 24 26" fill="none" xmlns="http://www.w3.org/2000/svg">
<path d="M11.3916 3.78786C11.3916 3.35274 11.7443 3 12.1795 3V3C12.6146 3 12.9673 3.35274 12.9673 3.78786V4.04668C12.9673 4.4818 12.6146 4.83454 12.1795 4.83454V4.83454C11.7443 4.83454 11.3916 4.4818 11.3916 4.04667V3.78786Z" stroke="white" stroke-linecap="round" stroke-linejoin="round"/>
<path d="M12.1752 4.8335C12.2361 6.01338 12.9744 5.76979 12.9744 6.70609C12.9744 7.19327 12.5786 7.58149 12.099 7.58149C11.6195 7.58149 11.2236 7.18566 11.2236 6.70609" stroke="white" stroke-linecap="round" stroke-linejoin="round"/>
<path d="M6.24279 16.0296L21.9924 12.9771M6.24279 16.0296V23.7712L21.9924 20.7187V12.9771M6.24279 16.0296L3 13.4186M6.24279 16.0296L6.2504 16.0372M6.24279 16.0296L12.0966 7.70947M21.9924 12.9771L18.0493 11.1045L3 13.4186M3 13.4186V21.1602L6.2504 23.7788V16.0372M3 13.4186L6.2504 16.0372M3 13.4186L12.1042 7.71708M22 12.9771L12.1042 7.70947M8.36659 17.5063V21.8757M10.6807 17.0572V21.4266M12.9948 16.6157V20.9851M15.3089 16.1666V20.536M17.623 15.7175V20.0869M19.9371 15.2684V19.6378" stroke="white" stroke-linecap="round" stroke-linejoin="round"/>
</svg>
