<svg width="24" height="26" viewBox="0 0 24 26" fill="none" xmlns="http://www.w3.org/2000/svg">
<path d="M6.89812 7.11133H8.90462C9.03642 7.11133 9.16692 7.13729 9.28868 7.18772C9.41044 7.23816 9.52107 7.31208 9.61426 7.40527C9.70746 7.49846 9.78138 7.6091 9.83181 7.73086C9.88225 7.85262 9.90821 7.98312 9.90821 8.11491V10.1214H5.89453V8.11491C5.89453 7.84875 6.00027 7.59348 6.18847 7.40527C6.37668 7.21706 6.63195 7.11133 6.89812 7.11133Z" stroke="white" stroke-width="1.2" stroke-miterlimit="10" stroke-linecap="round" stroke-linejoin="round"/>
<path d="M7.89062 4V6.00651" stroke="white" stroke-width="1.2" stroke-miterlimit="10" stroke-linecap="round" stroke-linejoin="round"/>
<path d="M11.9163 17.1457V11.1255C11.9162 10.8594 11.8103 10.6043 11.6222 10.4163C11.434 10.2282 11.1788 10.1226 10.9128 10.1226H4.89257C4.62652 10.1227 4.37142 10.2285 4.18336 10.4167C3.99529 10.6049 3.88965 10.8601 3.88965 11.1261V23.1665" stroke="white" stroke-width="1.2" stroke-miterlimit="10" stroke-linecap="round" stroke-linejoin="round"/>
<path d="M18.4209 20.1533V23.1634" stroke="white" stroke-width="1.2" stroke-miterlimit="10" stroke-linecap="round" stroke-linejoin="round"/>
<path d="M20.9414 15.6424C20.9414 14.2569 19.8184 13.1338 18.4331 13.1338C17.0478 13.1338 15.9248 14.2569 15.9248 15.6424V17.6483C15.9248 19.0337 17.0478 20.1569 18.4331 20.1569C19.8184 20.1569 20.9414 19.0337 20.9414 17.6483V15.6424Z" stroke="white" stroke-width="1.2" stroke-miterlimit="10" stroke-linecap="round" stroke-linejoin="round"/>
<path d="M7.89062 20.1533H13.9108" stroke="white" stroke-width="1.2" stroke-miterlimit="10" stroke-linecap="round" stroke-linejoin="round"/>
<path d="M8.98926 23.1634V20.1533" stroke="white" stroke-width="1.2" stroke-miterlimit="10" stroke-linecap="round" stroke-linejoin="round"/>
<path d="M12.9141 23.1634V20.1533" stroke="white" stroke-width="1.2" stroke-miterlimit="10" stroke-linecap="round" stroke-linejoin="round"/>
<path d="M16.9245 9.11604C18.0326 9.11604 18.931 8.2177 18.931 7.10953C18.931 6.00137 18.0326 5.10303 16.9245 5.10303C15.8163 5.10303 14.918 6.00137 14.918 7.10953C14.918 8.2177 15.8163 9.11604 16.9245 9.11604Z" stroke="white" stroke-width="1.2" stroke-miterlimit="10" stroke-linecap="round" stroke-linejoin="round"/>
<path d="M6.39355 16.1401H9.40365" stroke="white" stroke-width="1.2" stroke-miterlimit="10" stroke-linecap="round" stroke-linejoin="round"/>
<path d="M6.39355 13.1338H9.40365" stroke="white" stroke-width="1.2" stroke-miterlimit="10" stroke-linecap="round" stroke-linejoin="round"/>
</svg>
