<svg width="18" height="18" viewBox="0 0 18 18" fill="none" xmlns="http://www.w3.org/2000/svg">
<path d="M15.9999 16.721H5.81787C4.98944 16.721 4.31787 16.0494 4.31787 15.221V2C4.31787 1.17157 4.98944 0.5 5.81787 0.5H11.7437C12.361 0.5 12.9565 0.728423 13.4155 1.14128L16.6717 4.07016C17.1989 4.54428 17.4999 5.21991 17.4999 5.92888V10.3326V15.221C17.4999 16.0494 16.8283 16.721 15.9999 16.721Z" fill="white" stroke="#FA3737"/>
<path d="M11.7593 0.577637L11.7593 4.31797C11.7593 5.42254 12.6547 6.31797 13.7593 6.31797H17.4321" stroke="#FA3737"/>
<path d="M0 6L8.18193 6H10.9092L14.182 14.1819H0L0 6Z" fill="white"/>
<path d="M11.1294 8H15.6264V9.33455H12.9169V10.289H15.2463V11.5669H12.9169V13.5647H11.1294V8Z" fill="#FA3737"/>
<path d="M7.76526 8C9.71181 8 10.6851 8.92744 10.6851 10.7823C10.6851 12.6372 9.71181 13.5647 7.76526 13.5647H5.35498V8H7.76526ZM7.14247 12.2301H7.7329C8.48241 12.2301 8.85716 11.8284 8.85716 11.025V10.5397C8.85716 9.73626 8.48241 9.33455 7.7329 9.33455H7.14247V12.2301Z" fill="#FA3737"/>
<path d="M3.12203 8C3.46713 8 3.77448 8.08088 4.04409 8.24264C4.31369 8.39902 4.52398 8.6174 4.67496 8.89779C4.82594 9.17279 4.90143 9.48283 4.90143 9.82793V9.93307C4.90143 10.2782 4.82594 10.5909 4.67496 10.8713C4.52398 11.1517 4.31369 11.3728 4.04409 11.5345C3.77448 11.6909 3.46713 11.7691 3.12203 11.7691H1.78749V13.5647H0V8H3.12203ZM1.78749 10.4669H2.52351C2.71223 10.4669 2.85243 10.4184 2.9441 10.3213C3.04115 10.2242 3.08968 10.0921 3.08968 9.92499V9.86028C3.08968 9.68773 3.04115 9.55563 2.9441 9.46396C2.85243 9.3669 2.71223 9.31837 2.52351 9.31837H1.78749V10.4669Z" fill="#FA3737"/>
</svg>
