<svg width="13" height="13" viewBox="0 0 13 13" fill="none" xmlns="http://www.w3.org/2000/svg">
<path d="M1 12L4.15814 10.7853C4.36014 10.7076 4.46114 10.6688 4.55563 10.6181C4.63957 10.573 4.71958 10.521 4.79484 10.4626C4.87957 10.3969 4.95609 10.3203 5.10913 10.1673L11.5285 3.74791C12.1572 3.11929 12.1572 2.10009 11.5285 1.47147C10.8999 0.842845 9.88072 0.842844 9.2521 1.47146L2.83269 7.89087C2.67966 8.0439 2.60314 8.12042 2.53739 8.20515C2.47899 8.28041 2.42699 8.36043 2.38193 8.44436C2.33121 8.53886 2.29236 8.63986 2.21467 8.84186L1 12ZM1 12L2.1713 8.95467C2.25511 8.73675 2.29702 8.62779 2.3689 8.57787C2.43172 8.53426 2.50945 8.51776 2.58457 8.53211C2.67053 8.54852 2.75307 8.63107 2.91817 8.79617L4.20384 10.0818C4.36894 10.2469 4.45149 10.3295 4.4679 10.4154C4.48225 10.4906 4.46575 10.5683 4.42214 10.6311C4.37223 10.703 4.26327 10.7449 4.04534 10.8287L1 12Z" stroke="black" stroke-width="1.2" stroke-linecap="round" stroke-linejoin="round"/>
</svg>
