<svg width="21" height="19" viewBox="0 0 21 19" fill="none" xmlns="http://www.w3.org/2000/svg">
<path d="M10.5 1.1237L13.0589 6.27396C13.1891 6.53589 13.4391 6.71757 13.7284 6.7604L13.8017 6.26579L13.7284 6.7604L19.4174 7.60256L15.3099 11.6278C15.1011 11.8325 15.0055 12.1264 15.0542 12.4148L16.0112 18.0856L10.9138 15.423C10.6545 15.2876 10.3455 15.2876 10.0862 15.423L4.98875 18.0856L5.94578 12.4148C5.99446 12.1264 5.89894 11.8325 5.69005 11.6278L1.58261 7.60256L7.27155 6.7604C7.56087 6.71757 7.81093 6.53589 7.94107 6.27396L10.5 1.1237ZM1.42988 7.45289C1.42994 7.45296 1.43001 7.45302 1.43008 7.45309L1.42988 7.45289ZM19.5701 7.45289L19.5699 7.45309L19.5701 7.45289Z" fill="#FFA800" stroke="#E39600"/>
</svg>
