<svg width="18" height="18" viewBox="0 0 18 18" fill="none" xmlns="http://www.w3.org/2000/svg">
<path d="M5.10176 17V8.2M1 9.8V15.4C1 16.2837 1.73457 17 2.6407 17H13.655C14.8697 17 15.9027 16.1357 16.0874 14.9649L16.9709 9.36494C17.2002 7.91112 16.0468 6.6 14.5384 6.6H11.6646C11.2115 6.6 10.8442 6.24183 10.8442 5.8V2.97267C10.8442 1.8832 9.93857 1 8.82137 1C8.5549 1 8.31343 1.15304 8.2052 1.3905L5.31829 7.72491C5.18662 8.01381 4.89283 8.2 4.56864 8.2H2.6407C1.73457 8.2 1 8.91634 1 9.8Z" stroke="#222222" stroke-width="1.03247" stroke-linecap="round" stroke-linejoin="round"/>
</svg>
