<svg width="19" height="18" viewBox="0 0 19 18" fill="none" xmlns="http://www.w3.org/2000/svg">
<path d="M16.0274 16.72H5.84619C5.01776 16.72 4.34619 16.0484 4.34619 15.22V2C4.34619 1.17157 5.01777 0.5 5.84619 0.5H11.7714C12.3888 0.5 12.9843 0.728423 13.4433 1.14128L16.6992 4.06989C17.2263 4.54401 17.5274 5.21964 17.5274 5.92861V10.332V15.22C17.5274 16.0484 16.8558 16.72 16.0274 16.72Z" fill="white" stroke="#F47A18"/>
<path d="M11.7881 0.578125L11.7881 4.31812C11.7881 5.42269 12.6835 6.31812 13.7881 6.31812H17.4606" stroke="#F47A18"/>
<path d="M0.0283203 6L8.20977 6H10.9369L14.2095 14.1814H0.0283203L0.0283203 6Z" fill="white"/>
<path d="M13.3646 9.12064V13.4219H11.7588V9.12064H10.1167V7.64209H14.9995V9.12064H13.3646Z" fill="#F47A18"/>
<path d="M8.04884 7.64209C8.35886 7.64209 8.63497 7.7261 8.87717 7.89412C9.11938 8.05653 9.30829 8.28336 9.44393 8.57458C9.57956 8.86021 9.64738 9.18225 9.64738 9.54068V9.64989C9.64738 10.0083 9.57956 10.3332 9.44393 10.6244C9.30829 10.9156 9.11938 11.1452 8.87717 11.3133C8.63497 11.4757 8.35886 11.5569 8.04884 11.5569H6.84994V13.4219H5.24414V7.64209H8.04884ZM6.84994 10.2044H7.51115C7.68069 10.2044 7.80664 10.1539 7.88899 10.0531C7.97618 9.95232 8.01978 9.81511 8.01978 9.64149V9.57429C8.01978 9.39507 7.97618 9.25785 7.88899 9.16264C7.80664 9.06183 7.68069 9.01143 7.51115 9.01143H6.84994V10.2044Z" fill="#F47A18"/>
<path d="M2.8047 7.64209C3.11472 7.64209 3.39083 7.7261 3.63303 7.89412C3.87523 8.05653 4.06415 8.28336 4.19979 8.57458C4.33542 8.86021 4.40323 9.18225 4.40323 9.54068V9.64989C4.40323 10.0083 4.33542 10.3332 4.19979 10.6244C4.06415 10.9156 3.87523 11.1452 3.63303 11.3133C3.39083 11.4757 3.11472 11.5569 2.8047 11.5569H1.6058V13.4219H0V7.64209H2.8047ZM1.6058 10.2044H2.26701C2.43655 10.2044 2.5625 10.1539 2.64485 10.0531C2.73204 9.95232 2.77564 9.81511 2.77564 9.64149V9.57429C2.77564 9.39507 2.73204 9.25785 2.64485 9.16264C2.5625 9.06183 2.43655 9.01143 2.26701 9.01143H1.6058V10.2044Z" fill="#F47A18"/>
</svg>
