<svg width="20" height="20" viewBox="0 0 20 20" fill="none" xmlns="http://www.w3.org/2000/svg">
<path d="M6.10176 18V9.2M2 10.8V16.4C2 17.2837 2.73457 18 3.6407 18H14.655C15.8697 18 16.9027 17.1357 17.0874 15.9649L17.9709 10.3649C18.2002 8.91112 17.0468 7.6 15.5384 7.6H12.6646C12.2115 7.6 11.8442 7.24183 11.8442 6.8V3.97267C11.8442 2.8832 10.9386 2 9.82137 2C9.5549 2 9.31343 2.15304 9.2052 2.3905L6.31829 8.72491C6.18662 9.01381 5.89283 9.2 5.56864 9.2H3.6407C2.73457 9.2 2 9.91634 2 10.8Z" stroke="#222222" stroke-width="1.6" stroke-linecap="round" stroke-linejoin="round"/>
</svg>
