<svg width="20" height="20" viewBox="0 0 20 20" fill="none" xmlns="http://www.w3.org/2000/svg">
<path d="M6.69961 6.2C7.85941 6.2 8.79961 5.2598 8.79961 4.1C8.79961 2.9402 7.85941 2 6.69961 2C5.53981 2 4.59961 2.9402 4.59961 4.1C4.59961 5.2598 5.53981 6.2 6.69961 6.2Z" stroke="#3957D3" stroke-width="1.61053" stroke-linecap="round" stroke-linejoin="round"/>
<path d="M1 2.99503C0.555265 2.99503 0.194737 3.35556 0.194737 3.80029C0.194737 4.24503 0.555265 4.60556 1 4.60556V2.99503ZM5.5 2.99503H1V4.60556H5.5V2.99503Z" fill="#3957D3"/>
<path d="M18.9996 3.80029H9.09961" stroke="#3957D3" stroke-width="1.61053" stroke-linecap="round"/>
<path d="M6.69961 18.2C7.85941 18.2 8.79961 17.2598 8.79961 16.1C8.79961 14.9402 7.85941 14 6.69961 14C5.53981 14 4.59961 14.9402 4.59961 16.1C4.59961 17.2598 5.53981 18.2 6.69961 18.2Z" stroke="#3957D3" stroke-width="1.61053" stroke-linecap="round" stroke-linejoin="round"/>
<path d="M1 14.9936C0.555265 14.9936 0.194737 15.3541 0.194737 15.7988C0.194737 16.2436 0.555265 16.6041 1 16.6041V14.9936ZM5.5 14.9936H1V16.6041H5.5V14.9936Z" fill="#3957D3"/>
<path d="M18.9996 15.7988H9.09961" stroke="#3957D3" stroke-width="1.61053" stroke-linecap="round"/>
<path d="M13.3004 12.1399C12.1406 12.1399 11.2004 11.1997 11.2004 10.0399C11.2004 8.88014 12.1406 7.93994 13.3004 7.93994C14.4602 7.93994 15.4004 8.88014 15.4004 10.0399C15.4004 11.1997 14.4602 12.1399 13.3004 12.1399Z" stroke="#3957D3" stroke-width="1.61053" stroke-linecap="round" stroke-linejoin="round"/>
<path d="M19 8.93497C19.4447 8.93497 19.8053 9.2955 19.8053 9.74023C19.8053 10.185 19.4447 10.5455 19 10.5455V8.93497ZM14.5 8.93497H19V10.5455H14.5V8.93497Z" fill="#3957D3"/>
<path d="M1.00039 9.74023H10.9004" stroke="#3957D3" stroke-width="1.61053" stroke-linecap="round"/>
</svg>
