<svg width="35" height="35" viewBox="0 0 35 35" fill="none" xmlns="http://www.w3.org/2000/svg">
<circle cx="17.5" cy="17.5" r="17.0732" fill="#F1F3F4" stroke="#EAEAEA" stroke-width="0.853659"/>
<rect x="15" y="15" width="13" height="13" rx="2.56098" fill="#1743BB"/>
<path d="M24.7158 24.6807C24.8002 24.373 24.6313 24.0516 24.3385 23.9631C23.6258 23.7473 22.9635 23.4137 22.3549 22.966C22.7422 22.5648 23.1029 22.1182 23.4324 21.6306C24.0031 20.7859 24.3523 20.0087 24.5298 19.5586H25.4484C25.7531 19.5586 26 19.2991 26 18.9789C26 18.6586 25.7531 18.3991 25.4484 18.3991H24.1725C24.1565 18.3983 24.1407 18.3983 24.1249 18.3991H22.0517V17.5797C22.0517 17.2595 21.8048 17 21.5001 17C21.1954 17 20.9485 17.2595 20.9485 17.5797V18.3991H18.8534C18.8492 18.3991 18.845 18.3991 18.8407 18.3991H17.5516C17.2469 18.3991 17 18.6586 17 18.9789C17 19.2991 17.2469 19.5586 17.5516 19.5586H18.4702C18.6477 20.0087 18.9969 20.7859 19.5676 21.6306C19.8971 22.1182 20.2579 22.5648 20.6451 22.966C20.0365 23.4139 19.3742 23.7473 18.6615 23.9631C18.3687 24.0518 18.1998 24.373 18.2842 24.6807C18.3539 24.9348 18.5743 25.1 18.8139 25.1C18.8645 25.1 18.9159 25.0927 18.9669 25.0772C19.878 24.8012 20.7291 24.3525 21.4997 23.7426C22.2705 24.3525 23.1215 24.8012 24.0326 25.0772C24.0837 25.0927 24.135 25.1 24.1855 25.1C24.4251 25.1 24.6456 24.9348 24.7153 24.6807H24.7158ZM20.4879 20.9892C20.1249 20.4566 19.8603 19.9499 19.6803 19.5584H23.3201C23.14 19.9501 22.8755 20.4566 22.5125 20.9892C22.1994 21.4488 21.8614 21.861 21.5001 22.2252C21.1388 21.8608 20.8008 21.4488 20.4877 20.9892H20.4879Z" fill="white"/>
<rect x="8" y="8" width="12.8049" height="12.8049" rx="2.25968" fill="#07C55F"/>
<path d="M16.9835 10.3322V13.6037H18.1928V14.5879H16.9835V18.8436H15.7837V10.3322H16.9835ZM14.7057 11.204C14.6963 13.7536 13.7027 15.9659 10.8343 17.372L10.1594 16.4533C12.1794 15.4409 13.2621 14.0817 13.4871 12.1788H10.6468V11.204H14.7057Z" fill="white"/>
</svg>
