<svg width="17" height="17" viewBox="0 0 17 17" fill="none" xmlns="http://www.w3.org/2000/svg">
<circle cx="8.5" cy="8.5" r="8.5" fill="#EAEAEA"/>
<path d="M5.6875 7.5V5.8125C5.6875 4.2592 6.9467 3 8.5 3C9.86066 3 10.9957 3.96624 11.2562 5.25M6.7 13.125H10.3C11.2451 13.125 11.7176 13.125 12.0786 12.9411C12.3961 12.7793 12.6543 12.5211 12.8161 12.2036C13 11.8426 13 11.3701 13 10.425V10.2C13 9.25491 13 8.78237 12.8161 8.42139C12.6543 8.10387 12.3961 7.84571 12.0786 7.68393C11.7176 7.5 11.2451 7.5 10.3 7.5H6.7C5.75491 7.5 5.28237 7.5 4.92139 7.68393C4.60387 7.84571 4.34571 8.10387 4.18393 8.42139C4 8.78237 4 9.25491 4 10.2V10.425C4 11.3701 4 11.8426 4.18393 12.2036C4.34571 12.5211 4.60387 12.7793 4.92139 12.9411C5.28237 13.125 5.75491 13.125 6.7 13.125Z" stroke="black" stroke-width="1.125" stroke-linecap="round" stroke-linejoin="round"/>
</svg>
