<svg width="18" height="17" viewBox="0 0 18 17" fill="none" xmlns="http://www.w3.org/2000/svg">
<path d="M8.39115 1.68744C8.58677 1.29773 8.68458 1.10288 8.81736 1.04062C8.93289 0.986459 9.06711 0.986459 9.18264 1.04062C9.31542 1.10288 9.41323 1.29773 9.60885 1.68744L11.4648 5.38467C11.5225 5.49972 11.5514 5.55725 11.5936 5.60191C11.631 5.64145 11.6758 5.6735 11.7255 5.69626C11.7818 5.72196 11.8463 5.73124 11.9754 5.7498L16.1268 6.34648C16.564 6.40931 16.7825 6.44073 16.8837 6.54572C16.9717 6.63707 17.0131 6.7626 16.9963 6.88735C16.9771 7.03074 16.8188 7.1823 16.5024 7.48543L13.4995 10.3615C13.4059 10.4511 13.3591 10.496 13.3289 10.5493C13.3022 10.5965 13.285 10.6484 13.2784 10.7021C13.2709 10.7627 13.282 10.826 13.304 10.9526L14.0126 15.0149C14.0873 15.4434 14.1247 15.6576 14.0545 15.7848C13.9934 15.8954 13.8848 15.9729 13.7589 15.9959C13.6142 16.0223 13.4186 15.9211 13.0273 15.7187L9.31604 13.7995C9.2004 13.7397 9.14258 13.7098 9.08167 13.6981C9.02774 13.6877 8.97226 13.6877 8.91833 13.6981C8.85742 13.7098 8.7996 13.7397 8.68397 13.7995L4.97268 15.7187C4.5814 15.9211 4.38577 16.0223 4.24111 15.9959C4.11525 15.9729 4.00665 15.8954 3.94555 15.7848C3.87533 15.6576 3.91269 15.4434 3.98742 15.0149L4.69596 10.9526C4.71805 10.826 4.72909 10.7627 4.72162 10.7021C4.715 10.6484 4.69785 10.5965 4.67111 10.5493C4.6409 10.496 4.5941 10.4511 4.50049 10.3615L1.49765 7.48543C1.18116 7.1823 1.02291 7.03074 1.00366 6.88735C0.986902 6.7626 1.02829 6.63707 1.1163 6.54572C1.21746 6.44073 1.43604 6.40931 1.8732 6.34648L6.02459 5.7498C6.15369 5.73124 6.21824 5.72196 6.27446 5.69626C6.32423 5.6735 6.36905 5.64145 6.40641 5.60191C6.44861 5.55725 6.47749 5.49972 6.53524 5.38467L8.39115 1.68744Z" fill="#EFEFEF" stroke="#9D9D9D" stroke-linecap="round" stroke-linejoin="round"/>
</svg>
