<svg width="20" height="20" viewBox="0 0 20 20" fill="none" xmlns="http://www.w3.org/2000/svg">
<path d="M9.85309 2.73327C10.0609 2.31758 10.1649 2.10974 10.3059 2.04333C10.4287 1.98556 10.5713 1.98556 10.6941 2.04333C10.8351 2.10974 10.9391 2.31758 11.1469 2.73327L13.1188 6.67698C13.1802 6.7997 13.2109 6.86106 13.2557 6.9087C13.2954 6.95088 13.343 6.98506 13.3959 7.00934C13.4556 7.03676 13.5242 7.04666 13.6614 7.06645L18.0722 7.70291C18.5367 7.76993 18.7689 7.80344 18.8764 7.91544C18.9699 8.01288 19.0139 8.14677 18.9961 8.27984C18.9757 8.43279 18.8075 8.59446 18.4713 8.91779L15.2807 11.9856C15.1813 12.0812 15.1315 12.129 15.0995 12.1859C15.071 12.2363 15.0528 12.2916 15.0458 12.3489C15.0378 12.4135 15.0496 12.4811 15.073 12.6161L15.8259 16.9493C15.9053 17.4063 15.945 17.6348 15.8704 17.7704C15.8054 17.8884 15.6901 17.9711 15.5563 17.9956C15.4026 18.0237 15.1948 17.9158 14.779 17.7L10.8358 15.6528C10.7129 15.589 10.6515 15.5571 10.5868 15.5446C10.5295 15.5335 10.4705 15.5335 10.4132 15.5446C10.3485 15.5571 10.2871 15.589 10.1642 15.6528L6.22097 17.7C5.80524 17.9158 5.59738 18.0237 5.44368 17.9956C5.30995 17.9711 5.19456 17.8884 5.12965 17.7704C5.05504 17.6348 5.09474 17.4063 5.17414 16.9493L5.92695 12.6161C5.95042 12.4811 5.96216 12.4135 5.95422 12.3489C5.94719 12.2916 5.92896 12.2363 5.90055 12.1859C5.86846 12.129 5.81873 12.0812 5.71927 11.9856L2.52875 8.91779C2.19248 8.59446 2.02434 8.43279 2.00388 8.27984C1.98608 8.14677 2.03006 8.01288 2.12357 7.91544C2.23105 7.80344 2.46329 7.76993 2.92777 7.70291L7.33862 7.06645C7.4758 7.04666 7.54438 7.03676 7.60411 7.00934C7.657 6.98506 7.70461 6.95088 7.74431 6.9087C7.78915 6.86106 7.81983 6.7997 7.88119 6.67698L9.85309 2.73327Z" fill="#FFAC2F" stroke="#DC8D16" stroke-width="1.6" stroke-linecap="round" stroke-linejoin="round"/>
</svg>
