<svg width="21" height="21" viewBox="0 0 21 21" fill="none" xmlns="http://www.w3.org/2000/svg">
<path d="M6.8 18V3.25432M6.26667 3C4.77319 3 4.02646 3 3.45603 3.25432C2.95426 3.47802 2.54631 3.83498 2.29065 4.27402C2 4.77315 2 5.42654 2 6.73333V14.2667C2 15.5735 2 16.2269 2.29065 16.726C2.54631 17.165 2.95426 17.522 3.45603 17.7457C4.02646 18 4.77319 18 6.26667 18H13.7333C15.2268 18 15.9735 18 16.544 17.7457C17.0457 17.522 17.4537 17.165 17.7094 16.726C18 16.2269 18 15.5735 18 14.2667V6.73333C18 5.42654 18 4.77315 17.7094 4.27402C17.4537 3.83498 17.0457 3.47802 16.544 3.25432C15.9735 3 15.2268 3 13.7333 3L5.66667 3H6.13333H6H5.73333L6.26667 3Z" stroke="black" stroke-width="1.2" stroke-linecap="round" stroke-linejoin="round"/>
<path d="M17.9999 6.61816L18 5.98268C18 4.58878 18 4.89183 17.7094 4.35943C17.4537 3.89112 17.0457 3.51037 16.544 3.27176C15.9736 3.00049 15.2268 3.00049 13.7334 3.00049H6.26676C4.7733 3.00049 4.02657 3.00049 3.45614 3.27176C2.95438 3.51037 2.54644 3.89112 2.29078 4.35943C2.00013 4.89183 2.00013 4.58878 2.00013 5.98268L2 6.61816L17.9999 6.61816Z" fill="black"/>
</svg>
