<svg width="17" height="16" viewBox="0 0 17 16" fill="none" xmlns="http://www.w3.org/2000/svg">
<path fill-rule="evenodd" clip-rule="evenodd" d="M14.0645 13.2174C14.0645 13.6496 13.7396 14 13.3387 14H1.72581C1.32496 14 1 13.6496 1 13.2174C1 12.7852 1.32496 12.4348 1.72581 12.4348H13.3387C13.7396 12.4348 14.0645 12.7852 14.0645 13.2174ZM16 8C16 8.43222 15.675 8.78261 15.2742 8.78261H1.72581C1.32496 8.78261 1 8.43222 1 8C1 7.56778 1.32496 7.21739 1.72581 7.21739H15.2742C15.675 7.21739 16 7.56778 16 8ZM10.5161 2.78261C10.5161 3.21483 10.1912 3.56522 9.79032 3.56522H1.72581C1.32496 3.56522 1 3.21483 1 2.78261C1 2.35039 1.32496 2 1.72581 2H9.79032C10.1912 2 10.5161 2.35039 10.5161 2.78261Z" fill="#B1B1B1"/>
</svg>
