<svg width="18" height="18" viewBox="0 0 18 18" fill="none" xmlns="http://www.w3.org/2000/svg">
<path d="M16.0874 14.9649C15.9027 16.1357 14.8697 17 13.655 17H2.6407C1.73457 17 1 16.2837 1 15.4V9.8C1 8.91634 1.73457 8.2 2.6407 8.2H4.56864C4.89283 8.2 5.18662 8.01381 5.31828 7.72491L8.2052 1.3905C8.31343 1.15304 8.5549 1 8.82137 1C9.93857 1 10.8442 1.8832 10.8442 2.97267V5.8C10.8442 6.24183 11.2115 6.6 11.6646 6.6H14.5384C16.0468 6.6 17.2002 7.91112 16.9709 9.36494L16.0874 14.9649Z" fill="#FFB524"/>
<path d="M5.10176 17V8.2M1 9.8V15.4C1 16.2837 1.73457 17 2.6407 17H13.655C14.8697 17 15.9027 16.1357 16.0874 14.9649L16.9709 9.36494C17.2002 7.91112 16.0468 6.6 14.5384 6.6H11.6646C11.2115 6.6 10.8442 6.24183 10.8442 5.8V2.97267C10.8442 1.8832 9.93857 1 8.82137 1C8.5549 1 8.31343 1.15304 8.2052 1.3905L5.31829 7.72491C5.18662 8.01381 4.89283 8.2 4.56864 8.2H2.6407C1.73457 8.2 1 8.91634 1 9.8Z" stroke="#EB8F06" stroke-width="1.3" stroke-linecap="round" stroke-linejoin="round"/>
</svg>
