<svg width="20" height="20" viewBox="0 0 20 20" fill="none" xmlns="http://www.w3.org/2000/svg">
<path d="M18 10C18 14.4183 14.4183 18 10 18C8.93587 18 7.92027 17.7922 6.99155 17.4151L6.99147 17.415C6.81378 17.3429 6.72492 17.3068 6.65308 17.2907C6.58281 17.2749 6.5308 17.2692 6.45878 17.2691C6.38516 17.2691 6.30497 17.2825 6.14458 17.3092L2.98201 17.8363C2.65083 17.8915 2.48524 17.9191 2.3655 17.8678C2.2607 17.8228 2.17718 17.7393 2.13223 17.6345C2.08087 17.5148 2.10847 17.3492 2.16367 17.018L2.69076 13.8554C2.71749 13.695 2.73086 13.6148 2.73085 13.5412C2.73084 13.4692 2.72508 13.4172 2.70933 13.3469C2.69323 13.2751 2.65713 13.1862 2.58495 13.0085L2.58494 13.0085C2.20777 12.0797 2 11.0641 2 10C2 5.58172 5.58172 2 10 2C14.4183 2 18 5.58172 18 10Z" fill="#E3E3E3" stroke="#727272" stroke-width="1.5" stroke-linecap="round" stroke-linejoin="round"/>
<path d="M7 8H10.5556M7 11.1111H13.2222" stroke="#727272" stroke-width="1.6" stroke-linecap="round" stroke-linejoin="round"/>
</svg>
