<svg width="17" height="17" viewBox="0 0 17 17" fill="none" xmlns="http://www.w3.org/2000/svg">
<circle cx="8.5" cy="8.5" r="8.5" fill="#E5F1FF"/>
<path d="M6.96875 8.53289L8.15625 9.70611L10.8281 7.06637M13.5 8.8262C13.5 11.7055 10.3211 13.7997 9.16443 14.4664C9.03298 14.5421 8.96726 14.58 8.8745 14.5997C8.80251 14.6149 8.69749 14.6149 8.6255 14.5997C8.53274 14.58 8.46702 14.5421 8.33557 14.4664C7.17891 13.7997 4 11.7055 4 8.8262V6.0208C4 5.5518 4 5.3173 4.07764 5.11572C4.14623 4.93765 4.25768 4.77876 4.40236 4.65279C4.56614 4.51019 4.78838 4.42785 5.23287 4.26317L8.41643 3.08369C8.53987 3.03796 8.60159 3.01509 8.66508 3.00603C8.7214 2.99799 8.7786 2.99799 8.83492 3.00603C8.89841 3.01509 8.96013 3.03796 9.08357 3.08369L12.2671 4.26317C12.7116 4.42785 12.9339 4.51019 13.0976 4.65279C13.2423 4.77876 13.3538 4.93765 13.4224 5.11572C13.5 5.3173 13.5 5.5518 13.5 6.0208V8.8262Z" stroke="#3965D7" stroke-width="1.2" stroke-linecap="round" stroke-linejoin="round"/>
</svg>
