<svg width="20" height="20" viewBox="0 0 20 20" fill="none" xmlns="http://www.w3.org/2000/svg">
<path d="M19.0653 15.0798L15.6444 12.4312C16.645 10.8092 16.9865 8.865 16.5986 6.99848C16.2107 5.13196 15.123 3.48496 13.5591 2.39614C11.9952 1.30731 10.074 0.859431 8.19051 1.14458C6.30701 1.42973 4.6044 2.42624 3.43278 3.92921C2.26115 5.43218 1.70956 7.32736 1.89142 9.22507C2.07328 11.1228 2.97477 12.8788 4.41053 14.132C5.84628 15.3852 7.70718 16.0403 9.61056 15.9628C11.5139 15.8852 13.3152 15.0807 14.6438 13.7148L18.04 16.3665C18.1259 16.4341 18.2243 16.484 18.3296 16.5134C18.4348 16.5427 18.5448 16.551 18.6533 16.5376C18.7617 16.5242 18.8664 16.4894 18.9613 16.4354C19.0563 16.3813 19.1396 16.3089 19.2064 16.2224C19.3355 16.0509 19.393 15.8358 19.3666 15.6226C19.3403 15.4095 19.2323 15.2148 19.0653 15.0798ZM10.0359 14.2839C8.89874 14.4243 7.74543 14.2241 6.72183 13.7086C5.69823 13.1932 4.8503 12.3855 4.28528 11.3879C3.72026 10.3902 3.46351 9.24732 3.54752 8.10376C3.63153 6.9602 4.05251 5.86731 4.75723 4.96329C5.46194 4.05928 6.41875 3.38474 7.50665 3.02498C8.59454 2.66523 9.76467 2.6364 10.8691 2.94216C11.9735 3.24792 12.9625 3.87452 13.7111 4.74274C14.4598 5.61095 14.9344 6.68178 15.0749 7.81981C15.2634 9.34587 14.8384 10.8842 13.8934 12.0965C12.9484 13.3087 11.5608 14.0955 10.0359 14.2839Z" fill="black" stroke="black" stroke-width="0.4"/>
</svg>
