<svg width="9" height="9" viewBox="0 0 9 9" fill="none" xmlns="http://www.w3.org/2000/svg">
<path fill-rule="evenodd" clip-rule="evenodd" d="M3.93219 4.7779L0.235569 1.29271C-0.0785229 0.996583 -0.0785229 0.518224 0.235569 0.222096C0.54966 -0.0740314 1.05704 -0.0740314 1.37113 0.222096L4.50399 3.16819L7.6288 0.222096C7.9429 -0.0740314 8.45027 -0.0740314 8.76437 0.222096C9.07846 0.518224 9.07846 0.996583 8.76437 1.29271L5.06775 4.7779C4.76171 5.07403 4.24628 5.07403 3.93219 4.7779Z" fill="#222222"/>
<path fill-rule="evenodd" clip-rule="evenodd" d="M5.06781 4.2221L8.76443 7.70729C9.07852 8.00342 9.07852 8.48178 8.76443 8.7779C8.45034 9.07403 7.94296 9.07403 7.62887 8.7779L4.49601 5.83181L1.3712 8.7779C1.05711 9.07403 0.549726 9.07403 0.235634 8.7779C-0.0784574 8.48178 -0.0784575 8.00342 0.235634 7.70729L3.93225 4.2221C4.23829 3.92597 4.75372 3.92597 5.06781 4.2221Z" fill="#222222"/>
</svg>
