<svg width="17" height="17" viewBox="0 0 17 17" fill="none" xmlns="http://www.w3.org/2000/svg">
<mask id="path-1-inside-1_485_8508" fill="white">
<path fill-rule="evenodd" clip-rule="evenodd" d="M7.82173 3.0332C7.82173 2.48092 7.37402 2.0332 6.82173 2.0332H3C2.44772 2.0332 2 2.48092 2 3.0332V6.9101C2 7.46239 2.44772 7.9101 3 7.9101H6.82173C7.37402 7.9101 7.82173 7.46239 7.82173 6.91011V3.0332ZM7.82173 10.1582C7.82173 9.60592 7.37402 9.15821 6.82173 9.15821H3C2.44772 9.15821 2 9.60592 2 10.1582V14.0351C2 14.5874 2.44772 15.0351 3 15.0351H6.82173C7.37402 15.0351 7.82173 14.5874 7.82173 14.0351V10.1582ZM9.05642 3.0332C9.05642 2.48092 9.50414 2.0332 10.0564 2.0332H14.0001C14.5524 2.0332 15.0001 2.48092 15.0001 3.0332V7.0332C15.0001 7.58549 14.5524 8.0332 14.0001 8.0332H10.0564C9.50414 8.0332 9.05642 7.58549 9.05642 7.0332V3.0332ZM14.8782 10.1582C14.8782 9.60592 14.4304 9.1582 13.8782 9.1582H10.0564C9.50414 9.1582 9.05642 9.60592 9.05642 10.1582V14.0351C9.05642 14.5874 9.50414 15.0351 10.0564 15.0351H13.8782C14.4304 15.0351 14.8782 14.5874 14.8782 14.0351V10.1582Z"/>
</mask>
<path d="M3 3.0332H6.82173V1.0332H3V3.0332ZM3 6.9101V3.0332H1V6.9101H3ZM6.82173 6.9101H3V8.9101H6.82173V6.9101ZM6.82173 3.0332V6.91011H8.82173V3.0332H6.82173ZM3 10.1582H6.82173V8.15821H3V10.1582ZM3 14.0351V10.1582H1V14.0351H3ZM6.82173 14.0351H3V16.0351H6.82173V14.0351ZM6.82173 10.1582V14.0351H8.82173V10.1582H6.82173ZM14.0001 1.0332H10.0564V3.0332H14.0001V1.0332ZM16.0001 7.0332V3.0332H14.0001V7.0332H16.0001ZM10.0564 9.0332H14.0001V7.0332H10.0564V9.0332ZM8.05642 3.0332V7.0332H10.0564V3.0332H8.05642ZM10.0564 10.1582H13.8782V8.1582H10.0564V10.1582ZM10.0564 14.0351V10.1582H8.05642V14.0351H10.0564ZM13.8782 14.0351H10.0564V16.0351H13.8782V14.0351ZM13.8782 10.1582V14.0351H15.8782V10.1582H13.8782ZM13.8782 16.0351C14.9827 16.0351 15.8782 15.1397 15.8782 14.0351H13.8782V14.0351V16.0351ZM8.05642 14.0351C8.05642 15.1397 8.95186 16.0351 10.0564 16.0351V14.0351H10.0564H8.05642ZM13.8782 10.1582H13.8782H15.8782C15.8782 9.05363 14.9827 8.1582 13.8782 8.1582V10.1582ZM10.0564 8.1582C8.95186 8.1582 8.05642 9.05363 8.05642 10.1582H10.0564V10.1582V8.1582ZM10.0564 7.0332H8.05642C8.05642 8.13777 8.95185 9.0332 10.0564 9.0332V7.0332ZM14.0001 7.0332H14.0001V9.0332C15.1047 9.0332 16.0001 8.13777 16.0001 7.0332H14.0001ZM10.0564 1.0332C8.95185 1.0332 8.05642 1.92863 8.05642 3.0332H10.0564H10.0564V1.0332ZM14.0001 3.0332V3.0332H16.0001C16.0001 1.92863 15.1047 1.0332 14.0001 1.0332V3.0332ZM6.82173 16.0351C7.9263 16.0351 8.82173 15.1397 8.82173 14.0351H6.82173V14.0351V16.0351ZM1 14.0351C1 15.1397 1.89543 16.0351 3 16.0351V14.0351H3H1ZM6.82173 10.1582H6.82173H8.82173C8.82173 9.05364 7.9263 8.15821 6.82173 8.15821V10.1582ZM3 8.15821C1.89543 8.15821 1 9.05363 1 10.1582H3H3V8.15821ZM6.82173 8.9101C7.9263 8.9101 8.82173 8.01468 8.82173 6.91011H6.82173V6.9101V8.9101ZM1 6.9101C1 8.01467 1.89543 8.9101 3 8.9101V6.9101H3H1ZM6.82173 3.0332H6.82173H8.82173C8.82173 1.92863 7.9263 1.0332 6.82173 1.0332V3.0332ZM3 1.0332C1.89543 1.0332 1 1.92863 1 3.0332H3L3 3.0332V1.0332Z" fill="#B1B1B1" mask="url(#path-1-inside-1_485_8508)"/>
</svg>
