<svg width="20" height="12" viewBox="0 0 20 12" fill="none" xmlns="http://www.w3.org/2000/svg">
<path d="M9.99876 10.9973C5.21477 10.9973 1.42073 6.50431 1.26234 6.31284C1.11029 6.12996 1.11029 5.86465 1.26234 5.68177C1.42073 5.49299 5.21477 1 9.99876 1C14.7828 1 18.5768 5.49299 18.7377 5.68447C18.8897 5.86735 18.8897 6.13265 18.7377 6.31553C18.5793 6.50701 14.7852 11 9.99876 11V10.9973ZM3.07542 5.12331C2.55438 5.59515 2.5547 6.3991 3.07555 6.87115C4.50615 8.16775 7.09292 10.0615 10.0012 10.0615C12.9086 10.0615 15.4946 8.17066 16.9255 6.8748C17.447 6.4025 17.447 5.5975 16.9255 5.12519C15.4946 3.82934 12.9086 1.93851 10.0012 1.93851C7.0935 1.93851 4.50565 3.82816 3.07542 5.12331Z" fill="#444444" stroke="#444444" stroke-width="0.4"/>
<path d="M12.9994 5.99992C12.9994 7.65602 11.6557 8.99983 9.99972 8.99983C8.34372 8.99983 7 7.65602 7 5.99992C7 4.34381 8.34372 3 9.99972 3C11.6557 3 12.9994 4.34381 12.9994 5.99992Z" fill="#444444"/>
<path d="M13 4.5C13 5.32808 12.3281 6 11.5 6C10.6719 6 10 5.32808 10 4.5C10 3.67192 10.6719 3 11.5 3C12.3281 3 13 3.67192 13 4.5Z" fill="white"/>
</svg>
