<svg width="33" height="30" viewBox="0 0 33 30" fill="none" xmlns="http://www.w3.org/2000/svg">
<rect x="-0.5" y="0.5" width="32" height="29" rx="14.5" transform="matrix(-1 0 0 1 32 0)" fill="white" stroke="#E1E1E8"/>
<path d="M15.8531 7.73327C16.0609 7.31758 16.1649 7.10974 16.3059 7.04333C16.4287 6.98556 16.5713 6.98556 16.6941 7.04333C16.8351 7.10974 16.9391 7.31758 17.1469 7.73327L19.1188 11.677C19.1802 11.7997 19.2109 11.8611 19.2557 11.9087C19.2954 11.9509 19.343 11.9851 19.3959 12.0093C19.4556 12.0368 19.5242 12.0467 19.6614 12.0665L24.0722 12.7029C24.5367 12.7699 24.7689 12.8034 24.8764 12.9154C24.9699 13.0129 25.0139 13.1468 24.9961 13.2798C24.9757 13.4328 24.8075 13.5945 24.4713 13.9178L21.2807 16.9856C21.1813 17.0812 21.1315 17.129 21.0995 17.1859C21.071 17.2363 21.0528 17.2916 21.0458 17.3489C21.0378 17.4135 21.0496 17.4811 21.073 17.6161L21.8259 21.9493C21.9053 22.4063 21.945 22.6348 21.8704 22.7704C21.8054 22.8884 21.6901 22.9711 21.5563 22.9956C21.4026 23.0237 21.1948 22.9158 20.779 22.7L16.8358 20.6528C16.7129 20.589 16.6515 20.5571 16.5868 20.5446C16.5295 20.5335 16.4705 20.5335 16.4132 20.5446C16.3485 20.5571 16.2871 20.589 16.1642 20.6528L12.221 22.7C11.8052 22.9158 11.5974 23.0237 11.4437 22.9956C11.31 22.9711 11.1946 22.8884 11.1296 22.7704C11.055 22.6348 11.0947 22.4063 11.1741 21.9493L11.927 17.6161C11.9504 17.4811 11.9622 17.4135 11.9542 17.3489C11.9472 17.2916 11.929 17.2363 11.9005 17.1859C11.8685 17.129 11.8187 17.0812 11.7193 16.9856L8.52875 13.9178C8.19248 13.5945 8.02434 13.4328 8.00388 13.2798C7.98608 13.1468 8.03006 13.0129 8.12357 12.9154C8.23105 12.8034 8.46329 12.7699 8.92777 12.7029L13.3386 12.0665C13.4758 12.0467 13.5444 12.0368 13.6041 12.0093C13.657 11.9851 13.7046 11.9509 13.7443 11.9087C13.7891 11.8611 13.8198 11.7997 13.8812 11.677L15.8531 7.73327Z" fill="#FFAC2F" stroke="#DC8D16" stroke-width="1.6" stroke-linecap="round" stroke-linejoin="round"/>
</svg>
