<svg width="17" height="17" viewBox="0 0 17 17" fill="none" xmlns="http://www.w3.org/2000/svg">
<circle cx="8.5" cy="8.5" r="8.5" fill="#FAECEC"/>
<path d="M11.1562 7.4375V5.84375C11.1562 4.37674 9.96701 3.1875 8.5 3.1875C7.03299 3.1875 5.84375 4.37674 5.84375 5.84375V7.4375M6.8 12.75H10.2C11.0926 12.75 11.5389 12.75 11.8798 12.5763C12.1797 12.4235 12.4235 12.1797 12.5763 11.8798C12.75 11.5389 12.75 11.0926 12.75 10.2V9.9875C12.75 9.09492 12.75 8.64862 12.5763 8.3077C12.4235 8.00782 12.1797 7.76401 11.8798 7.61121C11.5389 7.4375 11.0926 7.4375 10.2 7.4375H6.8C5.90742 7.4375 5.46112 7.4375 5.1202 7.61121C4.82032 7.76401 4.57651 8.00782 4.42371 8.3077C4.25 8.64862 4.25 9.09492 4.25 9.9875V10.2C4.25 11.0926 4.25 11.5389 4.42371 11.8798C4.57651 12.1797 4.82032 12.4235 5.1202 12.5763C5.46112 12.75 5.90742 12.75 6.8 12.75Z" stroke="#E15C6F" stroke-width="1.0625" stroke-linecap="round" stroke-linejoin="round"/>
</svg>
