<svg width="15" height="15" viewBox="0 0 15 15" fill="none" xmlns="http://www.w3.org/2000/svg">
<path d="M13.5078 7.25391C13.5078 10.7078 10.7078 13.5078 7.25391 13.5078C6.42204 13.5078 5.6281 13.3454 4.90208 13.0505C4.76313 12.9941 4.69366 12.9659 4.63749 12.9533C4.58256 12.941 4.5419 12.9365 4.4856 12.9365C4.42805 12.9365 4.36536 12.9469 4.23998 12.9678L1.76767 13.3799C1.50878 13.423 1.37933 13.4446 1.28572 13.4044C1.2038 13.3693 1.13851 13.304 1.10337 13.2221C1.06322 13.1285 1.0848 12.999 1.12795 12.7401L1.54 10.2678C1.56089 10.1425 1.57134 10.0798 1.57133 10.0222C1.57133 9.96591 1.56682 9.92525 1.55451 9.87032C1.54192 9.81416 1.51371 9.74468 1.45727 9.60573C1.16242 8.87971 1 8.08578 1 7.25391C1 3.79997 3.79997 1 7.25391 1C10.7078 1 13.5078 3.79997 13.5078 7.25391Z" fill="#E3E3E3" stroke="#727272" stroke-width="1.17261" stroke-linecap="round" stroke-linejoin="round"/>
<path d="M4.91016 5.69043H7.68967M4.91016 8.1225H9.77431" stroke="#727272" stroke-width="1.25078" stroke-linecap="round" stroke-linejoin="round"/>
</svg>
