<svg width="35" height="35" viewBox="0 0 35 35" fill="none" xmlns="http://www.w3.org/2000/svg">
<circle cx="17.5" cy="17.5" r="17.0732" fill="#F1F3F4" stroke="#EAEAEA" stroke-width="0.853659"/>
<path d="M21.7809 9.18018L13.8051 9.18018H14.2665H14.1346H13.871L14.3983 9.18018C12.9216 9.18018 12.1833 9.18018 11.6193 9.44839C11.1232 9.68432 10.7198 10.0608 10.4671 10.5238C10.1797 11.0502 10.1797 11.7393 10.1797 13.1175V21.0626C10.1797 22.4408 10.1797 23.1299 10.4671 23.6563C10.7198 24.1193 11.1232 24.4958 11.6193 24.7317C12.1833 24.9999 12.9216 24.9999 14.3983 24.9999H21.7809C23.2575 24.9999 23.9958 24.9999 24.5598 24.7317C25.0559 24.4958 25.4593 24.1193 25.7121 23.6563C25.9995 23.1299 25.9995 22.4408 25.9995 21.0626V13.1175C25.9995 11.7393 25.9995 11.0502 25.7121 10.5238C25.4593 10.0608 25.0559 9.68432 24.5598 9.44839C23.9958 9.18018 23.2575 9.18018 21.7809 9.18018Z" fill="#D6E9FF"/>
<path d="M14.9256 24.9999V9.44839M14.3983 9.18018C12.9216 9.18018 12.1833 9.18018 11.6193 9.44839C11.1232 9.68432 10.7198 10.0608 10.4671 10.5238C10.1797 11.0502 10.1797 11.7393 10.1797 13.1175V21.0626C10.1797 22.4408 10.1797 23.1299 10.4671 23.6563C10.7198 24.1193 11.1232 24.4958 11.6193 24.7317C12.1833 24.9999 12.9216 24.9999 14.3983 24.9999H21.7809C23.2575 24.9999 23.9958 24.9999 24.5598 24.7317C25.0559 24.4958 25.4593 24.1193 25.7121 23.6563C25.9995 23.1299 25.9995 22.4408 25.9995 21.0626V13.1175C25.9995 11.7393 25.9995 11.0502 25.7121 10.5238C25.4593 10.0608 25.0559 9.68432 24.5598 9.44839C23.9958 9.18018 23.2575 9.18018 21.7809 9.18018L13.8051 9.18018H14.2665H14.1346H13.871L14.3983 9.18018Z" stroke="#5D94E2" stroke-width="1.2" stroke-linecap="round" stroke-linejoin="round"/>
<path d="M25.9993 13.2733L25.9995 12.5476C25.9995 10.9558 25.9995 11.1599 25.7121 10.5519C25.4593 10.0171 25.056 9.58228 24.5598 9.30978C23.9958 9 23.2575 9 21.7809 9H14.3984C12.9217 9 12.1834 9 11.6194 9.30978C11.1233 9.58228 10.72 10.0171 10.4672 10.5519C10.1798 11.1599 10.1798 10.9558 10.1798 12.5476L10.1797 13.2733L25.9993 13.2733Z" fill="#3D86EF" stroke="#0851BA" stroke-width="1.05465" stroke-linecap="round" stroke-linejoin="round"/>
</svg>
