<svg width="140" height="140" viewBox="0 0 140 140" fill="none" xmlns="http://www.w3.org/2000/svg">
<path d="M104.894 127.697H98.2872L97.7163 124.577L97.1453 121.457L96.5743 118.337L96.0034 115.218L95.6934 113.503L95.3835 111.788L95.0735 110.072L94.7636 108.357H61.6968L61.3868 110.072L61.0768 111.788L60.7669 113.503L60.457 115.218L59.886 118.337L59.315 121.457L58.7441 124.577L58.1731 127.697H51.5663C50.8974 127.697 50.2612 128.072 49.6739 128.66C49.0867 129.265 48.5483 131.698 48.0916 132.613C47.6348 133.528 47.2596 134.508 46.9659 135.439C46.6886 136.37 46.4929 137.235 46.4276 137.889H110.098C110.033 137.235 109.853 136.37 109.56 135.439C109.282 134.508 108.891 133.528 108.434 132.613C107.977 131.698 107.439 129.265 106.852 128.66C106.264 128.056 105.628 127.697 104.943 127.697H104.894Z" fill="white"/>
<path fill-rule="evenodd" clip-rule="evenodd" d="M60.0915 108.066C60.2319 107.289 60.9078 106.724 61.6967 106.724H94.7635C95.5525 106.724 96.2283 107.289 96.3688 108.066L96.9887 111.496L97.6086 114.926L99.6467 126.063H104.943C106.238 126.063 107.269 126.747 108.021 127.521C108.395 127.906 108.636 128.419 108.782 128.76C108.95 129.154 109.105 129.598 109.24 130.004C109.318 130.24 109.388 130.456 109.452 130.654C109.64 131.231 109.775 131.645 109.893 131.882C110.387 132.871 110.813 133.935 111.119 134.959C111.437 135.969 111.643 136.942 111.721 137.726C111.767 138.185 111.617 138.642 111.307 138.984C110.998 139.327 110.559 139.522 110.098 139.522H46.4276C45.9667 139.522 45.5273 139.327 45.218 138.984C44.9088 138.642 44.7585 138.185 44.8044 137.726C44.8844 136.925 45.1121 135.947 45.4027 134.971L45.4103 134.946C45.7238 133.953 46.1293 132.89 46.6324 131.882C46.751 131.645 46.8854 131.231 47.0732 130.654C47.1373 130.456 47.2077 130.24 47.2858 130.004C47.4209 129.598 47.5752 129.154 47.7438 128.76C47.8899 128.419 48.1306 127.906 48.5047 127.521L48.5203 127.505C49.2397 126.784 50.269 126.063 51.5662 126.063H56.8135L58.2814 118.042L58.8517 114.926L58.8523 114.923L59.4716 111.496L60.0915 108.066ZM63.0593 109.99L62.992 110.363L62.0622 115.508L59.7777 127.991C59.6357 128.766 58.9606 129.329 58.1731 129.329H51.5662C51.5273 129.329 51.301 129.357 50.8791 129.764C50.8663 129.787 50.8183 129.87 50.7425 130.047C50.6307 130.308 50.5118 130.644 50.3818 131.035C50.3382 131.166 50.2914 131.311 50.242 131.464C50.0379 132.096 49.7903 132.863 49.5506 133.343C49.1422 134.161 48.7986 135.053 48.5254 135.918C48.4913 136.032 48.4589 136.145 48.4282 136.255H108.102C108.071 136.148 108.039 136.04 108.004 135.93L107.996 135.905C107.748 135.071 107.392 134.179 106.975 133.343C106.735 132.863 106.488 132.096 106.283 131.464C106.234 131.311 106.187 131.166 106.144 131.035C106.014 130.644 105.895 130.308 105.783 130.047C105.703 129.86 105.654 129.778 105.645 129.76C105.245 129.362 105.016 129.329 104.943 129.329H98.2872C97.4997 129.329 96.8245 128.766 96.6826 127.991L94.3988 115.512L94.0882 113.793L93.4682 110.363L93.4009 109.99H63.0593Z" fill="#727272"/>
<path d="M18.0264 86.1279V100.583C18.0264 101.661 18.2384 102.69 18.63 103.621C19.0215 104.552 19.5924 105.402 20.2939 106.104C20.9954 106.806 21.8437 107.378 22.7735 107.77C23.7034 108.162 24.7311 108.374 25.8078 108.374H130.555C131.631 108.374 132.659 108.162 133.589 107.77C134.519 107.378 135.367 106.806 136.069 106.104C136.77 105.402 137.341 104.569 137.733 103.621C138.124 102.69 138.352 101.661 138.352 100.583V86.1279H18.0264Z" fill="white"/>
<path fill-rule="evenodd" clip-rule="evenodd" d="M16.395 84.4941H139.984V100.583C139.984 101.891 139.707 103.134 139.238 104.25C138.76 105.404 138.066 106.413 137.222 107.259C136.37 108.111 135.345 108.802 134.222 109.275C133.09 109.752 131.846 110.007 130.555 110.007H25.8077C24.5161 110.007 23.2729 109.752 22.1404 109.275C21.0172 108.802 19.9919 108.111 19.1404 107.259C18.2888 106.406 17.5994 105.379 17.1264 104.255C16.6496 103.121 16.395 101.876 16.395 100.583V84.4941ZM19.6577 87.7609V100.583C19.6577 101.446 19.8272 102.259 20.1334 102.987C20.4435 103.725 20.896 104.397 21.4474 104.949C21.9987 105.501 22.67 105.954 23.4065 106.264C24.1337 106.571 24.946 106.741 25.8077 106.741H130.555C131.416 106.741 132.229 106.571 132.956 106.264C133.692 105.954 134.364 105.501 134.915 104.949C135.472 104.391 135.92 103.736 136.225 102.996L136.229 102.987C136.542 102.243 136.721 101.429 136.721 100.583V87.7609H19.6577Z" fill="#727272"/>
<path d="M104.167 16.9141H130.349C131.426 16.9141 132.454 17.1264 133.384 17.5347C134.313 17.9268 135.162 18.4984 135.863 19.2008C136.565 19.9031 137.136 20.7525 137.527 21.6835C137.919 22.6145 138.147 23.6435 138.147 24.7216V85.973H17.8047V24.7216C17.8047 23.6435 18.0168 22.6145 18.4083 21.6835C18.7998 20.7525 19.3708 19.9031 20.0722 19.2008C20.7737 18.4984 21.622 17.9268 22.5518 17.5347C23.4817 17.1427 24.5094 16.9141 25.5861 16.9141H104.15H104.167Z" fill="#E0E0E0"/>
<path fill-rule="evenodd" clip-rule="evenodd" d="M25.8077 18.7189C24.9629 18.7189 24.1497 18.8982 23.4065 19.2116C22.67 19.5221 21.9987 19.9752 21.4474 20.5272C20.896 21.0792 20.4435 21.7513 20.1334 22.4888C19.8272 23.217 19.6577 24.0303 19.6577 24.893V84.5111H136.737V24.893C136.737 24.0472 136.558 23.233 136.245 22.4888C135.935 21.7513 135.483 21.0792 134.931 20.5272C134.38 19.9752 133.709 19.5221 132.972 19.2116L132.95 19.202C132.236 18.8885 131.433 18.7189 130.571 18.7189H25.8077ZM22.1404 16.2008C23.2569 15.7301 24.4992 15.4521 25.8077 15.4521H130.571C131.859 15.4521 133.107 15.7056 134.25 16.2056C135.368 16.679 136.39 17.3675 137.238 18.2173C138.09 19.0699 138.779 20.0965 139.252 21.2211C139.722 22.339 140 23.5828 140 24.893V86.1444C140 87.0465 139.27 87.7778 138.369 87.7778H18.0263C17.1254 87.7778 16.395 87.0465 16.395 86.1444V24.893C16.395 23.5997 16.6496 22.355 17.1264 21.2211C17.5994 20.0965 18.2888 19.0699 19.1404 18.2173C19.9919 17.3646 21.0173 16.6743 22.1404 16.2008Z" fill="#727272"/>
<path d="M70.7831 39.8387C70.7831 44.1834 67.2595 47.7278 62.9038 47.7278C58.5482 47.7278 55.0409 44.1998 55.0409 39.8387C55.0409 35.4776 58.5645 31.9658 62.9038 31.9658C67.2432 31.9658 70.7831 35.4939 70.7831 39.8387Z" fill="white"/>
<path fill-rule="evenodd" clip-rule="evenodd" d="M62.9039 33.5988C59.4634 33.5988 56.6723 36.3814 56.6723 39.8382C56.6723 43.3017 59.4537 46.0941 62.9039 46.0941C66.3564 46.0941 69.1519 43.2831 69.1519 39.8382C69.1519 36.4 66.3467 33.5988 62.9039 33.5988ZM53.4097 39.8382C53.4097 34.5729 57.6659 30.332 62.9039 30.332C68.1398 30.332 72.4145 34.587 72.4145 39.8382C72.4145 45.0829 68.1627 49.3608 62.9039 49.3608C57.643 49.3608 53.4097 45.097 53.4097 39.8382Z" fill="#727272"/>
<path fill-rule="evenodd" clip-rule="evenodd" d="M101.338 37.3068H77.2595V34.04H101.338V37.3068Z" fill="#727272"/>
<path fill-rule="evenodd" clip-rule="evenodd" d="M101.338 45.6535H77.2595V42.3867H101.338V45.6535Z" fill="#727272"/>
<path d="M70.7831 66.74C70.7831 71.1011 67.2595 74.6292 62.9038 74.6292C58.5482 74.6292 55.0409 71.1011 55.0409 66.74C55.0409 62.3789 58.5645 58.8672 62.9038 58.8672C67.2432 58.8672 70.7831 62.3953 70.7831 66.74Z" fill="white"/>
<path fill-rule="evenodd" clip-rule="evenodd" d="M62.9039 60.5001C59.4634 60.5001 56.6723 63.2828 56.6723 66.7396C56.6723 70.203 59.4537 72.9954 62.9039 72.9954C66.3586 72.9954 69.1519 70.1986 69.1519 66.7396C69.1519 63.3013 66.3467 60.5001 62.9039 60.5001ZM53.4097 66.7396C53.4097 61.4742 57.6659 57.2334 62.9039 57.2334C68.1398 57.2334 72.4145 61.4884 72.4145 66.7396C72.4145 72.0028 68.1605 76.2622 62.9039 76.2622C57.643 76.2622 53.4097 71.9984 53.4097 66.7396Z" fill="#727272"/>
<path fill-rule="evenodd" clip-rule="evenodd" d="M101.338 64.1906H77.2595V60.9238H101.338V64.1906Z" fill="#727272"/>
<path fill-rule="evenodd" clip-rule="evenodd" d="M101.338 72.5372H77.2595V69.2705H101.338V72.5372Z" fill="#727272"/>
<path d="M50.2936 26.0037C50.2936 39.4627 39.3964 50.3736 25.9543 50.3736C12.5122 50.3736 1.63135 39.4627 1.63135 26.0037C1.63135 12.5447 12.5286 1.63379 25.9706 1.63379C39.4127 1.63379 50.3099 12.5447 50.3099 26.0037H50.2936Z" fill="white"/>
<path fill-rule="evenodd" clip-rule="evenodd" d="M25.9706 3.26674C13.4295 3.26674 3.26264 13.4464 3.26264 26.0033C3.26264 38.5616 13.4146 48.7398 25.9543 48.7398C38.4954 48.7398 48.6622 38.5602 48.6622 26.0033V25.1335C48.2056 12.9796 38.2208 3.26674 25.9706 3.26674ZM51.8745 27.6366H51.9412V26.0033C51.9412 11.6422 40.3136 0 25.9706 0C11.6276 0 0 11.6422 0 26.0033C0 40.3629 11.6098 52.0065 25.9543 52.0065C39.7494 52.0065 51.0326 41.2368 51.8745 27.6366Z" fill="#727272"/>
<path fill-rule="evenodd" clip-rule="evenodd" d="M24.3394 29.0418V14.0801H27.602V29.0418H24.3394Z" fill="#727272"/>
<path fill-rule="evenodd" clip-rule="evenodd" d="M24.3394 37.9106V32.6348H27.602V37.9106H24.3394Z" fill="#727272"/>
</svg>
