<svg width="14" height="14" viewBox="0 0 14 14" fill="none" xmlns="http://www.w3.org/2000/svg">
<path d="M8.94444 3.47179V2.9829C8.94444 2.29839 8.94444 1.95614 8.81123 1.69469C8.69405 1.46471 8.50708 1.27774 8.2771 1.16056C8.01565 1.02734 7.6734 1.02734 6.98889 1.02734H6.01111C5.3266 1.02734 4.98435 1.02734 4.7229 1.16056C4.49292 1.27774 4.30595 1.46471 4.18877 1.69469C4.05556 1.95614 4.05556 2.29839 4.05556 2.9829V3.47179M5.27778 6.8329V9.88846M7.72222 6.8329V9.88846M1 3.47179H12M10.7778 3.47179V10.3162C10.7778 11.343 10.7778 11.8564 10.578 12.2485C10.4022 12.5935 10.1217 12.874 9.77676 13.0497C9.38459 13.2496 8.87121 13.2496 7.84444 13.2496H5.15556C4.12879 13.2496 3.61541 13.2496 3.22324 13.0497C2.87828 12.874 2.59781 12.5935 2.42204 12.2485C2.22222 11.8564 2.22222 11.343 2.22222 10.3162V3.47179" stroke="black" stroke-width="1.22501" stroke-linecap="round" stroke-linejoin="round"/>
</svg>
