<svg width="14" height="14" viewBox="0 0 14 14" fill="none" xmlns="http://www.w3.org/2000/svg">
<path d="M12.8335 3.04309L5.51327 10.3736L2.79257 7.65288L3.69605 6.74941L5.51327 8.56663L11.93 2.13961L12.8335 3.03283V3.04309ZM11.4167 6.27713C11.4988 6.64674 11.5501 7.02661 11.5501 7.41675C11.5501 10.2504 9.25038 12.5501 6.41675 12.5501C3.58311 12.5501 1.28335 10.2504 1.28335 7.41675C1.28335 4.58311 3.58311 2.28335 6.41675 2.28335C7.43316 2.28335 8.36744 2.58109 9.16825 3.08416L10.0923 2.16015C9.05531 1.43121 7.7925 1 6.41675 1C2.8747 1 0 3.8747 0 7.41675C0 10.9588 2.8747 13.8335 6.41675 13.8335C9.95879 13.8335 12.8335 10.9588 12.8335 7.41675C12.8335 6.657 12.6898 5.9178 12.4434 5.24019L11.4064 6.27713H11.4167Z" fill="#222222"/>
</svg>
