<svg width="15" height="15" viewBox="0 0 15 15" fill="none" xmlns="http://www.w3.org/2000/svg">
<path d="M0.637109 5.73077C0.637109 4.27784 1.81495 3.1 3.26788 3.1H9.72941C11.1823 3.1 12.3602 4.27784 12.3602 5.73077V11.7685C12.3602 13.2214 11.1824 14.3992 9.72942 14.3992H3.26788C1.81495 14.3992 0.637109 13.2214 0.637109 11.7685V5.73077Z" fill="white" stroke="black" stroke-width="1.2"/>
<path d="M1.17773 10.3161H1.20154C2.61247 10.2902 2.77245 10.2902 2.92715 10.3178C3.06445 10.3422 3.1984 10.3828 3.32623 10.4386C3.47024 10.5014 3.60335 10.5902 3.86957 10.7676L4.21401 10.9972C4.48023 11.1746 4.61334 11.2634 4.75735 11.3262C4.88517 11.382 5.01912 11.4226 5.15643 11.4471C5.30332 11.4732 5.45498 11.4746 5.74386 11.4746C5.76191 11.4746 5.77094 11.4746 5.7794 11.4747C5.78725 11.4748 5.79412 11.4749 5.80196 11.4751C5.81043 11.4753 5.81955 11.4756 5.83779 11.4761C6.00979 11.4816 6.61174 11.5003 6.8844 11.5003C6.88443 11.5003 6.88437 11.5003 6.88441 11.5003C6.88441 11.5003 6.88441 11.5003 6.88441 11.5003C6.88454 11.5003 6.88433 11.5003 6.88441 11.5003C6.8846 11.5003 7.72453 11.5003 7.87921 11.4727C8.01651 11.4482 8.15046 11.4077 8.27828 11.3519C8.42229 11.289 8.5554 11.2003 8.82163 11.0228L9.16607 10.7932C9.43229 10.6158 9.5654 10.5271 9.70941 10.4642C9.83723 10.4084 9.97118 10.3679 10.1085 10.3434C10.2632 10.3158 10.5001 10.3158 12.0001 10.3161" stroke="black" stroke-width="1.2" stroke-linecap="round" stroke-linejoin="round"/>
<path d="M15 3.95606C15 6.74175 12.795 9 10.3774 9C7.95982 9 6 6.74175 6 3.95606C6 1.17037 7.58244 0.5 10 0.5C12.4176 0.5 15 1.17037 15 3.95606Z" fill="white"/>
<circle cx="10.3923" cy="4.39231" r="2.84231" fill="white" stroke="black" stroke-width="1.1"/>
<path d="M9.5 4.5L10.2279 5.30679L11.5 4" stroke="black" stroke-width="1.1" stroke-linecap="round" stroke-linejoin="round"/>
</svg>
