<svg width="14" height="14" viewBox="0 0 14 14" fill="none" xmlns="http://www.w3.org/2000/svg">
<path d="M6.95 2.09961H2.1C1.80826 2.09961 1.52847 2.2155 1.32218 2.42179C1.11589 2.62808 1 2.90787 1 3.19961V11.8996C1 12.1913 1.11589 12.4711 1.32218 12.6774C1.52847 12.8837 1.80826 12.9996 2.1 12.9996H10.8C11.0917 12.9996 11.3715 12.8837 11.5778 12.6774C11.7841 12.4711 11.9 12.1913 11.9 11.8996V8.04961" stroke="#222222" stroke-width="1.21" stroke-linecap="round" stroke-linejoin="round"/>
<path d="M11.0262 2.33879C11.2431 2.12187 11.5373 2 11.8441 2C12.1509 2 12.4451 2.12187 12.662 2.33879C12.8789 2.55571 13.0008 2.84993 13.0008 3.1567C13.0008 3.46348 12.8789 3.75769 12.662 3.97461L7.48188 9.15472L5.30078 9.7L5.84606 7.5189L11.0262 2.33879Z" stroke="#222222" stroke-width="1.21" stroke-linecap="round" stroke-linejoin="round"/>
</svg>
