<svg width="9" height="9" viewBox="0 0 9 9" fill="none" xmlns="http://www.w3.org/2000/svg">
<path fill-rule="evenodd" clip-rule="evenodd" d="M3.93221 4.7779L0.23557 1.29271C-0.0785235 0.996583 -0.0785235 0.518223 0.23557 0.222096C0.549664 -0.0740318 1.05705 -0.0740318 1.37114 0.222096L4.50403 3.16819L7.62886 0.222096C7.94295 -0.0740318 8.45034 -0.0740318 8.76443 0.222096C9.07852 0.518223 9.07852 0.996583 8.76443 1.29271L5.06779 4.7779C4.76174 5.07403 4.24631 5.07403 3.93221 4.7779Z" fill="#222222"/>
<path fill-rule="evenodd" clip-rule="evenodd" d="M5.06779 4.2221L8.76443 7.70729C9.07852 8.00342 9.07852 8.48178 8.76443 8.7779C8.45034 9.07403 7.94295 9.07403 7.62886 8.7779L4.49597 5.83182L1.37114 8.7779C1.05705 9.07403 0.549665 9.07403 0.235571 8.7779C-0.0785232 8.48178 -0.0785233 8.00342 0.235571 7.70729L3.93221 4.2221C4.23826 3.92597 4.75369 3.92597 5.06779 4.2221Z" fill="#222222"/>
</svg>
