<svg width="14" height="14" viewBox="0 0 14 14" fill="none" xmlns="http://www.w3.org/2000/svg">
<path d="M1.6 4.5C1.6 3.7268 2.2268 3.1 3 3.1H11C11.7732 3.1 12.4 3.7268 12.4 4.5V12C12.4 12.7732 11.7732 13.4 11 13.4H3C2.2268 13.4 1.6 12.7732 1.6 12V4.5Z" fill="white" stroke="#222222" stroke-width="1.2"/>
<rect x="1" y="7" width="6" height="7" fill="white"/>
<path d="M3.0625 13.125V9M1 11.0625H5.125" stroke="black" stroke-width="1.2" stroke-linecap="round" stroke-linejoin="round"/>
<path d="M9.2 6.5L5 6.5" stroke="black" stroke-width="1.2" stroke-linecap="round" stroke-linejoin="round"/>
<path d="M8.8 9L7 9" stroke="black" stroke-width="1.2" stroke-linecap="round" stroke-linejoin="round"/>
<path d="M3.6 2.5C3.6 2.00294 4.00294 1.6 4.5 1.6H9.5C9.99706 1.6 10.4 2.00294 10.4 2.5V3C10.4 3.49706 9.99706 3.9 9.5 3.9H4.5C4.00294 3.9 3.6 3.49706 3.6 3V2.5Z" fill="white" stroke="#222222" stroke-width="1.2"/>
</svg>
