<svg width="14" height="14" viewBox="0 0 14 14" fill="none" xmlns="http://www.w3.org/2000/svg">
<path d="M11.5714 13H4.42857C4.04969 13 3.68633 12.8513 3.41842 12.5865C3.15051 12.3217 3 11.9626 3 11.5882V2.41179C3 2.03736 3.15051 1.67827 3.41842 1.4135C3.68633 1.14874 4.04969 1 4.42857 1H9.42857H11.5C12.3284 1 13 1.67157 13 2.5V4.52947V11.5882C13 11.9626 12.8495 12.3217 12.5816 12.5865C12.3137 12.8513 11.9503 13 11.5714 13Z" stroke="black" stroke-width="1.1" stroke-linecap="round" stroke-linejoin="round"/>
<rect x="0.525" y="3.525" width="7.95" height="6.95" rx="0.702273" fill="white" stroke="#222222" stroke-width="1.05"/>
<path d="M3.59222 5L4.47118 6.19337H4.51441L5.40778 5H6.94236L5.37896 7L7 9H5.4294L4.51441 7.79006H4.47118L3.5634 9H2L3.60663 7L2.05043 5H3.59222Z" fill="black"/>
</svg>
