<svg width="14" height="14" viewBox="0 0 14 14" fill="none" xmlns="http://www.w3.org/2000/svg">
<path d="M7 3.33077C9.40923 3.33077 11.5614 4.75385 12.6118 7C11.5614 9.24615 9.41658 10.6692 7 10.6692C4.58342 10.6692 2.43861 9.24615 1.38825 7C2.43861 4.75385 4.59077 3.33077 7 3.33077ZM7 2C3.81952 2 1.10178 4.07692 0 7C1.10178 9.92308 3.81952 12 7 12C10.1805 12 12.8982 9.92308 14 7C12.9056 4.07692 10.1878 2 7 2ZM7 5.33077C7.88143 5.33077 8.59391 6.07692 8.59391 7C8.59391 7.92308 7.88143 8.66923 7 8.66923C6.11857 8.66923 5.40609 7.92308 5.40609 7C5.40609 6.07692 6.11857 5.33077 7 5.33077ZM7 4C5.42078 4 4.13536 5.34615 4.13536 7C4.13536 8.65385 5.42078 10 7 10C8.57922 10 9.86464 8.65385 9.86464 7C9.86464 5.34615 8.57922 4 7 4Z" fill="#222222"/>
</svg>
