<svg width="40" height="40" viewBox="0 0 40 40" fill="none" xmlns="http://www.w3.org/2000/svg">
<rect width="40" height="40" rx="20" fill="#F2F2F2"/>
<path d="M27.1755 18.1135V15.5527C27.1755 13.9591 27.1755 13.1623 26.8654 12.5536C26.5926 12.0182 26.1573 11.5829 25.6219 11.3101C25.0133 11 24.2165 11 22.6229 11H16.5527C14.9591 11 14.1623 11 13.5536 11.3101C13.0182 11.5829 12.5829 12.0182 12.3101 12.5536C12 13.1623 12 13.9591 12 15.5527V23.9473C12 25.5409 12 26.3377 12.3101 26.9464C12.5829 27.4818 13.0182 27.9171 13.5536 28.1899C14.1623 28.5 14.9591 28.5 16.5527 28.5H21.4847M21.4847 19.5362H15.7939M17.6908 23.3301H15.7939M23.3817 15.7424H15.7939M23.8559 23.3323C24.023 22.8572 24.3529 22.4566 24.787 22.2014C25.2212 21.9463 25.7317 21.853 26.228 21.9381C26.7244 22.0233 27.1746 22.2813 27.4989 22.6666C27.8232 23.0519 28.0007 23.5395 28 24.0431C28 25.4647 25.8675 26.1755 25.8675 26.1755M25.895 29.021H25.9045" stroke="#222222" stroke-width="1.8" stroke-linecap="round" stroke-linejoin="round"/>
</svg>
