<svg width="22" height="22" viewBox="0 0 22 22" fill="none" xmlns="http://www.w3.org/2000/svg">
<rect width="22" height="22" rx="11" fill="#AB9274"/>
<path d="M8.5 11H8.50556M11 11H11.0056M13.5 11H13.5056M11 16C13.7614 16 16 13.7614 16 11C16 8.23858 13.7614 6 11 6C8.23858 6 6 8.23858 6 11C6 11.6651 6.12985 12.2998 6.36559 12.8803C6.41071 12.9914 6.43327 13.0469 6.44333 13.0918C6.45318 13.1357 6.45678 13.1682 6.45678 13.2133C6.45679 13.2593 6.44843 13.3094 6.43173 13.4096L6.10229 15.3862C6.06779 15.5932 6.05055 15.6967 6.08264 15.7716C6.11074 15.8371 6.16293 15.8893 6.22844 15.9174C6.30327 15.9495 6.40677 15.9322 6.61376 15.8977L8.59036 15.5683C8.6906 15.5516 8.74073 15.5432 8.78674 15.5432C8.83175 15.5432 8.86426 15.5468 8.90818 15.5567C8.95308 15.5667 9.00862 15.5893 9.11972 15.6344C9.70017 15.8701 10.3349 16 11 16ZM8.77778 11C8.77778 11.1534 8.65341 11.2778 8.5 11.2778C8.34659 11.2778 8.22222 11.1534 8.22222 11C8.22222 10.8466 8.34659 10.7222 8.5 10.7222C8.65341 10.7222 8.77778 10.8466 8.77778 11ZM11.2778 11C11.2778 11.1534 11.1534 11.2778 11 11.2778C10.8466 11.2778 10.7222 11.1534 10.7222 11C10.7222 10.8466 10.8466 10.7222 11 10.7222C11.1534 10.7222 11.2778 10.8466 11.2778 11ZM13.7778 11C13.7778 11.1534 13.6534 11.2778 13.5 11.2778C13.3466 11.2778 13.2222 11.1534 13.2222 11C13.2222 10.8466 13.3466 10.7222 13.5 10.7222C13.6534 10.7222 13.7778 10.8466 13.7778 11Z" stroke="white" stroke-width="1.24444" stroke-linecap="round" stroke-linejoin="round"/>
</svg>
