<svg width="22" height="22" viewBox="0 0 22 22" fill="none" xmlns="http://www.w3.org/2000/svg">
<rect width="22" height="22" rx="11" fill="#919191"/>
<path d="M17 6.9104L10.1552 13.7648L7.6112 11.2208L8.456 10.376L10.1552 12.0752L16.1552 6.0656L17 6.9008V6.9104ZM15.6752 9.9344C15.752 10.28 15.8 10.6352 15.8 11C15.8 13.6496 13.6496 15.8 11 15.8C8.3504 15.8 6.2 13.6496 6.2 11C6.2 8.3504 8.3504 6.2 11 6.2C11.9504 6.2 12.824 6.4784 13.5728 6.9488L14.4368 6.0848C13.4672 5.4032 12.2864 5 11 5C7.688 5 5 7.688 5 11C5 14.312 7.688 17 11 17C14.312 17 17 14.312 17 11C17 10.2896 16.8656 9.5984 16.6352 8.9648L15.6656 9.9344H15.6752Z" fill="white" fill-opacity="0.8"/>
</svg>
