<svg width="22" height="22" viewBox="0 0 22 22" fill="none" xmlns="http://www.w3.org/2000/svg">
<rect width="22" height="22" rx="11" fill="#677FBE"/>
<path d="M13.2174 9.64519L11.3548 7.78265M6 15L7.57588 14.8249C7.76842 14.8035 7.86468 14.7928 7.95466 14.7637C8.03449 14.7378 8.11047 14.7013 8.18052 14.6551C8.25947 14.6031 8.32796 14.5346 8.46494 14.3976L14.6143 8.24829C15.1286 7.73396 15.1286 6.90007 14.6143 6.38575C14.0999 5.87142 13.266 5.87142 12.7517 6.38574L6.60241 12.5351C6.46542 12.672 6.39693 12.7405 6.34487 12.8195C6.29867 12.8895 6.26216 12.9655 6.23632 13.0453C6.20719 13.1353 6.19649 13.2316 6.1751 13.4241L6 15Z" stroke="white" stroke-opacity="0.8" stroke-width="1.03831" stroke-linecap="round" stroke-linejoin="round"/>
</svg>
