<svg width="40" height="40" viewBox="0 0 40 40" fill="none" xmlns="http://www.w3.org/2000/svg">
<rect width="40" height="40" rx="20" fill="#F2F2F2"/>
<path d="M15.6289 16.7637C15.6289 18.61 18.6218 20.1064 22.3145 20.1064C26.0071 20.1064 29 18.61 29 16.7637C29 14.9173 26.0071 13.4209 22.3145 13.4209C18.6218 13.4209 15.6289 14.9173 15.6289 16.7637Z" stroke="#222222" stroke-width="1.6" stroke-linecap="round" stroke-linejoin="round"/>
<path d="M15.6289 21.6494C15.6289 23.3537 18.6218 24.7351 22.3145 24.7351C26.0071 24.7351 29 23.3537 29 21.6494" stroke="#222222" stroke-width="1.6" stroke-linecap="round" stroke-linejoin="round"/>
<path d="M15.6289 16.377V25.8415C15.6289 27.854 18.6218 29.1843 22.3145 29.1843C26.0071 29.1843 29 27.854 29 25.8415V16.377" stroke="#222222" stroke-width="1.6" stroke-linecap="round" stroke-linejoin="round"/>
<path d="M13.5878 13.7682L11.2037 15.7897M11.2037 15.7897L9.18213 13.4056M11.2037 15.7897L11.385 13.5869C11.5853 11.1537 13.7201 9.34351 16.1533 9.54379" stroke="black" stroke-width="1.6" stroke-linecap="round" stroke-linejoin="round"/>
</svg>
