<svg width="40" height="40" viewBox="0 0 40 40" fill="none" xmlns="http://www.w3.org/2000/svg">
<rect width="40" height="40" rx="20" fill="#F2F2F2"/>
<path d="M11 19.5H14.6879C15.3388 19.5 15.9339 19.8629 16.225 20.4375C16.5161 21.0121 17.1112 21.375 17.7621 21.375H23.2379C23.8888 21.375 24.4839 21.0121 24.775 20.4375C25.0661 19.8629 25.6612 19.5 26.3121 19.5H30M11 19.5V16.5C11 14.9249 11 14.1373 11.3106 13.5357C11.5839 13.0064 12.0199 12.5762 12.5561 12.3065C13.1658 12 13.9639 12 15.56 12H25.44C27.0361 12 27.8342 12 28.4439 12.3065C28.9801 12.5762 29.4161 13.0064 29.6894 13.5357C30 14.1373 30 14.9249 30 16.5V19.5M11 19.5V22.5C11 24.0751 11 24.8627 11.3106 25.4643C11.5839 25.9936 12.0199 26.4238 12.5561 26.6935C13.1658 27 13.9639 27 15.56 27H25.44C27.0361 27 27.8342 27 28.4439 26.6935C28.9801 26.4238 29.4161 25.9936 29.6894 25.4643C30 24.8627 30 24.0751 30 22.5V19.5" stroke="#222222" stroke-width="1.8" stroke-linecap="round" stroke-linejoin="round"/>
</svg>
