<svg width="40" height="40" viewBox="0 0 40 40" fill="none" xmlns="http://www.w3.org/2000/svg">
<rect width="40" height="40" rx="20" fill="#F2F2F2"/>
<path d="M20.5 28.2857L20.4049 28.1457C19.745 27.1733 19.4151 27.1992 18.9791 26.8473C18.5932 26.5357 18.1485 26.3019 17.6705 26.1593C17.1306 25.9982 16.5358 25.9982 15.3461 25.9982H14.04C12.9759 25.9982 12.4439 25.9982 12.0374 25.7948C11.6799 25.6158 11.3892 25.3303 11.2071 24.9791C11 24.5799 11 24.0572 11 23.0119V14.9863C11 13.941 11 13.4183 11.2071 13.0191C11.3892 12.6679 11.6799 12.3824 12.0374 12.2034C12.4439 12 12.9759 12 14.04 12H14.42C16.5482 12 17.6123 12 18.4252 12.4069C19.1402 12.7647 19.7215 13.3358 20.0858 14.0382C20.5 14.8367 20.5 15.882 20.5 17.9726M20.5 28.2857V17.9726M20.5 28.2857L20.5951 28.1457C21.255 27.1733 21.5849 27.1992 22.0209 26.8473C22.4068 26.5357 22.8515 26.3019 23.3295 26.1593C23.8694 25.9982 24.4642 25.9982 25.6539 25.9982H26.96C28.0241 25.9982 28.5562 25.9982 28.9626 25.7948C29.3201 25.6158 29.6108 25.3303 29.7929 24.9791C30 24.5799 30 24.0572 30 23.0119V14.9863C30 13.941 30 13.4183 29.7929 13.0191C29.6108 12.6679 29.3201 12.3824 28.9626 12.2034C28.5562 12 28.0241 12 26.96 12H26.58C24.4518 12 23.3877 12 22.5748 12.4069C21.8598 12.7647 21.2785 13.3358 20.9142 14.0382C20.5 14.8367 20.5 15.882 20.5 17.9726" stroke="#222222" stroke-width="1.8" stroke-linecap="round" stroke-linejoin="round"/>
</svg>
