<svg width="40" height="40" viewBox="0 0 40 40" fill="none" xmlns="http://www.w3.org/2000/svg">
<rect width="40" height="40" rx="20" fill="#F2F2F2"/>
<path d="M22.5 11.624V15.624C22.5 15.8362 22.6054 16.0397 22.7929 16.1897C22.9804 16.3397 23.2348 16.424 23.5 16.424L27.9137 16.4235" fill="#C8C8C8"/>
<path d="M22.5 11.624V15.624C22.5 15.8362 22.6054 16.0397 22.7929 16.1897C22.9804 16.3397 23.2348 16.424 23.5 16.424L27.9137 16.4235" stroke="black" stroke-width="1.65" stroke-linecap="round" stroke-linejoin="round"/>
<path d="M25.8978 28.6238H15.1005C14.5434 28.6238 14.0091 28.3995 13.6152 28.0001C13.2213 27.6008 13 27.0591 13 26.4944L13.0017 13.1294C13.0017 12.5647 13.223 12.023 13.6169 11.6237C14.0108 11.2244 14.5451 11 15.1022 11H22.5396C22.6734 11 22.8016 11.0536 22.8956 11.1489L27.8559 16.1776C27.9482 16.2712 28 16.3973 28 16.5288L27.9983 26.4944C27.9983 27.0591 27.777 27.6008 27.3831 28.0001C26.9892 28.3995 26.4549 28.6238 25.8978 28.6238Z" stroke="black" stroke-width="1.65" stroke-linecap="round" stroke-linejoin="round"/>
<path d="M18 21.624L20 23.624L23.5 19.624" stroke="black" stroke-width="1.65" stroke-linecap="round" stroke-linejoin="round"/>
</svg>
