<svg width="40" height="40" viewBox="0 0 40 40" fill="none" xmlns="http://www.w3.org/2000/svg">
<rect width="40" height="40" rx="20" fill="#F2F2F2"/>
<path d="M30 16H11M22.4 24.775L24.775 22.4L22.4 20.025M18.6 20.025L16.225 22.4L18.6 24.775M11 15.56L11 23.54C11 25.1361 11 25.9342 11.3106 26.5439C11.5839 27.0801 12.0199 27.5161 12.5561 27.7894C13.1658 28.1 13.9638 28.1 15.56 28.1H25.44C27.0362 28.1 27.8342 28.1 28.4439 27.7894C28.9801 27.5161 29.4161 27.0801 29.6894 26.5439C30 25.9342 30 25.1361 30 23.54V15.56C30 13.9639 30 13.1658 29.6894 12.5561C29.4161 12.0199 28.9801 11.5839 28.4439 11.3106C27.8342 11 27.0362 11 25.44 11L15.56 11C13.9639 11 13.1658 11 12.5561 11.3106C12.0199 11.5839 11.5839 12.0199 11.3106 12.5561C11 13.1658 11 13.9639 11 15.56Z" stroke="black" stroke-width="1.6" stroke-linecap="round" stroke-linejoin="round"/>
</svg>
