<svg width="22" height="22" viewBox="0 0 22 22" fill="none" xmlns="http://www.w3.org/2000/svg">
<rect width="22" height="22" rx="11" fill="#929292"/>
<path d="M9.59931 10.5L10.8934 11.7941L13.8052 8.88235M11.5405 16C14.5781 16 17.0405 13.5376 17.0405 10.5C17.0405 7.46243 14.5781 5 11.5405 5C8.50292 5 6.04049 7.46243 6.04049 10.5C6.04049 11.1147 6.14133 11.7059 6.32737 12.2578C6.39738 12.4655 6.43239 12.5694 6.4387 12.6492C6.44494 12.728 6.44023 12.7832 6.42073 12.8598C6.40099 12.9374 6.35741 13.018 6.27025 13.1794L5.21189 15.1383C5.06092 15.4178 4.98544 15.5575 5.00233 15.6653C5.01704 15.7592 5.07232 15.8419 5.15348 15.8914C5.24666 15.9483 5.40462 15.932 5.72054 15.8993L9.03414 15.5568C9.13449 15.5464 9.18466 15.5412 9.2304 15.543C9.27537 15.5447 9.30713 15.5489 9.35099 15.559C9.39559 15.5693 9.45166 15.5909 9.56382 15.6341C10.1773 15.8704 10.8437 16 11.5405 16Z" stroke="white" stroke-width="1.29412" stroke-linecap="round" stroke-linejoin="round"/>
</svg>
