<svg width="15" height="13" viewBox="0 0 15 13" fill="none" xmlns="http://www.w3.org/2000/svg">
<path d="M7.5 12.1429L7.43496 12.047C6.98345 11.3817 6.75769 11.3995 6.45942 11.1586C6.19536 10.9455 5.8911 10.7855 5.56404 10.6879C5.19461 10.5777 4.78762 10.5777 3.97364 10.5777H3.08C2.35193 10.5777 1.9879 10.5777 1.70981 10.4385C1.4652 10.3161 1.26633 10.1207 1.14169 9.88045C1 9.60728 1 9.24967 1 8.53447V3.04325C1 2.32804 1 1.97044 1.14169 1.69727C1.26633 1.45698 1.4652 1.26162 1.70981 1.13919C1.9879 1 2.35193 1 3.08 1H3.34C4.79614 1 5.5242 1 6.08038 1.27838C6.5696 1.52324 6.96735 1.91396 7.21662 2.39454C7.5 2.94088 7.5 3.65609 7.5 5.08649M7.5 12.1429V5.08649M7.5 12.1429L7.56504 12.047C8.01655 11.3817 8.24231 11.3995 8.54058 11.1586C8.80464 10.9455 9.1089 10.7855 9.43596 10.6879C9.80539 10.5777 10.2124 10.5777 11.0264 10.5777H11.92C12.6481 10.5777 13.0121 10.5777 13.2902 10.4385C13.5348 10.3161 13.7337 10.1207 13.8583 9.88045C14 9.60728 14 9.24967 14 8.53447V3.04325C14 2.32804 14 1.97044 13.8583 1.69727C13.7337 1.45698 13.5348 1.26162 13.2902 1.13919C13.0121 1 12.6481 1 11.92 1H11.66C10.2039 1 9.4758 1 8.91963 1.27838C8.4304 1.52324 8.03265 1.91396 7.78338 2.39454C7.5 2.94088 7.5 3.65609 7.5 5.08649" stroke="#444444" stroke-width="1.20714" stroke-linecap="round" stroke-linejoin="round"/>
</svg>
