<svg width="26" height="25" viewBox="0 0 26 25" fill="none" xmlns="http://www.w3.org/2000/svg">
<rect x="0.5" y="0.5" width="25" height="24" rx="7.5" fill="#DDEDE1" stroke="#B6D3BD"/>
<path d="M13 19L12.93 18.8968C12.4437 18.1803 12.2006 18.1994 11.8794 17.9401C11.595 17.7105 11.2673 17.5382 10.9151 17.4332C10.5173 17.3145 10.079 17.3145 9.20238 17.3145H8.24C7.45593 17.3145 7.06389 17.3145 6.76441 17.1646C6.50099 17.0327 6.28681 16.8223 6.15259 16.5636C6 16.2694 6 15.8843 6 15.114V9.20042C6 8.4302 6 8.04509 6.15259 7.75091C6.28681 7.49213 6.50099 7.28175 6.76441 7.14989C7.06389 7 7.45593 7 8.24 7H8.52C10.0881 7 10.8722 7 11.4712 7.29979C11.998 7.56349 12.4264 7.98427 12.6948 8.50181C13 9.09018 13 9.8604 13 11.4008M13 19V11.4008M13 19L13.07 18.8968C13.5563 18.1803 13.7994 18.1994 14.1206 17.9401C14.405 17.7105 14.7327 17.5382 15.0849 17.4332C15.4827 17.3145 15.921 17.3145 16.7976 17.3145H17.76C18.5441 17.3145 18.9361 17.3145 19.2356 17.1646C19.499 17.0327 19.7132 16.8223 19.8474 16.5636C20 16.2694 20 15.8843 20 15.114V9.20042C20 8.4302 20 8.04509 19.8474 7.75091C19.7132 7.49213 19.499 7.28175 19.2356 7.14989C18.9361 7 18.5441 7 17.76 7H17.48C15.9119 7 15.1278 7 14.5288 7.29979C14.002 7.56349 13.5736 7.98427 13.3052 8.50181C13 9.09018 13 9.8604 13 11.4008" stroke="#65936F" stroke-width="1.3" stroke-linecap="round" stroke-linejoin="round"/>
</svg>
