<svg width="16" height="14" viewBox="0 0 16 14" fill="none" xmlns="http://www.w3.org/2000/svg">
<path d="M6 3.66667H3.06667C2.6933 3.66667 2.50661 3.66667 2.36401 3.73933C2.23856 3.80324 2.13658 3.90523 2.07266 4.03067C2 4.17328 2 4.35997 2 4.73333V11.9333C2 12.3067 2 12.4934 2.07266 12.636C2.13658 12.7614 2.23856 12.8634 2.36401 12.9273C2.50661 13 2.6933 13 3.06667 13H6M6 13H10M6 13L6 2.06667C6 1.6933 6 1.50661 6.07266 1.36401C6.13658 1.23857 6.23857 1.13658 6.36401 1.07266C6.50661 1 6.6933 1 7.06667 1L8.93333 1C9.3067 1 9.49339 1 9.63599 1.07266C9.76144 1.13658 9.86342 1.23856 9.92734 1.36401C10 1.50661 10 1.6933 10 2.06667V13M10 6.33333H12.9333C13.3067 6.33333 13.4934 6.33333 13.636 6.406C13.7614 6.46991 13.8634 6.5719 13.9273 6.69734C14 6.83995 14 7.02663 14 7.4V11.9333C14 12.3067 14 12.4934 13.9273 12.636C13.8634 12.7614 13.7614 12.8634 13.636 12.9273C13.4934 13 13.3067 13 12.9333 13H10" stroke="#444444" stroke-width="1.21" stroke-linecap="round" stroke-linejoin="round"/>
</svg>
