<svg width="26" height="25" viewBox="0 0 26 25" fill="none" xmlns="http://www.w3.org/2000/svg">
<rect x="0.5" y="0.5" width="25" height="24" rx="7.5" fill="#D8E1F3" stroke="#BBC7DF"/>
<path d="M11.3333 8.88889H8.15556C7.75107 8.88889 7.54883 8.88889 7.39434 8.96761C7.25845 9.03685 7.14796 9.14733 7.07872 9.28323C7 9.43772 7 9.63996 7 10.0444V17.8444C7 18.2489 7 18.4512 7.07872 18.6057C7.14796 18.7416 7.25845 18.852 7.39434 18.9213C7.54883 19 7.75107 19 8.15556 19H11.3333M11.3333 19H15.6667M11.3333 19L11.3333 7.15556C11.3333 6.75107 11.3333 6.54883 11.4121 6.39434C11.4813 6.25845 11.5918 6.14796 11.7277 6.07872C11.8822 6 12.0844 6 12.4889 6L14.5111 6C14.9156 6 15.1178 6 15.2723 6.07872C15.4082 6.14796 15.5187 6.25845 15.5879 6.39434C15.6667 6.54883 15.6667 6.75107 15.6667 7.15556V19M15.6667 11.7778H18.8444C19.2489 11.7778 19.4512 11.7778 19.6057 11.8565C19.7416 11.9257 19.852 12.0362 19.9213 12.1721C20 12.3266 20 12.5289 20 12.9333V17.8444C20 18.2489 20 18.4512 19.9213 18.6057C19.852 18.7416 19.7416 18.852 19.6057 18.9213C19.4512 19 19.2489 19 18.8444 19H15.6667" stroke="#5F759F" stroke-width="1.3" stroke-linecap="round" stroke-linejoin="round"/>
</svg>
