<svg width="18" height="18" viewBox="0 0 18 18" fill="none" xmlns="http://www.w3.org/2000/svg">
<rect width="18" height="18" rx="4" fill="#EEF0F3"/>
<path d="M7.33333 6.22222H4.88889C4.57775 6.22222 4.42218 6.22222 4.30334 6.28277C4.1988 6.33604 4.11381 6.42103 4.06055 6.52556C4 6.6444 4 6.79997 4 7.11111V13.1111C4 13.4223 4 13.5778 4.06055 13.6967C4.11381 13.8012 4.1988 13.8862 4.30334 13.9394C4.42218 14 4.57775 14 4.88889 14H7.33333M7.33333 14H10.6667M7.33333 14L7.33333 4.88889C7.33333 4.57775 7.33333 4.42218 7.39389 4.30334C7.44715 4.1988 7.53214 4.11382 7.63667 4.06055C7.75551 4 7.91108 4 8.22222 4L9.77778 4C10.0889 4 10.2445 4 10.3633 4.06055C10.4679 4.11381 10.5529 4.1988 10.6061 4.30334C10.6667 4.42218 10.6667 4.57775 10.6667 4.88889V14M10.6667 8.44444H13.1111C13.4223 8.44444 13.5778 8.44444 13.6967 8.505C13.8012 8.55826 13.8862 8.64325 13.9394 8.74778C14 8.86662 14 9.02219 14 9.33333V13.1111C14 13.4223 14 13.5778 13.9394 13.6967C13.8862 13.8012 13.8012 13.8862 13.6967 13.9394C13.5778 14 13.4223 14 13.1111 14H10.6667" stroke="black" stroke-width="0.909091" stroke-linecap="round" stroke-linejoin="round"/>
</svg>
