<svg width="18" height="18" viewBox="0 0 18 18" fill="none" xmlns="http://www.w3.org/2000/svg">
<rect width="18" height="18" rx="4" fill="#EEF0F3"/>
<path d="M13.7746 11.0619C13.4509 11.8276 12.9446 12.5023 12.3 13.0271C11.6554 13.5519 10.892 13.9107 10.0767 14.0722C9.26143 14.2337 8.41899 14.193 7.62306 13.9536C6.82713 13.7142 6.10194 13.2835 5.51089 12.699C4.91985 12.1145 4.48094 11.3941 4.23255 10.6008C3.98415 9.80741 3.93384 8.96527 4.08599 8.14798C4.23815 7.33068 4.58814 6.56311 5.10538 5.91238C5.62262 5.26164 6.29135 4.74754 7.05311 4.41504" stroke="#222222" stroke-width="0.897255" stroke-linecap="round" stroke-linejoin="round"/>
<path d="M14.0659 9.0818C14.2073 9.0818 14.278 9.0818 14.3346 9.05123C14.3818 9.02569 14.4248 8.97916 14.4464 8.92998C14.4724 8.87112 14.4671 8.80577 14.4567 8.67507C14.4143 8.14603 14.2893 7.62602 14.0856 7.13415C13.8299 6.51666 13.4551 5.9556 12.9827 5.483C12.5102 5.0104 11.9493 4.63551 11.3319 4.37974C10.8402 4.176 10.3203 4.05102 9.79139 4.00861C9.66073 3.99813 9.5954 3.99289 9.53654 4.01884C9.48738 4.04052 9.44086 4.08347 9.41533 4.13076C9.38477 4.18736 9.38477 4.25807 9.38477 4.39949V8.67464C9.38477 8.81716 9.38477 8.88842 9.41249 8.94286C9.43689 8.99074 9.47581 9.02967 9.52368 9.05407C9.5781 9.0818 9.64934 9.0818 9.79182 9.0818H14.0659Z" fill="#D9D9D9" stroke="#222222" stroke-width="0.897255" stroke-linecap="round" stroke-linejoin="round"/>
</svg>
