<svg width="38" height="36" viewBox="0 0 38 36" fill="none" xmlns="http://www.w3.org/2000/svg">
<rect width="38" height="36" rx="8" fill="#EEF0F3"/>
<path d="M19 25.2222L18.92 25.1036C18.3642 24.2804 18.0864 23.8687 17.7193 23.5707C17.3943 23.3069 17.0198 23.109 16.6173 22.9882C16.1626 22.8519 15.6617 22.8519 14.6599 22.8519H13.56C12.6639 22.8519 12.2159 22.8519 11.8736 22.6796C11.5726 22.5281 11.3278 22.2864 11.1744 21.989C11 21.651 11 21.2085 11 20.3235V13.5284C11 12.6434 11 12.2009 11.1744 11.8628C11.3278 11.5655 11.5726 11.3237 11.8736 11.1722C12.2159 11 12.6639 11 13.56 11H13.88C15.6722 11 16.5683 11 17.2528 11.3445C17.8549 11.6475 18.3444 12.131 18.6512 12.7257C19 13.4017 19 14.2867 19 16.0568M19 25.2222V16.0568M19 25.2222L19.08 25.1036C19.6358 24.2804 19.9136 23.8687 20.2807 23.5707C20.6057 23.3069 20.9802 23.109 21.3827 22.9882C21.8374 22.8519 22.3383 22.8519 23.3401 22.8519H24.44C25.3361 22.8519 25.7841 22.8519 26.1264 22.6796C26.4274 22.5281 26.6722 22.2864 26.8256 21.989C27 21.651 27 21.2085 27 20.3235V13.5284C27 12.6434 27 12.2009 26.8256 11.8628C26.6722 11.5655 26.4274 11.3237 26.1264 11.1722C25.7841 11 25.3361 11 24.44 11H24.12C22.3278 11 21.4317 11 20.7472 11.3445C20.1451 11.6475 19.6556 12.131 19.3488 12.7257C19 13.4017 19 14.2867 19 16.0568" stroke="#222222" stroke-width="1.5" stroke-linecap="round" stroke-linejoin="round"/>
</svg>
