<svg width="18" height="18" viewBox="0 0 18 18" fill="none" xmlns="http://www.w3.org/2000/svg">
<rect width="18" height="18" rx="4" fill="#EEF0F3"/>
<path d="M15 14.4997H4.05317C3.68453 14.4997 3.50021 14.4997 3.3594 14.428C3.23555 14.3649 3.13485 14.2642 3.07174 14.1403C3 13.9995 3 13.8152 3 13.4466V4" stroke="black" stroke-width="0.9" stroke-linecap="round" stroke-linejoin="round"/>
<path d="M10.2229 6.80751L12.585 8.06661M8.96127 6.98816L6.29262 9.85422M13.7875 7.81198C14.0708 8.09537 14.0708 8.55483 13.7875 8.83822C13.5041 9.12161 13.0446 9.12161 12.7612 8.83822C12.4778 8.55483 12.4778 8.09537 12.7612 7.81198C13.0446 7.5286 13.5041 7.5286 13.7875 7.81198ZM6.2251 9.77658C6.50849 10.06 6.50849 10.5194 6.2251 10.8028C5.94172 11.0862 5.48225 11.0862 5.19887 10.8028C4.91548 10.5194 4.91548 10.06 5.19887 9.77658C5.48225 9.49319 5.94172 9.49319 6.2251 9.77658ZM10.0555 6.0392C10.3389 6.32259 10.3389 6.78205 10.0555 7.06543C9.77212 7.34882 9.31266 7.34882 9.02928 7.06543C8.74589 6.78205 8.74589 6.32259 9.02928 6.0392C9.31266 5.75581 9.77212 5.75581 10.0555 6.0392Z" stroke="black" stroke-width="0.9" stroke-linecap="round" stroke-linejoin="round"/>
</svg>
