<svg width="38" height="36" viewBox="0 0 38 36" fill="none" xmlns="http://www.w3.org/2000/svg">
<rect width="38" height="36" rx="8" fill="#EEF0F3"/>
<path d="M20.7778 24.9158C20.7778 25.8925 19.9818 26.6842 19 26.6842C18.0182 26.6842 17.2222 25.8925 17.2222 24.9158M20.7778 24.9158C20.7778 23.9391 19.9818 23.1474 19 23.1474M20.7778 24.9158H27M17.2222 24.9158C17.2222 23.9391 18.0182 23.1474 19 23.1474M17.2222 24.9158H11M19 23.1474V19.6105M27 11.6526C27 13.1176 23.4183 14.3053 19 14.3053C14.5817 14.3053 11 13.1176 11 11.6526M27 11.6526C27 10.1876 23.4183 9 19 9C14.5817 9 11 10.1876 11 11.6526M27 11.6526V16.9579C27 18.4257 23.4444 19.6105 19 19.6105M11 11.6526V16.9579C11 18.4257 14.5556 19.6105 19 19.6105" stroke="#222222" stroke-width="1.5" stroke-linecap="round" stroke-linejoin="round"/>
</svg>
