<svg width="38" height="36" viewBox="0 0 38 36" fill="none" xmlns="http://www.w3.org/2000/svg">
<rect width="38" height="36" rx="8" fill="#EEF0F3"/>
<path d="M19 18.0001H19.0076M21.6916 20.6916C18.1239 24.2593 14.0267 25.9464 12.5402 24.4599C11.0536 22.9733 12.7407 18.8761 16.3084 15.3085C19.8761 11.7408 23.9733 10.0538 25.4599 11.5403C26.9464 13.0268 25.2593 17.124 21.6916 20.6916ZM21.6916 15.3084C25.2593 18.876 26.9464 22.9732 25.4598 24.4597C23.9733 25.9462 19.8761 24.2592 16.3084 20.6915C12.7407 17.1239 11.0536 13.0267 12.5401 11.5401C14.0267 10.0536 18.1239 11.7407 21.6916 15.3084ZM19.3807 18.0001C19.3807 18.2103 19.2102 18.3807 19 18.3807C18.7898 18.3807 18.6194 18.2103 18.6194 18.0001C18.6194 17.7898 18.7898 17.6194 19 17.6194C19.2102 17.6194 19.3807 17.7898 19.3807 18.0001Z" stroke="#222222" stroke-width="1.5" stroke-linecap="round" stroke-linejoin="round"/>
</svg>
