<svg width="12" height="14" viewBox="0 0 12 14" fill="none" xmlns="http://www.w3.org/2000/svg">
<path fill-rule="evenodd" clip-rule="evenodd" d="M4.53854 1.62204C4.61668 1.5439 4.72266 1.5 4.83317 1.5H7.1665C7.27701 1.5 7.38299 1.5439 7.46113 1.62204C7.53927 1.70018 7.58317 1.80616 7.58317 1.91667V2.33276H4.4165V1.91667C4.4165 1.80616 4.4604 1.70018 4.53854 1.62204ZM2.9165 2.33276V1.91667C2.9165 1.40833 3.11844 0.920823 3.47788 0.561379C3.83733 0.201934 4.32484 0 4.83317 0H7.1665C7.67484 0 8.16235 0.201934 8.52179 0.561379C8.88124 0.920823 9.08317 1.40833 9.08317 1.91667V2.33276H11.25C11.6642 2.33276 12 2.66855 12 3.08276C12 3.49698 11.6642 3.83276 11.25 3.83276H10.7606L9.99936 11.2929C9.98835 11.7857 9.78779 12.256 9.43846 12.6053C9.07902 12.9647 8.5915 13.1667 8.08317 13.1667H3.9165C3.40817 13.1667 2.92066 12.9647 2.56122 12.6053C2.21188 12.256 2.01133 11.7857 2.00032 11.2929L1.23908 3.83276H0.75C0.335786 3.83276 0 3.49698 0 3.08276C0 2.66855 0.335786 2.33276 0.75 2.33276H1.91667H2.9165ZM3.6665 3.83333H8.33317H9.25275L8.50371 11.1739C8.50113 11.1992 8.49984 11.2246 8.49984 11.25C8.49984 11.3605 8.45594 11.4665 8.3778 11.5446C8.29966 11.6228 8.19368 11.6667 8.08317 11.6667H3.9165C3.806 11.6667 3.70002 11.6228 3.62188 11.5446C3.54374 11.4665 3.49984 11.3605 3.49984 11.25C3.49984 11.2246 3.49854 11.1992 3.49596 11.1739L2.74693 3.83333H3.6665Z" fill="#3957D3"/>
</svg>
