<svg width="13" height="14" viewBox="0 0 13 14" fill="none" xmlns="http://www.w3.org/2000/svg">
<path fill-rule="evenodd" clip-rule="evenodd" d="M4.78854 1.87204C4.86668 1.7939 4.97266 1.75 5.08317 1.75H7.4165C7.52701 1.75 7.63299 1.7939 7.71113 1.87204C7.78927 1.95018 7.83317 2.05616 7.83317 2.16667V2.58301H4.6665V2.16667C4.6665 2.05616 4.7104 1.95018 4.78854 1.87204ZM3.1665 2.58301V2.16667C3.1665 1.65833 3.36844 1.17082 3.72788 0.811379C4.08733 0.451934 4.57484 0.25 5.08317 0.25H7.4165C7.92484 0.25 8.41235 0.451934 8.77179 0.811379C9.13124 1.17082 9.33317 1.65833 9.33317 2.16667V2.58301H11.5C11.9142 2.58301 12.25 2.91879 12.25 3.33301C12.25 3.74722 11.9142 4.08301 11.5 4.08301H11.0106L10.2494 11.5429C10.2384 12.0357 10.0378 12.506 9.68846 12.8553C9.32902 13.2147 8.8415 13.4167 8.33317 13.4167H4.1665C3.65817 13.4167 3.17066 13.2147 2.81122 12.8553C2.46188 12.506 2.26133 12.0357 2.25032 11.5429L1.48911 4.08301H1C0.585786 4.08301 0.25 3.74722 0.25 3.33301C0.25 2.91879 0.585786 2.58301 1 2.58301H2.16667H3.1665ZM3.9165 4.08333H8.58317H9.50275L8.75371 11.4239C8.75113 11.4492 8.74984 11.4746 8.74984 11.5C8.74984 11.6105 8.70594 11.7165 8.6278 11.7946C8.54966 11.8728 8.44368 11.9167 8.33317 11.9167H4.1665C4.056 11.9167 3.95002 11.8728 3.87188 11.7946C3.79374 11.7165 3.74984 11.6105 3.74984 11.5C3.74984 11.4746 3.74854 11.4492 3.74596 11.4239L2.99693 4.08333H3.9165Z" fill="#808192"/>
</svg>
