<svg width="20" height="18" viewBox="0 0 20 18" fill="none" xmlns="http://www.w3.org/2000/svg">
<path d="M17.5018 16.721H7.31982C6.4914 16.721 5.81982 16.0494 5.81982 15.221V2C5.81982 1.17157 6.4914 0.5 7.31982 0.5H13.2456C13.863 0.5 14.4585 0.728423 14.9175 1.14128L18.1737 4.07016C18.7008 4.54428 19.0018 5.21991 19.0018 5.92888V10.3326V15.221C19.0018 16.0494 18.3303 16.721 17.5018 16.721Z" fill="white" stroke="#11947C"/>
<path d="M13.2612 0.577637L13.2612 4.31797C13.2612 5.42254 14.1567 6.31797 15.2612 6.31797H18.934" stroke="#11947C"/>
<path d="M1.50195 6L9.68388 6H12.4112L15.684 14.1819H1.50195L1.50195 6Z" fill="white"/>
<path d="M13.5273 7.46143C14.2011 7.46143 14.7549 7.59925 15.1888 7.87489C15.6227 8.14542 15.8447 8.54867 15.8549 9.08464V9.17652H14.27V9.1459C14.27 8.99276 14.2138 8.86515 14.1015 8.76306C13.9892 8.66097 13.8182 8.60993 13.5885 8.60993C13.3639 8.60993 13.1904 8.64311 13.0679 8.70946C12.9505 8.77582 12.8918 8.85749 12.8918 8.95448C12.8918 9.0923 12.9735 9.19439 13.1368 9.26075C13.3001 9.3271 13.563 9.39601 13.9254 9.46748C14.3491 9.55425 14.6962 9.64613 14.9667 9.74312C15.2424 9.835 15.4823 9.98813 15.6865 10.2025C15.8906 10.4169 15.9953 10.7079 16.0004 11.0754C16.0004 11.6981 15.7886 12.1601 15.3649 12.4612C14.9463 12.7624 14.3848 12.913 13.6804 12.913C12.8586 12.913 12.218 12.7752 11.7586 12.4995C11.3043 12.2239 11.0771 11.7364 11.0771 11.0371H12.6774C12.6774 11.3025 12.7463 11.4812 12.8841 11.5731C13.0219 11.6598 13.2363 11.7032 13.5273 11.7032C13.7417 11.7032 13.9178 11.6803 14.0556 11.6343C14.1985 11.5884 14.27 11.4939 14.27 11.351C14.27 11.2234 14.1909 11.129 14.0326 11.0677C13.8795 11.0014 13.6268 10.9325 13.2746 10.861C12.8458 10.7691 12.4911 10.6747 12.2103 10.5777C11.9296 10.4756 11.6846 10.3097 11.4753 10.08C11.266 9.85031 11.1614 9.53894 11.1614 9.1459C11.1614 8.56909 11.3834 8.14542 11.8275 7.87489C12.2767 7.59925 12.8433 7.46143 13.5273 7.46143Z" fill="#11947C"/>
<path d="M6.45361 7.54834H8.20477V11.6053H11.0019V12.9999H6.45361V7.54834Z" fill="#11947C"/>
<path d="M6.133 12.9999H4.00943L3.00311 11.3042H2.97142L1.9651 12.9999H0L1.94925 10.1156L0.190171 7.54834H2.30582L3.12989 8.94292H3.16159L3.99358 7.54834H5.95075L4.18375 10.1236L6.133 12.9999Z" fill="#11947C"/>
</svg>
