<svg width="20" height="18" viewBox="0 0 20 18" fill="none" xmlns="http://www.w3.org/2000/svg">
<path d="M18 16.72H7.81885C6.99042 16.72 6.31885 16.0484 6.31885 15.22V2C6.31885 1.17157 6.99042 0.5 7.81885 0.5H13.7441C14.3614 0.5 14.957 0.728423 15.416 1.14128L18.6719 4.06989C19.199 4.54401 19.5 5.21964 19.5 5.92861V10.332V15.22C19.5 16.0484 18.8285 16.72 18 16.72Z" fill="white" stroke="#C67A07"/>
<path d="M13.7603 0.578125L13.7603 4.31812C13.7603 5.42269 14.6557 6.31812 15.7603 6.31812H19.4327" stroke="#C67A07"/>
<path d="M2.00098 5L10.0779 5H12.7702L16.001 14H2.00098L2.00098 5Z" fill="white"/>
<path d="M13.4849 7C13.857 7 14.1884 7.08721 14.4791 7.26163C14.7698 7.43023 14.9966 7.6657 15.1594 7.96802C15.3221 8.26453 15.4035 8.59884 15.4035 8.97093V9.0843C15.4035 9.4564 15.3221 9.7936 15.1594 10.0959C14.9966 10.3983 14.7698 10.6366 14.4791 10.811C14.1884 10.9797 13.857 11.064 13.4849 11.064H12.046V13H10.1187V7H13.4849ZM12.046 9.65988H12.8396C13.0431 9.65988 13.1942 9.60756 13.2931 9.50291C13.3977 9.39826 13.45 9.25581 13.45 9.07558V9.00581C13.45 8.81977 13.3977 8.67733 13.2931 8.57849C13.1942 8.47384 13.0431 8.42151 12.8396 8.42151H12.046V9.65988Z" fill="#FF9A00"/>
<path d="M6.81738 13V7H8.74471V13H6.81738Z" fill="#FF9A00"/>
<path d="M2.96512 11.561H5.81686V13H0V12.3808L2.78198 8.43895H0.209302V7H5.74709V7.61919L2.96512 11.561Z" fill="#FF9A00"/>
</svg>
